/* XPM */
static char *out[] = {
/* columns rows colors chars-per-pixel */
"64 64 254 2 ",
"   c #321310",
".  c #372A0A",
"X  c #09302F",
"o  c #262522",
"O  c #4D2F09",
"+  c #6E3613",
"@  c #411F20",
"#  c #4D3132",
"$  c #7A3225",
"%  c #00550E",
"&  c #2B4B18",
"*  c #006A18",
"=  c #2F6D0F",
"-  c #084E30",
";  c #395C30",
":  c #036B30",
">  c #665A1B",
",  c #4A6A0D",
"<  c #4F4B30",
"1  c #053551",
"2  c #05356A",
"3  c #08387E",
"4  c #353F74",
"5  c #0E4D49",
"6  c #045746",
"7  c #035759",
"8  c #006B44",
"9  c #006A5C",
"0  c #017858",
"q  c #2E6250",
"w  c #0B4A6A",
"e  c #035869",
"r  c #014979",
"t  c #055479",
"y  c #365375",
"u  c #006D64",
"i  c #027A68",
"p  c #067670",
"a  c #2E7264",
"s  c #554E47",
"d  c #685650",
"f  c #54696B",
"g  c #646D61",
"h  c #756A70",
"j  c #9F1E17",
"k  c #B01F1E",
"l  c #8B2F19",
"z  c #A3261D",
"x  c #912E26",
"c  c #A33926",
"v  c #AE3232",
"b  c #C83433",
"n  c #8A562F",
"m  c #876733",
"M  c #925B5B",
"N  c #AC4345",
"B  c #876251",
"V  c #AA6C5F",
"C  c #8F7469",
"Z  c #897575",
"A  c #AD796F",
"S  c #D05046",
"D  c #0A8E1C",
"F  c #229E0C",
"G  c #30B61C",
"H  c #0F8D35",
"J  c #038638",
"K  c #2D8F2E",
"L  c #12AB33",
"P  c #31B42E",
"I  c #4BAA1A",
"U  c #519922",
"Y  c #758B3A",
"T  c #4DB22B",
"R  c #6BB53E",
"E  c #00C609",
"W  c #30D51C",
"Q  c #1BEE0F",
"!  c #00FF01",
"~  c #0AF907",
"^  c #0DF60C",
"/  c #04FB0B",
"(  c #0AF90A",
")  c #13F40D",
"_  c #1BF00F",
"`  c #1BEE15",
"'  c #15EE1B",
"]  c #1CEC1B",
"[  c #0BF615",
"{  c #08F717",
"}  c #13F212",
"|  c #12F11A",
" . c #26E818",
".. c #22EA1C",
"X. c #32E01B",
"o. c #15D22E",
"O. c #37DB25",
"+. c #2BD335",
"@. c #37DA37",
"#. c #17ED23",
"$. c #13ED2C",
"%. c #0EF126",
"&. c #11F123",
"*. c #19E837",
"=. c #27E526",
"-. c #31E232",
";. c #44C929",
":. c #54C12C",
">. c #46D332",
",. c #40EC38",
"<. c #03874A",
"1. c #0E934B",
"2. c #028758",
"3. c #319A4D",
"4. c #17B44D",
"5. c #2CAE49",
"6. c #06906B",
"7. c #318C77",
"8. c #11AF62",
"9. c #2EB46B",
"0. c #518D5C",
"q. c #53B650",
"w. c #76B64A",
"e. c #6B9578",
"r. c #56BB71",
"t. c #6CB571",
"y. c #13C84A",
"u. c #1AD949",
"i. c #1DD55A",
"p. c #27DB49",
"a. c #2FCD55",
"s. c #27D657",
"d. c #1BE345",
"f. c #1BE153",
"g. c #22E143",
"h. c #1DD273",
"j. c #3BCA66",
"k. c #2DD06A",
"l. c #4DCB4C",
"z. c #48D946",
"x. c #6ACC53",
"c. c #49E546",
"v. c #5DE954",
"b. c #64FF50",
"n. c #48CD65",
"m. c #59DB63",
"M. c #70D170",
"N. c #56FA66",
"B. c #6FF36D",
"V. c #86914B",
"C. c #AA8251",
"Z. c #83B353",
"A. c #B28E6D",
"S. c #85BB71",
"D. c #B2A868",
"F. c #CCAD7C",
"G. c #87D673",
"H. c #81F074",
"J. c #083B88",
"K. c #193487",
"L. c #0B3994",
"P. c #153A98",
"I. c #243E83",
"U. c #0F3FA4",
"Y. c #153CA5",
"T. c #054A88",
"R. c #0D518A",
"E. c #0B4398",
"W. c #344B8A",
"Q. c #0E6992",
"!. c #2B6F8B",
"~. c #1A48B0",
"^. c #2B4CAD",
"/. c #1B69B1",
"(. c #4C5998",
"). c #4F6F90",
"_. c #6A7888",
"`. c #495CA4",
"'. c #4B6DAB",
"]. c #6674B3",
"[. c #1850D1",
"{. c #2453D1",
"}. c #1867D4",
"|. c #3071C9",
" X c #144DE2",
".X c #1756E9",
"XX c #1458F7",
"oX c #1868E8",
"OX c #1863F5",
"+X c #236FE7",
"@X c #5C75C5",
"#X c #807C8E",
"$X c #13948D",
"%X c #2D9892",
"&X c #1EA39E",
"*X c #718E8E",
"=X c #4EB088",
"-X c #71B48E",
";X c #708FB1",
":X c #50A7A0",
">X c #64A4A2",
",X c #31CB87",
"<X c #77D192",
"1X c #5DCDA2",
"2X c #1A86C3",
"3X c #3780E1",
"4X c #6FA4E0",
"5X c #8D8C90",
"6X c #B59D8D",
"7X c #95BA96",
"8X c #B4AF95",
"9X c #8B93AE",
"0X c #8FB0AF",
"qX c #ABA8AA",
"wX c #C69587",
"eX c #D3B69B",
"rX c #C9B7AD",
"tX c #E8ABA9",
"yX c #89D18D",
"uX c #90ED8F",
"iX c #A4EE9F",
"pX c #A9F99A",
"aX c #9BDAAC",
"sX c #AAD3AF",
"dX c #B6C9B4",
"fX c #B9D8B9",
"gX c #AFF3AE",
"hX c #B9E7B7",
"jX c #CCDC9C",
"kX c #EFCD96",
"lX c #C8C2BB",
"zX c #EFD3AB",
"xX c #C1F1BD",
"cX c #FAE6BC",
"vX c #93A3D8",
"bX c #ADB9D4",
"nX c #AFB9E8",
"mX c #C6BCC8",
"MX c #B1CCCC",
"NX c #A7D4D8",
"BX c #AFEECB",
"VX c #B9EBFD",
"CX c #C7D7C7",
"ZX c #CBCAD1",
"AX c #F4D9CD",
"SX c #CAE9C8",
"DX c #D0F2CE",
"FX c #DBFAD9",
"GX c #EBEFD6",
"HX c #CACCE5",
"JX c #D9F1EF",
"KX c #FFE6E7",
"LX c #EFF4EC",
"PX c #F9F9E7",
/* pixels */
"! ! ! ! ! ! ! ! ! ! ! ! ! ! ! ! ! ! ! ! ! ! ! ! ! ! ! ! ! ! ! ! ! ! ! ! ! ! ! ! ! ! ! ! ! ! ! ! ! ! ! ! ! ! ! ! ! ! ! ! ! ! ! ! ",
"! ! ! ! ! ! ! ! ! ! ! ! ! ! ! ! ! ! ! ! ! ! ! ! ! / ! ! ! ! ! ! ! ! ! ! ! ! ! ! ! ! ! ! ! ! ! ! ! ! ! ! ! ! ! ! ! ! ! ! ! ! ! ! ",
"! ! ! ! ! ! ! ! ! ! ! ! ! ! ! ! ! ! ! ! ! ! ! ! ! ! ! ! ! ! ! ! ! ! ! ! ! ! ! ! ! ! ! ! ! ! ! ! ! ! ! ! ! ! ! ! ! ! ! ! ! ! ! ! ",
"! ! ! ! ! ! ! ! ! ! ! ! ! ! ! ! ! ! ! ! ! ! ~ / [ [ / ! / ! / / / / / / / ! ! ! ! ! ! ! ! ! ! ! ! ! ! ! ! ! ! ! ! ! ! ! ! ! ! ! ",
"! ! ! ! ! ! ! ! ! ! ! ! ! ! ! ! ! ! ! ! ! / [ [ #.&.[ { / / / { { { %.{ / ! ! ! ! ! ! ! ! ! ! ! ! ! ! ! ! ! ! ! ! ! ! ! ! ! ! ! ",
"! ! ! ! ! ! ! ! ! ! ! ! ! ! ! ! ! ! ! ! ! ( | E E o.*.$.%.$.d.d.f.f.f.d.$.%.{ / ! ! ! ! ! ! ! ! ! ! ! ! ! ! ! ! ! ! ! ! ! ! ! ! ",
"! ! ! ! ! ! ! ! ! ! ! ! ! ! ! ! ! ! ! ! / ^ #.P 3.: 5.k.f.h.h.&X$X$X6.6.y.g.$.[ / ! / ! ! ! ! ! ! ! ! ! ! ! ! ! ! ! ! ! ! ! ! ! ",
"! ! ! ! ! ! ! ! ! ! ! ! ! ! ! ! ! ! ! ! ~ [ =.P t.-X: 8.,X&X&X/.}./.Q.e 8 4.+.o.[ / ! ! ! ! ! ! ! ! ! ! ! ! ! ! ! ! ! ! ! ! ! ! ",
"! ! ! ! ! ! ! ! ! ! ! ! ! ! ! ! ! ! ! ! / } =.P S.BX!.Q.2X2X}.}.}.~.E.R.w a K L #.{ ! ! ! ! ! ! ! ! ! ! ! ! ! ! ! ! ! ! ! ! ! ! ",
"! ! ! ! ! ! ! ! ! ! ! ! ! ! ! ! ! ! ! / ! [ *.P -XVX3X+XoXoX.X.X X[.{./._.*X0.K -.{ / ! ! ! ! ! ! ! ! ! ! ! ! ! ! ! ! ! ! ! ! ! ",
"! ! ! ! ! ! ! ! ! ! ! ! ! ! ! ! ! ! ! ! / [ *.L =X4X3X+XOXOXXXXX X[.^.].9X#Xe.q p.*.[ / ! ! ! ! ! ! ! ! ! ! ! ! ! ! ! ! ! ! ! ! ",
"! ! ! ! ! ! ! ! ! ! ! ! ! ! ! ! ! ! ! ! ! [ $.i.%X2X+XOXOXOXXX.X X{.Y.`.9X5X9X5 1.u.$.{ / ! ! ! ! ! ! ! ! ! ! ! ! ! ! ! ! ! ! ! ",
"! ! ! ! ! ! ! ! ! ! ! ! ! ! ! ! ! ! ! ! / { *.y.%X3X+XOXXXXXXXXX X~.Y.K.(.9X`.2 6 1.y.%.{ / ! ! ! ! ! ! ! ! ! ! ! ! ! ! ! ! ! ! ",
"! ! ! ! ! ! ! ! ! ! ! ! ! ! ! ! ! ! ! ! / { d.4.1XvX}.OXXXXXXX.X X~.Y.K.K.`.P.K.r u 1.f.%./ ! ! ! ! ! ! ! ! ! ! ! ! ! ! ! ! ! ! ",
"! ! ! ! ! ! ! ! ! ! ! ! ! ! ! ! ! ! ! ! ! { d.4.NXVX}.OXXXXX.X{.^.@X@XI.K.K.Y.Y.L.r 9 y.$./ / ! ! ! ! ! ! ! ! ! ! ! ! ! ! ! ! ! ",
"! ! ! ! ! ! ! ! ! ! ! ! ! ! ! ! ! ! ! ! / %.d.i.BXJX|..XXX.X{.Y.vXnXnX`.K.Y.Y.Y.~.T.e 1.d./ / ! ! ! ! ! ! ! ! ! ! ! ! ! ! ! ! ! ",
"! ! ! ! ! ! ! ! ! ! ! ! ! ! ! ! ! ! ! ! / &.p.j.BXJX|..X.X{.~.4XnXHXHX].K.U.P.Y.E.E.t 0 d.{ / ! ! ! ! ! ! ! ! ! ! ! ! ! ! ! ! ! ",
"! ! ! ! ! ! ! ! ! ! ! ! ! ! ! ! ! ! ! / / $.s.9.BXJX/.^.~.^.'.(.HXZXHX`.K.P.~.~.E.E.t 0 f.{ ! ! ! ! ! ! ! ! ! ! ! ! ! ! ! ! ! ! ",
"! ! ! ! ! ! ! ! ! ! ! ! ! ! ! ! ! ! ! ! / $.a.9.aXJXy W.W.W.9XX ZXmXbX(.L.P.E.J.J.r e 2.d.{ / ! ! ! ! ! ! ! ! ! ! ! ! ! ! ! ! ! ",
"! ! ! ! ! ! ! ! ! ! ! ! ! ! ! ! ! ! ! ! / $.a.=XsXJX*X_._.9XqX# mXmX9XI.P.E.R./.7 6 8 1.*./ / ! ! ! ! ! ! ! ! ! ! ! ! ! ! ! ! ! ",
"! ! ! ! ! ! ! ! ! ! ! ! ! ! ! ! ! ! ! / / $.i.r.fXGXZ < 6XrX6XC 6X#X4 4 P.L.R.%X9.J D o.&./ ! ! ! ! ! ! ! ! ! ! ! ! ! ! ! ! ! ! ",
"! ! ! ! ! ! ! ! ! ! ! ! ! ! ! ! ! ! ! ! { $.a.1.-XrXrXwXwXeXkXeXrX9X(.K.L.L.t 6.k.u.o.$.{ / ! ! ! ! ! ! ! ! ! ! ! ! ! ! ! ! ! ! ",
"! ! ! ! ! ! ! ! ! ! ! ! ! ! ! ! ! ! ! / / $.i.1.- d Z A A C.A.A.5X_.4 K.L.L.T.u i.$.&.{ / / ! ! ! ! ! ! ! ! ! ! ! ! ! ! ! ! ! ! ",
"! ! ! ! ! ! ! ! ! ! ! ! ! ! ! ! ! ! ! / / =.p.8 X X s d B m n d d # 2 3 J.L.T.u y.%./ / ! ! ! ! ! ! ! ! ! ! ! ! ! ! ! ! ! ! ! ! ",
"! ! ! ! ! ! ! ! ! ! ! ! ! ! ! ! ! ! ! ! ( ' @.L q ).f 8XD.C.m < < - 1 2 J.J.T.u y.%.{ ! ! ! ! ! ! ! ! ! ! ! ! ! ! ! ! ! ! ! ! ! ",
"! ! ! ! ! ! ! ! ! ! ! ! ! ! ! ! ! ! ! ~ ^  .c.<X-X*X_.GXcXkXF.V.0.0.5 1 2 3 r 9 y.&./ ! ! ! ! ! ! ! ! ! ! ! ! ! ! ! ! ! ! ! ! ! ",
"! ! ! ! ! ! ! ! ! ! ! ! ! ! ! ! ! ! ! ~ ` ,.H.r.q %X0XLXcXkXkXD., t.3.- 1 2 w 9 u.[ / ! ! ! ! ! ! ! ! ! ! ! ! ! ! ! ! ! ! ! ! ! ",
"! ! ! ! ! ! ! ! ! ! ! ! ! ! ! ! ! ! ! ^  .b.>.q.7.).9XLXcXkXkXD., M.l.1.- 1 5 <.d.[ / ! ! ! ! ! ! ! ! ! ! ! ! ! ! ! ! ! ! ! ! ! ",
"! ! ! ! ! ! ! ! ! ! ! ! ! ! ! ! ! ! ! )  .b.l.t.a ).f LXAXkXkXD.= x.l.q.* % - H *.( / ! ! ! ! ! ! ! ! ! ! ! ! ! ! ! ! ! ! ! ! ! ",
"! ! ! ! ! ! ! ! ! ! ! ! ! ! ! ! ! ! ! ^  .b.G.M.a y y HXAXzXeXd w.T >.l.3.% * a.$./ ! ! ! ! ! ! ! ! ! ! ! ! ! ! ! ! ! ! ! ! ! ! ",
"! ! ! ! ! ! ! ! ! ! ! ! ! ! ! ! ! ~ ! )  .c.pXsX*X).W.9XbXqXqX; l.T ;.l.l.D D -.' ( ! ! ! ! ! ! ! ! ! ! ! ! ! ! ! ! ! ! ! ! ! ! ",
"! ! ! ! ! ! ! ! ! ! ! ! ! ! ! ! ! ! / ^ ..b.gXDXMX0XW.y f h y - l.p.I K M.<Xm.@.#.( / ! ! ! ! ! ! ! ! ! ! ! ! ! ! ! ! ! ! ! ! ! ",
"! ! ! ! ! ! ! ! ! ! ! ! ! ! ! ! ! ! ! ) ..B.gXFXMX9X^.W.2 1 2 7 j.@.+.M.gXhXuXx.-.} ~ ! ! ! ! ! ! ! ! ! ! ! ! ! ! ! ! ! ! ! ! ! ",
"! ! ! ! ! ! ! ! ! ! ! ! ! ! ! ! ! ! / ( ] z.iXfXZXbX'.R.w e Q.u k.s.m.uXxXDXhXuXc...^ ! ! ! ! ! ! ! ! ! ! ! ! ! ! ! ! ! ! ! ! ! ",
"! ! ! ! ! ! ! ! ! ! ! ! ! ! ! ! ! ! / ( ` @.G.DXJXbX'.t p :X$Xp 1.j.m.<XhXdXSXgXB.-.} ~ ~ ! ! ! ! ! ! ! ! ! ! ! ! ! ! ! ! ! ! ! ",
"! ! ! ! ! ! ! ! ! ! ! ! ! ! ! ! ! ! ! ^ =.c.gXFXJXbX].t 2.,X,X6.<.k.n.M.M.hXLXFXuXz.] ( ! ! ! ! ! ! ! ! ! ! ! ! ! ! ! ! ! ! ! ! ",
"! ! ! ! ! ! ! ! ! ! ! ! ! ! ! ! ! ! ~ } ,.H.sXDXJXbX;X7 <.k.,X6.i 2.a.z.t.hXFXLXgXx.=.^ ~ ! ! ! ! ! ! ! ! ! ! ! ! ! ! ! ! ! ! ! ",
"! ! ! ! ! ! ! ! ! ! ! ! ! ! ! ! ! / ( ] B.pXhXCXZXbX;X6 <.a.k.8.i 6.k.a.M.hXxXSXxXM.@.) ( ! ! ! ! ! ! ! ! ! ! ! ! ! ! ! ! ! ! ! ",
"! ! ! ! ! ! ! ! ! ! ! ! ! ! ! ! ! ~ ( ] B.uXsXdXMXsX>X: J y.f.h.6.p 8.n.M.sXdXCXSXG.@.` ( ! ! ! ! ! ! ! ! ! ! ! ! ! ! ! ! ! ! ! ",
"! ! ! ! ! ! ! ! ! ! ! ! ! ! ! ! ! ! / ` c.M.M.aXyX-X=X: J a.g.i.6.p <.1X<XyX7XdXxXM.@.] ( ! ! ! ! ! ! ! ! ! ! ! ! ! ! ! ! ! ! ! ",
"! ! ! ! ! ! ! ! ! ! ! ! ! ! ! ! ! ! ! } #.@.z.l.l.a.r.: : L -.f.,Xi 0 7.aXBX7X7XfXM.,.] ( ! ! ! ! ! ! ! ! ! ! ! ! ! ! ! ! ! ! ! ",
"! ! ! ! ! ! ! ! ! ! ! ! ! ! ! ! ! ! / / ) ` =.=.=.p.a.: * H p.f.h.i 9 7.-XyXt.t.G.v.-.} ~ ! ! ! ! ! ! ! ! ! ! ! ! ! ! ! ! ! ! ! ",
"! ! ! ! ! ! ! ! ! ! ! ! ! ! ! ! ! ! ! ! / ( [ | ] *.a.1.- : n.p.k.8.u 7.r.j.l.z.@.=.} ( / ! ! ! ! ! ! ! ! ! ! ! ! ! ! ! ! ! ! ! ",
"! ! ! ! ! ! ! ! ! ! ! ! ! ! ! ! ! ! ! ! ! ! ~ ( ' *.n.1.- - 3.m.a.h.u u 9.n.z.@...} ( ! ! ! ! ! ! ! ! ! ! ! ! ! ! ! ! ! ! ! ! ! ",
"! ! ! ! ! ! ! ! ! ! ! ! ! ! ! ! ! ! ! ! ! ! ~ ^ #.N.<Xa X 5 -Xt.n.9.u w 7.M.B.z.] ( / ! ! ! ! ! ! ! ! ! ! ! ! ! ! ! ! ! ! ! ! ! ",
"! ! ! ! ! ! ! ! ! ! ! ! ! ! ! ! ! ! ! ! ! ! ! [ =.B.gX>Xf _.*Xe.aXyX>X:X7XgXuXm.=.( / ! ! ! ! ! ! ! ! ! ! ! ! ! ! ! ! ! ! ! ! ! ",
"! ! ! ! ! ! ! ! ! ! ! ! ! ! ! ! ! ! ! ! ! ! ~ ^ =.B.iXqX5X_.f g BXfXMXMXsXsXG.x.=.^ ~ ! ! ! ! ! ! ! ! ! ! ! ! ! ! ! ! ! ! ! ! ! ",
"! ! ! ! ! ! ! ! ! ! ! ! ! ! ! ! ! ! ! ! ! ~ / ` -.v.DXbXqX#Xh d e.lXZXZXMXMXsXM.-.} / ! ! ! ! ! ! ! ! ! ! ! ! ! ! ! ! ! ! ! ! ! ",
"! ! ! ! ! ! ! ! ! ! ! ! ! ! ! ! ! ! ! ! ! ~ _ X.:.pXPXGXqX#Xd d 5XPXPXLXGXSXsXM.c.` ( ! ! ! ! ! ! ! ! ! ! ! ! ! ! ! ! ! ! ! ! ! ",
"! ! ! ! ! ! ! ! ! ! ! ! ! ! ! ! ! ! ! ~ ~ Q X.:.G.jXGXAXrXh #   . AXmXrXmXlX8Xt.>...) ! ! ! ! ! ! ! ! ! ! ! ! ! ! ! ! ! ! ! ! ! ",
"! ! ! ! ! ! ! ! ! ! ! ! ! ! ! ! ! ! ! ~ Q X.I , + $ V zX6XZ s @ o A Z ZXPXPXPXcXH.>. .~ ~ ! ! ! ! ! ! ! ! ! ! ! ! ! ! ! ! ! ! ! ",
"! ! ! ! ! ! ! ! ! ! ! ! ! ! ! ! ! ! ~ ) X.I , + x c x N A h # @   d rXKXKXtXwXA.Z.R O. .^ ! ! ! ! ! ! ! ! ! ! ! ! ! ! ! ! ! ! ! ",
"! ! ! ! ! ! ! ! ! ! ! ! ! ! ! ! ! ! ~  .:., > c c z x $ M d #     M KXKXwXN z l + , I ;.Q ~ ! ! ! ! ! ! ! ! ! ! ! ! ! ! ! ! ! ! ",
"! ! ! ! ! ! ! ! ! ! ! ! ! ! ! ! ! ! ~ X.I , n c c x $ + h s & o @ B KXwXN b k j l O , I  .( ! ! ! ! ! ! ! ! ! ! ! ! ! ! ! ! ! ! ",
"! ! ! ! ! ! ! ! ! ! ! ! ! ! ! ! ! ~ ~ X.I Y > n n n O . & ; & & < 6XKXA v S b k z + . I X.) ! ! ! ! ! ! ! ! ! ! ! ! ! ! ! ! ! ! ",
"! ! ! ! ! ! ! ! ! ! ! ! ! ! ! ! ! ~ ~ _ O.R Z.V.Y Y , & = = K q.t.PXeXx c b b b z l O , X.^ ~ ! ! ! ! ! ! ! ! ! ! ! ! ! ! ! ! ! ",
"! ! ! ! ! ! ! ! ! ! ! ! ! ! ! ! ! ! ~ )  .X.O.;.;.T G G W O.=.@.>.pX8X+ n c S S c + O = X._ ~ ! ! ! ! ! ! ! ! ! ! ! ! ! ! ! ! ! ",
"! ! ! ! ! ! ! ! ! ! ! ! ! ! ! ! ! ! ! ! ~ ) _ ` ` ] ] ` | } } ] O.x.w.Y m n m C.C.g U F X.~ ! ! ! ! ! ! ! ! ! ! ! ! ! ! ! ! ! ! ",
"! ! ! ! ! ! ! ! ! ! ! ! ! ! ! ! ! ! ! ! ! ! ~ ~ ( ^ ^ ^ ( / ( ( _  .>.x.x.w.Z.R R U G W _ ~ ! ! ! ! ! ! ! ! ! ! ! ! ! ! ! ! ! ! ",
"! ! ! ! ! ! ! ! ! ! ! ! ! ! ! ! ! ! ! ! ! ! ! / ! ! / ! ! ! ! ! ~ ) ..O.O.>.>.;.O.O.W ` ^ ~ ! ! ! ! ! ! ! ! ! ! ! ! ! ! ! ! ! ! ",
"! ! ! ! ! ! ! ! ! ! ! ! ! ! ! ! ! ! ! ! ! ! ! ! ! ! ! ! ! ! ! ! ! ~ ) ) _ _ _  ._ } ) ^ / ! ! ! ! ! ! ! ! ! ! ! ! ! ! ! ! ! ! ! ",
"! ! ! ! ! ! ! ! ! ! ! ! ! ! ! ! ! ! ! ! ! ! ! ! ! ! ! ! ! ! ! ! ! ! ! ~ ~ ~ ~ ~ ~ / / ! ! ! ! ! ! ! ! ! ! ! ! ! ! ! ! ! ! ! ! ! ",
"! ! ! ! ! ! ! ! ! ! ! ! ! ! ! ! ! ! ! ! ! ! ! ! ! ! ! ! ! ! ! ! ! ! ! ! / ! ! ! ! ~ ! ! ! ! ! ! ! ! ! ! ! ! ! ! ! ! ! ! ! ! ! ! ",
"! ! ! ! ! ! ! ! ! ! ! ! ! ! ! ! ! ! ! ! ! ! ! ! ! ! ! ! ! ! ! ! ! ! ! ! ! ! ! ! ! ! ! ! ! ! ! ! ! ! ! ! ! ! ! ! ! ! ! ! ! ! ! ! "
};
