/* XPM */
static char *out[] = {
/* columns rows colors chars-per-pixel */
"64 64 225 2 ",
"   c #004600",
".  c #004C00",
"X  c #005300",
"o  c #015A00",
"O  c #165C00",
"+  c #026300",
"@  c #096B00",
"#  c #176300",
"$  c #1C6400",
"%  c #027300",
"&  c #057D00",
"*  c #0B7900",
"=  c #187600",
"-  c #266500",
";  c #376E00",
":  c #247900",
">  c #3A7600",
",  c #745500",
"<  c #7C5C01",
"1  c #4B7704",
"2  c #527F00",
"3  c #54750C",
"4  c #5A7E14",
"5  c #836300",
"6  c #8C6801",
"7  c #946E03",
"8  c #916A05",
"9  c #9A6E02",
"0  c #8B7011",
"q  c #96771B",
"w  c #A67B0A",
"e  c #0A8400",
"r  c #0D8C00",
"t  c #188800",
"y  c #169A01",
"u  c #3A8600",
"i  c #3D8800",
"p  c #259B01",
"a  c #35900B",
"s  c #1EA503",
"d  c #19A508",
"f  c #1FB80E",
"g  c #27A503",
"h  c #24AD0B",
"j  c #2CB60A",
"k  c #25AF12",
"l  c #28B315",
"z  c #2DBA14",
"x  c #32BF20",
"c  c #498703",
"v  c #588B09",
"b  c #568611",
"n  c #4A9412",
"m  c #6A920E",
"M  c #678C14",
"N  c #758615",
"B  c #699619",
"V  c #77921C",
"C  c #6BAF1F",
"Z  c #7A8727",
"A  c #719E21",
"S  c #7BB929",
"D  c #6DB035",
"F  c #2CC71A",
"G  c #32C316",
"H  c #2FD91D",
"J  c #38D91C",
"K  c #00FF01",
"L  c #0AF906",
"P  c #0EF60B",
"I  c #0AF909",
"U  c #12F40E",
"Y  c #17EF15",
"T  c #1CED14",
"R  c #1EEB1B",
"E  c #14F212",
"W  c #19F014",
"Q  c #25EA0F",
"!  c #28E715",
"~  c #24E915",
"^  c #26E71C",
"/  c #2CE41C",
"(  c #22E91A",
")  c #31E11D",
"_  c #2ECA26",
"`  c #35CA28",
"'  c #2FDF2B",
"]  c #35D626",
"[  c #3ADB22",
"{  c #34DD2A",
"}  c #39D82B",
"|  c #36D832",
" . c #2CE323",
".. c #28E423",
"X. c #30E128",
"o. c #41D825",
"O. c #75BB48",
"+. c #82971D",
"@. c #A9810F",
"#. c #B0840F",
"$. c #AC8311",
"%. c #B68B19",
"&. c #BE911E",
"*. c #8C9728",
"=. c #939B26",
"-. c #949835",
";. c #A68726",
":. c #B98D22",
">. c #B7932E",
",. c #AE9432",
"<. c #94A028",
"1. c #98A933",
"2. c #A7A938",
"3. c #A5B63C",
"4. c #BCB73D",
"5. c #C0911B",
"6. c #C89B24",
"7. c #C29B2A",
"8. c #C69D34",
"9. c #C2A12F",
"0. c #D5A62E",
"q. c #C6A336",
"w. c #CCA135",
"e. c #C7A43D",
"r. c #CDAC39",
"t. c #D8AA36",
"y. c #DCB23B",
"u. c #E5B83A",
"i. c #E6BB3B",
"p. c #ACAC4C",
"a. c #B8A849",
"s. c #AFB042",
"d. c #BAB646",
"f. c #B9AA51",
"g. c #C7AC44",
"h. c #C6B845",
"j. c #CFB24E",
"k. c #DBB644",
"l. c #DEBB4C",
"z. c #E5BC45",
"x. c #EBBA42",
"c. c #E6BC4A",
"v. c #E9BD4B",
"b. c #E4BD54",
"n. c #9CCA41",
"m. c #9ED646",
"M. c #BCC44B",
"N. c #B7CE51",
"B. c #B3E661",
"V. c #DCC54C",
"C. c #D6CB57",
"Z. c #DBC857",
"A. c #D9D65A",
"S. c #E9C247",
"D. c #EAC24D",
"F. c #F5C64A",
"G. c #F4CA4D",
"H. c #FBCD4D",
"J. c #FDD14F",
"K. c #ECC553",
"L. c #EBC852",
"P. c #ECC75B",
"I. c #E6C859",
"U. c #ECCB5C",
"Y. c #F2C651",
"T. c #F5CB53",
"R. c #FACD53",
"E. c #F4CC5B",
"W. c #F9CE5A",
"Q. c #ECD25F",
"!. c #F7D155",
"~. c #FDD353",
"^. c #FDD955",
"/. c #F5D15C",
"(. c #FDD45B",
"). c #FEDA5B",
"_. c #E1E45F",
"`. c #FFE15D",
"'. c #D9CA65",
"]. c #DCCB6C",
"[. c #DCD167",
"{. c #D5C870",
"}. c #EBCC63",
"|. c #F5CC62",
" X c #EDD463",
".X c #E9D869",
"XX c #F3D462",
"oX c #FCD763",
"OX c #F4DA64",
"+X c #FDDA61",
"@X c #E2D478",
"#X c #D9F270",
"$X c #E7E867",
"%X c #EDE26A",
"&X c #FBE364",
"*X c #F8E46D",
"=X c #FEE46C",
"-X c #EAF36C",
";X c #EEE577",
":X c #F8E675",
">X c #FEED7B",
",X c #EAFD79",
"<X c #FFF173",
"1X c #FFF37D",
"2X c #BEFA91",
"3X c #F0DF88",
"4X c #D1FF95",
"5X c #D9FF95",
"6X c #ECE385",
"7X c #FFEC86",
"8X c #F7E888",
"9X c #E9FF85",
"0X c #F4F787",
"qX c #FFF582",
"wX c #FFF983",
"eX c #FFF48A",
"rX c #FFFA89",
"tX c #F8EB95",
"yX c #EFF799",
"uX c #FFF493",
"iX c #DAFFA5",
"pX c #E4FFA4",
"aX c #ECFFAB",
"sX c #F6FAA2",
"dX c #EDFFB0",
/* pixels */
"K K K K K K K K K K K K K K K K K K K K K K K K K K K K K K K K K K K K K K K K K K K K K K K K K K K K K K K K K K K K K K K K ",
"K K K K K K K K K K K K K K K K K K K K K K K K K K K K K K K K K K K K K K K K K K K K K K K K K K K K K K K K K K K K K K K K ",
"K K K K K K K K K K K K K K K K K K K K K K K K K K K K K K K K K K K K K K K K K K K K K K K K K K K K K K K K K K K K K K K K ",
"K K K K K K K K K K K K K K K K K K K K K K K K K K K K K K K K K K K K K K K K K K K K K K K K K K K K K K K K K K K K K K K K ",
"K K K K K K K K K K K K K K K K K K K K K K K K K K K K K K K K K K K K K K K K K K K K K K K K K K K K K K K K K K K K K K K K ",
"K K K K K K K K K K K K K K K K K K K K K K K K K K K K K K K K K K K K K K K K K K K K K K K K K K K K K K K K K K K K K K K K ",
"K K K K K K K K K K K K K K K K K K K K K K K K K K K K K K K K K K K K K K K K K K K K K K K K K K K K K K K K K K K K K K K K ",
"K K K K K K K K K K K K K K K K K K K K K K K K K K K K K K K K K K K K K K K K K K K K K K K K K K K K K K K K K K K K K K K K ",
"K K K K K K K K K K K K K K K K K K K K K K K K K K K K K K K K K K K K K K K K K K K K K K K K K K K K K K K K K K K K K K K K ",
"K K K K K K K K K K K K K K K K K K K K K K K K K K K K K K K K K K K K K K K K K K K K K K K K K K K K K K K K K K K K K K K K ",
"K K K K K K K K K K K K K K K K K K K K K K K K K K K K K K K K K K K K K K K K K K K K K K K K K K K K K K K K K K K K K K K K ",
"K K K K K K K K K K K K K K K K K K K K K K K K K K K K K K K K K K K K K K K K K K K K K K K K K K K K K K K K K K K K K K K K ",
"K K K K K K K K K K K K K K K K K K K K K K K K K K K K K K K K K K K K K K K K K K K K K K K K K K K K K K K K K K K K K K K K ",
"K K K K K K K K K K K K K K K K K K K K K K K K K I I P E Y Y Y W E E P P I L K K K K K K K K K K K K K K K K K K K K K K K K K ",
"K K K K K K K K K K K K K K K K K K K K K K K K I E R ..' | | ` _ | | ' ^ Q U P L K K K K K K K K K K K K K K K K K K K K K K K ",
"K K K K K K K K K K K K K K K K K K K K K I I E R ..{ k % .   . X   . % s J ) ~ E I I K K K K K K K K K K K K K K K K K K K K K ",
"K K K K K K K K K K K K K K K K K K K K I P R X.l & a O.2XiXdXdXaXyX5XB.S a * s J ~ U L K K K K K K K K K K K K K K K K K K K K ",
"K K K K K K K K K K K K K K K K K K K I E .._ & : 4XdXdXsXtXtX6X8X8X8X0X,X#XB.u % z / T P L K K K K K K K K K K K K K K K K K K ",
"K K K K K K K K K K K K K K K K K K P Y X.d = 2XdXdXtXtX{.g.g.g.e.h.h.I.%X%X-X$Xn.: r [ T P K K K K K K K K K K K K K K K K K K ",
"K K K K K K K K K K K K K K K K L I Y X.r n iXdXtX@Xf.>.>.e.e.q.r.r.r.r.9.r.I.*X.XN.c t J T P L K K K K K K K K K K K K K K K K ",
"K K K K K K K K K K K K K K K K K E ..e O.dXsX6Xf., , q 8.k.c.K.D.I.c.k.7.8 6 q.OX.XM.v * } T L K K K K K K K K K K K K K K K K ",
"K K K K K K K K K K K K K K K I P ..r D iXsX6Xq , q 8.P.E.oXoX(.).).+X(./.v.7.8 $.E.OXM.c e / U P K K K K K K K K K K K K K K K ",
"K K K K K K K K K K K K K K K P ..f $ pXyX3X< , >.b.XX+X+X).).).^.).).^.).(./.D.@.@.U. Xs.- g  .U K K K K K K K K K K K K K K K ",
"K K K K K K K K K K K K K K L W X.% 4XsX@X, 5 a.P.oXoX).).).).).~.^.~.^.^.(.).(.T.%.w /.A.1.+ o.T L K K K K K K K K K K K K K K ",
"K K K K K K K K K K K K K K P ~ y D yX8X;., 8.P.(.(.(.(.~.W.R.R.R.R.R.W.W.(.~.(.(.Y.%.6.XXh.b * / P I K K K K K K K K K K K K K ",
"K K K K K K K K K K K K K I E ) = 5XyXj., ,.P.oXW.Y.v.c.c.c.v.c.c.c.v.v.v.v.Y.~.^.~.Y.#.z..X1.$ J Y I K K K K K K K K K K K K K ",
"K K K K K K K K K K K K K P R j S 9X;X0 8 b.(.(.R.6.%.:.:.:.:.:.:.:.:.5.&.&.z.^.~.~.~.0.6./.d.2 y  .P K K K K K K K K K K K K K ",
"K K K K K K K K K K K K K E ..% B.0X[.< 8.W.oX).R.5.8 8.8.w.8.w.8.w.8.w.8.&./.).^.~.~.F.&.T.Z.V o { W L K K K K K K K K K K K K ",
"K K K K K K K K K K K L L W ] X 9X;X,.6 c.+X(.~.R.5.9 b.P.b.Y.K.Y.v.K.v.v.y.`.`.^.^.J.R.0.y./.<.. _ R L K K K K K K K K K K K K ",
"K K K K K K K K K K K K L ~ z u ,X$X5 ;./.).).(.E.7.9 |.oXoX(.(.).(.(.(.~.z.&X`.^.^.J.H.i.6./.3.; k ~ L L K K K K K K K K K K K ",
"K K K K K K K K K K K K L T g C ,XA., 8.oX).^.~.Y.5.9 |.oX(.^.^.~.~.^.~.~.i.`.`.^.J.H.H.F.6./.4.b p ! I K K K K K K K K K K K K ",
"K K K K K K K K K K K K L Q g m.-XV.< j.oX^.^.~.R.5.9 |.(.^.^.~.~.~.~.J.J.i.`.`.^.~.J.H.H.0./.r.M t ! I K K K K K K K K K K K K ",
"K K K K K K K K K K K L L Q g m.$XV.< l.(.^.^.~.T.5.9 E.).^.^.~.J.~.~.~.J.i.`.`.^.J.J.H.H.u.!.M.m t ! P L K K K K K K K K K K K ",
"K K K K K K K K K K K K L Q p m.$Xc.5 l.(.).~.~.R.5.9 E.~.~.J.~.J.^.~.J.J.i.^.`.^.J.J.H.H.i.`.r.v t ! I K K K K K K K K K K K K ",
"K K K K K K K K K K K L L Q g <._.I.5 c.(.).^.R.Y.5.9 E.(.~.~.J.J.J.J.H.H.u.`.`.^.H.H.H.F.i.`.4.v t ! I L K K K K K K K K K K K ",
"K K K K K K K K K K K K L ~ j c A.Q.7 r.(.(.~.~.E.5.9 P.(.~.(.^.~.~.~.R.H.u.`.`.^.J.H.H.H.i.).2.1 p ~ I K K K K K K K K K K K K ",
"K K K K K K K K K K K K K R x # M.`.%.>.(.~.~.R.R.5.8 }.XX/./.E./././.E.G.y.`.`.^.J.G.F.!.).Q.*.O l R I K K K K K K K K K K K K ",
"K K K K K K K K K K K K L W | X 3.OXV.@.R.(.R.~.Y.5.8 }. X XXX}.Q.Q.U.Q.I.V.&X`.~.J.G.G.&X=XZ.N   | Y I K K K K K K K K K K K K ",
"K K K K K K K K K K K K K E  .r m A./.$.u.R.~.~.R.k.}.eX0XrXrXrXwXrXrXrXrXwX<X`.~.G.G./.=X*Xa.1 % ' E I I K K K K K K K K K K K ",
"K K K K K K K K K K K K K I Y [ > s..X0.%.R.R.~.^.&X1XqX1XwXwX1X1XwX1XwX1X<X<X).~.G.L.=X:XA.*.- G R P K K K K K K K K K K K K K ",
"K K K K K K K K K K K K K K P / @ A C./.%.t.~.R.~.^.).&X&X&X*X&X&X&X&X&X+XOX).!.!.L.OX1X:Xd.4 o H U L K K K K K K K K K K K K K ",
"K K K K K K K K K K K K K K L ~ z - 1.}.D.#.x.H.~.~.~.^.^.!.^.^.^.^.^.!.~.R.!.T.L./.qX>XZ.N O y ( L K K K K K K K K K K K K K K ",
"K K K K K K K K K K K K K K I E  .t M d.XXY.5.x.H.R.H.~.!.!.J.J.J.J.J.J.R.T.Y.P. XqXeX].-.1 & { E L K K K K K K K K K K K K K K ",
"K K K K K K K K K K K K K K K P T H o M d.XXY.6.i.F.H.J.G.J.J.R.J.G.T.Y.T.P.P.:XeX7X@X2.3 . F R P K K K K K K K K K K K K K K K ",
"K K K K K K K K K K K K K K K L P ~ ` @ V f.XXW.0.u.F.G.G.L.T.T.U.T.}.}.}.}.7X7X7X].p.3 o z ^ U L K K K K K K K K K K K K K K K ",
"K K K K K K K K K K K K K K K K K U / z X B 2.I.XX/.S.=X=X/.I.L.I.I.}.7XuXuXtX3X'.-.3 . k  .E I K K K K K K K K K K K K K K K K ",
"K K K K K K K K K K K K K K K K K I E ^ z + 1 *.h.I.oX=X<X1X1XwXeXuXuXuXtX3X].j.Z ; o k / U L K K K K K K K K K K K K K K K K K ",
"K K K K K K K K K K K K K K K K K K K U ( } % - M *.d.C.A..X;X;X;X;X@X].'.p.4 4 $ + } ..E L K K K K K K K K K K K K K K K K K K ",
"K K K K K K K K K K K K K K K K K K K L P Y H h + $ v A +.<.2.s.s.2.=.V M b $ o d [ ( E I K K K K K K K K K K K K K K K K K K K ",
"K K K K K K K K K K K K K K K K K K K K K I E ^ { h * : i v B A A B v u : * y } / E P K K K K K K K K K K K K K K K K K K K K K ",
"K K K K K K K K K K K K K K K K K K K K K L L P E T H [ o.j r & & e j [ ]  .( W P I K K K K K K K K K K K K K K K K K K K K K K ",
"K K K K K K K K K K K K K K K K K K K K K K K K K I U W ~ ^  . . . .^ ~ E E I L K K K K K K K K K K K K K K K K K K K K K K K K ",
"K K K K K K K K K K K K K K K K K K K K K K K K K L K P L P P P P P P I I L K K K K K K K K K K K K K K K K K K K K K K K K K K ",
"K K K K K K K K K K K K K K K K K K K K K K K K K K K K K K K K K K K K K K K K K K K K K K K K K K K K K K K K K K K K K K K K ",
"K K K K K K K K K K K K K K K K K K K K K K K K K K K K K K K K K K K K K K K K K K K K K K K K K K K K K K K K K K K K K K K K ",
"K K K K K K K K K K K K K K K K K K K K K K K K K K K K K K K K K K K K K K K K K K K K K K K K K K K K K K K K K K K K K K K K ",
"K K K K K K K K K K K K K K K K K K K K K K K K K K K K K K K K K K K K K K K K K K K K K K K K K K K K K K K K K K K K K K K K ",
"K K K K K K K K K K K K K K K K K K K K K K K K K K K K K K K K K K K K K K K K K K K K K K K K K K K K K K K K K K K K K K K K ",
"K K K K K K K K K K K K K K K K K K K K K K K K K K K K K K K K K K K K K K K K K K K K K K K K K K K K K K K K K K K K K K K K ",
"K K K K K K K K K K K K K K K K K K K K K K K K K K K K K K K K K K K K K K K K K K K K K K K K K K K K K K K K K K K K K K K K ",
"K K K K K K K K K K K K K K K K K K K K K K K K K K K K K K K K K K K K K K K K K K K K K K K K K K K K K K K K K K K K K K K K ",
"K K K K K K K K K K K K K K K K K K K K K K K K K K K K K K K K K K K K K K K K K K K K K K K K K K K K K K K K K K K K K K K K ",
"K K K K K K K K K K K K K K K K K K K K K K K K K K K K K K K K K K K K K K K K K K K K K K K K K K K K K K K K K K K K K K K K ",
"K K K K K K K K K K K K K K K K K K K K K K K K K K K K K K K K K K K K K K K K K K K K K K K K K K K K K K K K K K K K K K K K "
};
