/* XPM */
static char *out[] = {
/* columns rows colors chars-per-pixel */
"64 64 250 2 ",
"   c #090A03",
".  c #170C04",
"X  c #021602",
"o  c #001D00",
"O  c #0D1609",
"+  c #171309",
"@  c #131212",
"#  c #181212",
"$  c #260B07",
"%  c #380604",
"&  c #261304",
"*  c #361A10",
"=  c #022401",
"-  c #0C2707",
";  c #012C00",
":  c #013301",
">  c #013C01",
",  c #0C370C",
"<  c #193007",
"1  c #132812",
"2  c #29370F",
"3  c #273827",
"4  c #450302",
"5  c #560303",
"6  c #4F1909",
"7  c #680403",
"8  c #7D0803",
"9  c #69180E",
"0  c #573705",
"q  c #7A2802",
"w  c #6E300F",
"e  c #4B3922",
"r  c #7E2C27",
"t  c #014301",
"y  c #034903",
"u  c #005500",
"i  c #035903",
"p  c #175006",
"a  c #1B4B1B",
"s  c #185517",
"d  c #2E5C19",
"f  c #046804",
"g  c #186500",
"h  c #057805",
"j  c #166A16",
"k  c #187518",
"l  c #32720D",
"z  c #32512E",
"x  c #2E702C",
"c  c #4D540C",
"v  c #694803",
"b  c #754900",
"n  c #6B530D",
"m  c #4F6C09",
"M  c #666803",
"N  c #767507",
"B  c #675036",
"V  c #73712E",
"C  c #5B6842",
"Z  c #4C714C",
"A  c #8C0906",
"S  c #9B1505",
"D  c #911913",
"F  c #A91806",
"G  c #AF1109",
"H  c #B81607",
"J  c #BB1914",
"K  c #8C2E0B",
"L  c #9A2502",
"P  c #863601",
"I  c #973912",
"U  c #A52500",
"Y  c #B72903",
"T  c #B2330A",
"R  c #8E3025",
"E  c #B12F27",
"W  c #C50C07",
"Q  c #D40C05",
"!  c #DC0B07",
"~  c #C91308",
"^  c #D21102",
"/  c #C31510",
"(  c #CF3109",
")  c #CD3A32",
"_  c #925015",
"`  c #B35113",
"'  c #8C6713",
"]  c #AE6710",
"[  c #99512D",
"{  c #AA472E",
"}  c #93762F",
"|  c #B07D2D",
" . c #D35612",
".. c #D27212",
"X. c #C74632",
"o. c #D36C29",
"O. c #EE6A3A",
"+. c #AF5449",
"@. c #9F6F49",
"#. c #E15049",
"$. c #D16257",
"%. c #F37444",
"&. c #CB7971",
"*. c #F06D69",
"=. c #0A8E04",
"-. c #089306",
";. c #158515",
":. c #199719",
">. c #3D9607",
",. c #31900F",
"<. c #04AD05",
"1. c #0EBC00",
"2. c #15A715",
"3. c #14B214",
"4. c #27B605",
"5. c #35AF13",
"6. c #36B819",
"7. c #2D8A29",
"8. c #289828",
"9. c #379737",
"0. c #28A728",
"q. c #35AB2F",
"w. c #2ABA2A",
"e. c #38B836",
"r. c #478804",
"t. c #548A0F",
"y. c #688C0F",
"u. c #4BB311",
"i. c #6FB40D",
"p. c #4B9531",
"a. c #74912F",
"s. c #54B232",
"d. c #6AB42F",
"f. c #16C90E",
"g. c #0AD605",
"h. c #1CC81D",
"j. c #18D719",
"k. c #2ECC0C",
"l. c #36C617",
"z. c #2ADB18",
"x. c #34D719",
"c. c #0DEA0F",
"v. c #17E50C",
"b. c #1CEE0D",
"n. c #0EF706",
"m. c #00FF01",
"M. c #0AF905",
"N. c #0DF60D",
"B. c #07FB08",
"V. c #0AF90A",
"C. c #17F208",
"Z. c #13F40C",
"A. c #16E517",
"S. c #15ED15",
"D. c #1BED12",
"F. c #1CE41D",
"G. c #17EE18",
"H. c #1BEC1C",
"J. c #0FF510",
"K. c #13F213",
"L. c #17F017",
"P. c #2BE60D",
"I. c #27E617",
"U. c #1FC220",
"Y. c #1FD520",
"T. c #27C627",
"R. c #2BCD2C",
"E. c #35C427",
"W. c #23D523",
"Q. c #28D728",
"!. c #2ADD2B",
"~. c #38D828",
"^. c #38C938",
"/. c #2FD330",
"(. c #38D637",
"). c #33DA34",
"_. c #1FE920",
"`. c #24E524",
"'. c #20E921",
"]. c #27E528",
"[. c #2AE22B",
"{. c #34E435",
"}. c #47CA0A",
"|. c #48D114",
" X c #49CB2C",
".X c #538B53",
"XX c #629758",
"oX c #44A845",
"OX c #47B947",
"+X c #57B257",
"@X c #55BD55",
"#X c #6DBA5E",
"$X c #709C6F",
"%X c #65AF65",
"&X c #77BB78",
"*X c #3FD340",
"=X c #47C946",
"-X c #46D247",
";X c #5AC75B",
":X c #57D657",
">X c #68DE41",
",X c #4FE94F",
"<X c #66C966",
"1X c #67D668",
"2X c #77D46D",
"3X c #7CD97C",
"4X c #73E973",
"5X c #8D8D10",
"6X c #8BAF16",
"7X c #AD9322",
"8X c #87AF2B",
"9X c #B4A829",
"0X c #EF932F",
"qX c #CCA436",
"wX c #E3A034",
"eX c #97A05B",
"rX c #AF9C78",
"tX c #B6B06D",
"yX c #C29547",
"uX c #E29E49",
"iX c #FF9077",
"pX c #8AD26D",
"aX c #7FD280",
"sX c #8AB689",
"dX c #8FB88F",
"fX c #A6B79B",
"gX c #AABCA7",
"hX c #F68C87",
"jX c #C1B28B",
"kX c #88C788",
"lX c #87D487",
"zX c #97CC97",
"xX c #ABDC9B",
"cX c #96EB94",
"vX c #AFCFAA",
"bX c #B4D7B4",
"nX c #A7E6A7",
"mX c #AEF5AE",
"MX c #B7E6B6",
"NX c #F6D08B",
"BX c #E6CDA7",
"VX c #C6F8B8",
"CX c #CEDCCA",
"ZX c #FFC7C5",
"AX c #D0EACD",
"SX c #CAFAC6",
"DX c #D7FCD6",
"FX c #EDF0DB",
"GX c #F6FBEA",
"HX c #F9FFF2",
/* pixels */
"m.m.m.m.m.m.m.m.m.m.m.m.m.m.m.m.m.m.m.m.m.m.m.m.m.m.m.m.m.m.m.m.m.m.m.m.m.m.m.m.m.m.m.m.m.m.m.m.m.m.m.m.m.m.m.m.m.m.m.m.m.m.m.m.",
"m.m.m.m.m.m.m.m.m.m.m.m.m.m.m.m.m.m.m.m.m.m.m.m.m.m.m.m.m.m.m.m.m.m.m.m.m.m.m.m.m.m.m.m.m.m.m.m.m.m.m.m.m.m.m.m.m.m.m.m.m.m.m.m.",
"m.m.m.m.m.m.m.m.m.m.m.m.m.m.m.m.m.m.m.m.m.m.m.m.m.m.m.m.m.m.m.m.m.m.m.m.m.m.m.m.m.m.m.m.m.m.m.m.m.m.m.m.m.m.m.m.m.m.m.m.m.m.m.m.",
"m.m.m.m.m.m.m.m.m.m.m.m.m.m.m.m.m.m.m.m.m.m.m.m.m.m.m.m.m.m.m.m.m.m.m.m.m.m.m.m.m.m.m.m.m.m.m.m.m.m.m.m.m.m.m.m.m.m.m.m.m.m.m.m.",
"m.m.m.m.m.m.m.m.m.m.m.m.m.m.m.m.m.m.m.m.m.m.m.m.m.m.m.m.m.m.m.m.m.m.m.m.m.m.m.m.m.m.m.m.m.m.m.m.m.m.m.m.m.m.m.m.m.m.m.m.m.m.m.m.",
"m.m.m.m.m.m.m.m.m.m.m.m.m.m.m.m.m.m.m.m.m.m.m.m.m.m.m.m.B.m.m.m.m.m.m.m.m.m.m.m.m.m.m.m.m.m.m.m.m.m.m.m.m.m.m.m.m.m.m.m.m.m.m.m.",
"m.m.m.m.m.m.m.m.m.m.m.m.m.m.m.m.m.m.m.m.m.m.m.m.m.m.m.m.m.m.B.m.M.M.B.m.B.B.B.m.m.m.m.m.m.m.m.m.m.m.m.m.m.m.m.m.m.m.m.m.m.m.m.m.",
"m.m.m.m.m.m.m.m.m.m.m.m.m.m.m.m.m.m.m.m.m.m.m.m.m.B.B.B.M.V.V.Z.Z.b.b.b.D.D.Z.V.B.m.m.m.m.m.m.m.m.m.m.m.m.m.m.m.m.m.m.m.m.m.m.m.",
"m.m.m.m.m.m.m.m.m.m.m.m.m.m.m.m.m.m.m.m.m.m.B.B.B.B.Z.Z.K.S.A.I.P.k.f.4.Q.x.z.S.N.B.m.m.m.m.m.m.m.m.m.m.m.m.m.m.m.m.m.m.m.m.m.m.",
"m.m.m.m.m.m.m.m.m.m.m.m.m.m.m.m.m.m.m.m.m.B.n.C.b.I.z.Q.x.k.6.l.5.>.r.r.r.t.6.x.D.M.m.m.m.m.m.m.m.m.m.m.m.m.m.m.m.m.m.m.m.m.m.m.",
"m.m.m.m.m.m.m.m.m.m.m.m.m.m.m.m.m.m.m.m.m.N.v.f.k.6.5.,.s.y.t.N M N ' b b v V s.I.Z.B.m.m.m.m.m.m.m.m.m.m.m.m.m.m.m.m.m.m.m.m.m.",
"m.m.m.m.m.m.m.m.m.m.m.m.m.m.m.m.m.m.m.m.M.Z.1.=.l l m a.tXrXeX| ' ] ` L L K v p.l.D.N.m.m.m.m.m.m.m.m.m.m.m.m.m.m.m.m.m.m.m.m.m.",
"m.m.m.m.m.m.m.m.m.m.m.m.m.m.m.m.m.m.m.m.n.P.k.>.m ' N } @.[ [ [ ` ` F F H F I 5X XI.N.B.m.m.m.m.m.m.m.m.m.m.m.m.m.m.m.m.m.m.m.m.",
"m.m.m.m.m.m.m.m.m.m.m.m.m.m.m.m.m.m.m.B.n.g.-.l N ' { R R K I T T Y H H ~ ~ L n d.~.Z.B.m.m.m.m.m.m.m.m.m.m.m.m.m.m.m.m.m.m.m.m.",
"m.m.m.m.m.m.m.m.m.m.m.m.m.m.m.m.m.m.m.m.V.v.4.r.M q I ) ) F H Y o.O.E Y J H F _ d.l.S.B.m.m.m.m.m.m.m.m.m.m.m.m.m.m.m.m.m.m.m.m.",
"m.m.m.m.m.m.m.m.m.m.m.m.m.m.m.m.m.m.m.M.n.v.4.r.v I X.X.~ ~ ~ (  .%.iXiX#.J G I a.s.I.B.B.m.m.m.m.m.m.m.m.m.m.m.m.m.m.m.m.m.m.m.",
"m.m.m.m.m.m.m.m.m.m.m.m.m.m.m.m.m.m.m.m.n.I.l.t.v [ $.) W Q ( ( T U E #.*.#.J S n d.k.Z.M.m.m.m.m.m.m.m.m.m.m.m.m.m.m.m.m.m.m.m.",
"m.m.m.m.m.m.m.m.m.m.m.m.m.m.m.m.m.m.m.M.Z.I.5.m n +.$.E J ~ ( %.O.` E E E E H H { a.l.D.V.m.m.m.m.m.m.m.m.m.m.m.m.m.m.m.m.m.m.m.",
"m.m.m.m.m.m.m.m.m.m.m.m.m.m.m.m.m.m.m.M.b.x.,.2 $ 4 9 8 G H ( O.%.iXZXhX+.E G H I }  XP.Z.m.m.m.m.m.m.m.m.m.m.m.m.m.m.m.m.m.m.m.",
"m.m.m.m.m.m.m.m.m.m.m.m.m.m.m.m.m.m.M.Z.I.6.g + . . $ 4 8 G / ( T X.hXZXZX$.G W L ' d.x.Z.B.m.m.m.m.m.m.m.m.m.m.m.m.m.m.m.m.m.m.",
"m.m.m.m.m.m.m.m.m.m.m.m.m.m.m.m.m.B.B.b.x.;.:     # $ % 7 D W Q ^ ~ J X.hXhX) G F q y.x.b.M.m.m.m.m.m.m.m.m.m.m.m.m.m.m.m.m.m.m.",
"m.m.m.m.m.m.m.m.m.m.m.m.m.m.m.m.m.m.n.I.6.g o   @ # # $ 5 A / ! ! ! Q J E ) ) W H L M u.P.n.M.m.m.m.m.m.m.m.m.m.m.m.m.m.m.m.m.m.",
"m.m.m.m.m.m.m.m.m.m.m.m.m.m.m.m.m.B.Z.Q.,.p X   @ @ # $ 4 8 J ! ! ! Q H G G ~ ~ ^ U v r.x.n.m.m.m.m.m.m.m.m.m.m.m.m.m.m.m.m.m.m.",
"m.m.m.m.m.m.m.m.m.m.m.m.m.m.m.m.m.n.D.l.,.<     @ @ # $ % 7 J W W Q W G G G W Q Q F b y.x.C.M.m.m.m.m.m.m.m.m.m.m.m.m.m.m.m.m.m.",
"m.m.m.m.m.m.m.m.m.m.m.m.m.m.m.m.m.C.I.5.d 2 .   @ @ @ $ % 5 D E *.*.E F A A H Q Q H P N k.C.M.m.m.m.m.m.m.m.m.m.m.m.m.m.m.m.m.m.",
"m.m.m.m.m.m.m.m.m.m.m.m.m.m.m.m.M.b.l.r.B e &   @ @ @ # $ 4 D E hXhX{ D 7 8 H Q ^ H I 5X}.b.n.m.M.m.m.m.m.m.m.m.m.m.m.m.m.m.m.m.",
"m.m.m.m.m.m.m.m.m.m.m.m.m.m.m.m.n.P.|.m c B *   @ @ @ @ $ % 9 R &.&.E D 5 8 H ^ ^ H _ 5X}.b.n.m.B.m.m.m.m.m.m.m.m.m.m.m.m.m.m.m.",
"m.m.m.m.m.m.m.m.m.m.m.m.m.m.m.M.C.P.u.c w w *     @ @ @ # $ 6 r &.&.r 6 q `  .( H ( ] 5Xi.P.C.C.Z.K.B.B.m.m.m.m.m.m.m.m.m.m.m.m.",
"m.m.m.m.m.m.m.m.m.m.m.m.m.m.m.M.C.|.y.M q q w e .   @ @ @ + % 9 r R 9 q o.0X0X .T  .0X7Xi.|.P.'.j.j.S.V.B.m.m.m.m.m.m.m.m.m.m.m.",
"m.m.m.m.m.m.m.m.m.m.m.m.m.m.m.n.b.k.y._ P P 0 c 2 X X O O + $ 6 9 q 0 q qX0X0X..` 0XwX9Xi.}. X*X,X^.g.Z.B.m.m.m.m.m.m.m.m.m.m.m.",
"m.m.m.m.m.m.m.m.m.m.m.m.m.m.m.n.P.}.6X7X] ] m m p.p X = ; - . & 6 e 6 0 o.wXwXuXuXuXqX9Xd.s.@XpX3X:XY.G.B.m.m.m.m.m.m.m.m.m.m.m.",
"m.m.m.m.m.m.m.m.m.m.m.m.m.m.m.n.C.}.6X9XqX9Xd.d.9.i ; a 7.p < + $ $ $ 0 7XyXyXNXBXBX7XM d.pXcXcXcX;Xj.K.B.m.m.m.m.m.m.m.m.m.m.m.",
"m.m.m.m.m.m.m.m.m.m.m.m.m.m.m.M.C.x.i.y.7X8X X Xe.=.y k =Xe.l , + + & B fXNXrXrXjX@.C V zXxXmXmX4X(.F.N.m.m.m.m.m.m.m.m.m.m.m.m.",
"m.m.m.m.m.m.m.m.m.m.m.m.m.m.m.M.n.v.>XpX8Xa.|.~.~.-.i ;.^. X7.d z 2 3 fXFXFXGXGXHXFXCXgXVXVXmXcX-XW.K.B.B.m.m.m.m.m.m.m.m.m.m.m.",
"m.m.m.m.m.m.m.m.m.m.m.m.m.m.m.m.n.I.l.2XVX#Xw. X/.2.f h /.E.9.XXfXCXFXGXGXGXHXGXCXgXbXAXSXcX:X).`.K.N.m.m.m.m.m.m.m.m.m.m.m.m.m.",
"m.m.m.m.m.m.m.m.m.m.m.m.m.m.m.B.V.I.(.2XVXSXlX-X(.:.i f R.w.s.aXMXDXbXvXnXbXMXAXAXCXAXbX&X+X X].L.N.B.B.m.m.m.m.m.m.m.m.m.m.m.m.",
"m.m.m.m.m.m.m.m.m.m.m.m.m.m.m.B.K.].:XcXDXDXnX<X1X@Xi u 2.R.e.;XlXsXXXx oX@X<XmXmXMXbXnXlX;X*X!._.K.N.B.B.m.m.m.m.m.m.m.m.m.m.m.",
"m.m.m.m.m.m.m.m.m.m.m.m.m.m.B.V.S.{.4XlXzXDXDXcX@Xs.j y -././.*X:X9.y t :.*X*X*XOX9.&XnXnXmXaX*X/.[.'.L.V.m.m.m.m.m.m.m.m.m.m.m.",
"m.m.m.m.m.m.m.m.m.m.m.m.m.m.B.K.'.,X4X1XnXMXlX3X1XOXk y =.T.[.`.).0.u > =.).]._.]./.*XaXmXbXbXnXcX;Xw.T.D.M.m.m.m.m.m.m.m.m.m.m.",
"m.m.m.m.m.m.m.m.m.m.m.m.m.m.m.N.'.{.{.:XaX2X<X<X-X=X8.u h U._.G._.U.f > h W._.J.J._.*X;X&XzXbXMXnXkXOXT.H.B.m.m.m.m.m.m.m.m.m.m.",
"m.m.m.m.m.m.m.m.m.m.m.m.m.m.B.M.J.H.].).1X:X:X,X).*Xe.k h 2._.K.G.Y.h > f 3._.N.B.J.].^.&XvXgXdXkX<X^.j.K.B.m.m.m.m.m.m.m.m.m.m.",
"m.m.m.m.m.m.m.m.m.m.m.m.m.m.m.m.B.V.S._.,X,X).[.].!.*X0.h -._.J.K.Y.;.> y :._.J.B.N._./.+XdXvXkX%X=X/.H.N.m.m.m.m.m.m.m.m.m.m.m.",
"m.m.m.m.m.m.m.m.m.m.m.m.m.m.m.m.B.B.V.K.].].F.S.S.`.^.OXj h Y._.K.W.:.> k =X_.J.B.B.K.Q.+XkXzXzX<Xe.`.K.B.m.m.m.m.m.m.m.m.m.m.m.",
"m.m.m.m.m.m.m.m.m.m.m.m.m.m.m.m.m.m.B.N.K.S.N.N.J.Q.*X9.i i 3._.G.`.8.t j ;X!.K.N.B.K.Y.e.oXoX;X^.h.H.B.m.m.m.m.m.m.m.m.m.m.m.m.",
"m.m.m.m.m.m.m.m.m.m.m.m.m.m.m.m.m.m.B.m.B.B.B.N.G.[.OXx : > -.W._.[.8.t d %X*X_.J.B.B.K.h.3.U.).].H.N.B.m.m.m.m.m.m.m.m.m.m.m.m.",
"m.m.m.m.m.m.m.m.m.m.m.m.m.m.m.m.m.m.m.B.B.B.B.L._.^.+XZ ; t :.R._.Q.8.t a %X:XY.K.B.B.N.S.S.S.G.K.B.m.m.m.m.m.m.m.m.m.m.m.m.m.m.",
"m.m.m.m.m.m.m.m.m.m.m.m.m.m.m.m.m.B.B.B.B.V.L.`.^.;X$Xz X , ;.U.[.R.7.t , Z =X^._.B.B.B.V.N.B.N.M.m.m.m.m.m.m.m.m.m.m.m.m.m.m.m.",
"m.m.m.m.m.m.m.m.m.m.m.m.m.m.m.m.B.V.J.K.H._.[.^.+X2XZ 1 X ; h w.[./.9.a - .XaX-X_.J.B.B.B.m.m.m.m.m.m.m.m.m.m.m.m.m.m.m.m.m.m.m.",
"m.m.m.m.m.m.m.m.m.m.m.m.m.m.m.M.N.S._.!.R.w.8.9.XXZ 1 X X > =.T.[.T.9.z @ Z dX<X).F.J.B.m.m.m.m.m.m.m.m.m.m.m.m.m.m.m.m.m.m.m.m.",
"m.m.m.m.m.m.m.m.m.m.m.m.m.m.m.V.c.f.<.-.h i > : , ; o ; t 7.w.R._.T.7.a X 3 $XxX1X/.'.K.V.B.m.B.m.m.m.m.m.m.m.m.m.m.m.m.m.m.m.m.",
"m.m.m.m.m.m.m.m.m.m.m.m.m.m.M.Z.g.<.h y t : ; ; : t j ;.8.w.W.F._.Y.8.a X O Z sXlX1X(.].G.N.B.B.m.m.m.m.m.m.m.m.m.m.m.m.m.m.m.m.",
"m.m.m.m.m.m.m.m.m.m.m.m.m.m.B.N.g.h.w.e.9.8.9.9.8.0.w./.Q._.S.K.S.Y.8.y =   @ z sXlX1X-X/.`.H.J.B.B.B.m.m.m.m.m.m.m.m.m.m.m.m.m.",
"m.m.m.m.m.m.m.m.m.m.m.m.m.m.m.B.N.G.'.].!.!.!.!.[._.F.G.K.N.B.N.J.j.e.7.a -   X 1 z $X+Xh =.T.].H.N.B.m.m.m.m.m.m.m.m.m.m.m.m.m.",
"m.m.m.m.m.m.m.m.m.m.m.m.m.m.m.B.B.B.N.K.K.K.K.K.J.N.N.B.B.B.m.B.B.A.R.oX.Xa : = o = , , : t f =.f.A.N.B.m.m.m.m.m.m.m.m.m.m.m.m.",
"m.m.m.m.m.m.m.m.m.m.m.m.m.m.m.m.m.B.B.B.B.B.B.B.B.B.m.m.m.m.m.m.B.J._.h.q.8.j j s t : = o = ; t f <.c.B.m.m.m.m.m.m.m.m.m.m.m.m.",
"m.m.m.m.m.m.m.m.m.m.m.m.m.m.m.m.m.m.m.m.m.m.m.m.m.m.m.m.m.m.m.m.m.B.J._.W.R.T.w.w.0.;.k k k k ;.-.<.g.m.B.m.m.m.m.m.m.m.m.m.m.m.",
"m.m.m.m.m.m.m.m.m.m.m.m.m.m.m.m.m.m.m.m.m.m.m.m.m.m.m.m.m.m.m.m.m.m.B.N.K.H._.H.'.`.[.[.[.[.[.]._.L.N.m.m.m.m.m.m.m.m.m.m.m.m.m.",
"m.m.m.m.m.m.m.m.m.m.m.m.m.m.m.m.m.m.m.m.m.m.m.m.m.m.m.m.m.m.m.m.m.m.m.B.B.B.B.B.B.B.N.N.N.N.N.V.B.M.B.m.m.m.m.m.m.m.m.m.m.m.m.m.",
"m.m.m.m.m.m.m.m.m.m.m.m.m.m.m.m.m.m.m.m.m.m.m.m.m.m.m.m.m.m.m.m.m.m.m.m.m.m.m.B.m.B.B.B.B.B.m.B.m.B.m.m.m.m.m.m.m.m.m.m.m.m.m.m.",
"m.m.m.m.m.m.m.m.m.m.m.m.m.m.m.m.m.m.m.m.m.m.m.m.m.m.m.m.m.m.m.m.m.m.m.m.m.m.m.m.m.m.m.m.m.m.m.m.m.m.m.m.m.m.m.m.m.m.m.m.m.m.m.m.",
"m.m.m.m.m.m.m.m.m.m.m.m.m.m.m.m.m.m.m.m.m.m.m.m.m.m.m.m.m.m.m.m.m.m.m.m.m.m.m.m.m.m.m.m.m.m.m.m.m.B.m.m.m.m.m.m.m.m.m.m.m.m.m.m.",
"m.m.m.m.m.m.m.m.m.m.m.m.m.m.m.m.m.m.m.m.m.m.m.m.m.m.m.m.m.m.m.m.m.m.m.m.m.m.m.m.m.m.m.m.m.m.m.m.m.m.m.m.m.m.m.m.m.m.m.m.m.m.m.m.",
"m.m.m.m.m.m.m.m.m.m.m.m.m.m.m.m.m.m.m.m.m.m.m.m.m.m.m.m.m.m.m.m.m.m.m.m.m.m.m.m.m.m.m.m.m.m.m.m.m.m.m.m.m.m.m.m.m.m.m.m.m.m.m.m.",
"m.m.m.m.m.m.m.m.m.m.m.m.m.m.m.m.m.m.m.m.m.m.m.m.m.m.m.m.m.m.m.m.m.m.m.m.m.m.m.m.m.m.m.m.m.m.m.m.m.m.m.m.m.m.m.m.m.m.m.m.m.m.m.m."
};
