/* XPM */
static char *out[] = {
/* columns rows colors chars-per-pixel */
"64 64 243 2 ",
"   c #385C10",
".  c #0A6F00",
"X  c #0C7700",
"o  c #197701",
"O  c #2A730E",
"+  c #357809",
"@  c #376615",
"#  c #397618",
"$  c #434A0E",
"%  c #464E16",
"&  c #474D19",
"*  c #4A4C1C",
"=  c #455516",
"-  c #4B5216",
";  c #4C531B",
":  c #4C5A1B",
">  c #51561E",
",  c #555B1A",
"<  c #535B1C",
"1  c #5B720A",
"2  c #4A671B",
"3  c #5A671A",
"4  c #5A631D",
"5  c #47751A",
"6  c #597916",
"7  c #616D1C",
"8  c #677819",
"9  c #4D4C23",
"0  c #514F27",
"q  c #4D5323",
"w  c #4B5725",
"e  c #525424",
"r  c #555B23",
"t  c #595E24",
"y  c #55532C",
"u  c #59562E",
"i  c #555B2B",
"p  c #5B5D2C",
"a  c #595631",
"s  c #595832",
"d  c #5D5B33",
"f  c #605D35",
"g  c #625E39",
"h  c #4A6625",
"j  c #566527",
"k  c #5B6324",
"l  c #5E6923",
"z  c #5D632B",
"x  c #487828",
"c  c #56772A",
"v  c #5C6133",
"b  c #5D6C35",
"n  c #597434",
"m  c #636C24",
"M  c #61662C",
"N  c #636B2B",
"B  c #666C2C",
"V  c #687423",
"C  c #65712A",
"Z  c #6B732C",
"A  c #6D7A2B",
"S  c #727C25",
"D  c #727B2C",
"F  c #626433",
"G  c #656B33",
"H  c #6A6D34",
"J  c #65633C",
"K  c #69653E",
"L  c #646B3B",
"P  c #6B6C3C",
"I  c #706F3F",
"U  c #6D7233",
"Y  c #667739",
"T  c #6D713C",
"R  c #757B34",
"E  c #71743C",
"W  c #757A39",
"Q  c #6A6641",
"!  c #696642",
"~  c #6D6A43",
"^  c #716D45",
"/  c #726E49",
"(  c #6D7142",
")  c #6C7C46",
"_  c #737245",
"`  c #767944",
"'  c #797C45",
"]  c #75724B",
"[  c #79764C",
"{  c #7B7B4C",
"}  c #7A7651",
"|  c #7D7B53",
" . c #817E54",
".. c #827E59",
"X. c #198A00",
"o. c #0C9600",
"O. c #199906",
"+. c #2A8708",
"@. c #269607",
"#. c #379409",
"$. c #328510",
"%. c #38891A",
"&. c #299814",
"*. c #369518",
"=. c #14AE05",
"-. c #2CA808",
";. c #36A90A",
":. c #2DB909",
">. c #2BA716",
",. c #35A61A",
"<. c #2AB919",
"1. c #33B717",
"2. c #3E8C24",
"3. c #3C9821",
"4. c #38AB23",
"5. c #3AB824",
"6. c #518A0F",
"7. c #488718",
"8. c #469A18",
"9. c #66901B",
"0. c #48A717",
"q. c #51AE15",
"w. c #47B718",
"e. c #64AC1C",
"r. c #478928",
"t. c #469827",
"y. c #51912A",
"u. c #558734",
"i. c #599738",
"p. c #6A8927",
"a. c #7A8A26",
"s. c #76822B",
"d. c #79832D",
"f. c #7E8B2D",
"g. c #7A9529",
"h. c #7A8433",
"j. c #7A8637",
"k. c #6A9231",
"l. c #799533",
"z. c #47A62B",
"x. c #54AD2D",
"c. c #45B92C",
"v. c #58A837",
"b. c #62A825",
"n. c #76A727",
"m. c #6CAD39",
"M. c #11C406",
"N. c #15DA09",
"B. c #2ACB08",
"V. c #2AC619",
"C. c #35C918",
"Z. c #2CD51C",
"A. c #28D918",
"S. c #36D919",
"D. c #0EE509",
"F. c #17EA0B",
"G. c #0DF707",
"H. c #01FF02",
"J. c #0AF906",
"K. c #0EF60B",
"L. c #0BF809",
"P. c #12F40C",
"I. c #18F20C",
"U. c #1CEB16",
"Y. c #1CED14",
"T. c #16F111",
"R. c #19F012",
"E. c #26E614",
"W. c #29E214",
"Q. c #26E61C",
"!. c #2AE41C",
"~. c #23E91A",
"^. c #37C725",
"/. c #2FD921",
"(. c #36D727",
"). c #2CE222",
"_. c #32E026",
"`. c #42C71B",
"'. c #48C637",
"]. c #48CC30",
"[. c #6C8546",
"{. c #7A8448",
"}. c #699547",
"|. c #769A49",
" X c #7E8050",
".X c #7C9B55",
"XX c #6AA747",
"oX c #75A84D",
"OX c #6AB34A",
"+X c #7AA353",
"@X c #818E2E",
"#X c #839425",
"$X c #849B25",
"%X c #8B9D25",
"&X c #85932C",
"*X c #869C2C",
"=X c #8B9B2B",
"-X c #808737",
";X c #828D34",
":X c #828B3A",
">X c #859232",
",X c #8A9635",
"<X c #8D9C32",
"1X c #919D37",
"2X c #89A129",
"3X c #8BA431",
"4X c #92A136",
"5X c #858946",
"6X c #82834C",
"7X c #899348",
"8X c #838255",
"9X c #868A56",
"0X c #85835A",
"qX c #89865B",
"wX c #8C8B5C",
"eX c #908E5F",
"rX c #899459",
"tX c #92945B",
"yX c #8EA94F",
"uX c #96A257",
"iX c #898560",
"pX c #8D8C62",
"aX c #918E63",
"sX c #8D9562",
"dX c #949464",
"fX c #999B64",
"gX c #979769",
"hX c #9B9A6C",
"jX c #9E9B71",
"kX c #A09E72",
"lX c #8BA663",
"zX c #9DA36D",
"xX c #94AA69",
"cX c #99A868",
"vX c #A1A36D",
"bX c #A7AB6A",
"nX c #ADB66A",
"mX c #A4A474",
"MX c #A7A778",
"NX c #8CE859",
"BX c #B7C974",
"VX c #BCBF83",
"CX c #C8CD8A",
/* pixels */
"H.H.H.H.H.H.H.H.H.H.H.H.H.H.H.H.H.H.H.H.H.H.H.H.H.J.J.I.!.`.`.0.0.w.S.W.R.G.H.H.H.H.H.H.H.H.H.H.H.H.H.H.H.H.H.H.H.H.H.H.H.H.H.H.",
"H.H.H.H.H.H.H.H.H.H.H.H.H.H.H.H.H.H.H.H.H.H.H.H.G.I.E.!.V.;.x.e.b.q.-.B.E.G.J.H.H.H.H.H.H.H.H.H.H.H.H.H.H.H.H.H.H.H.H.H.H.H.H.H.",
"H.H.H.H.H.H.H.H.H.H.H.H.H.H.H.H.H.H.H.H.H.H.H.G.I.!.B.;.q.b.m.3Xn.9.e.`.B.Y.P.J.H.H.H.H.H.H.H.H.H.H.H.H.H.H.H.H.H.H.H.H.H.H.H.H.",
"H.H.H.H.H.H.H.H.H.H.H.H.H.H.H.H.H.H.H.H.H.J.G.Y.A.1.0.x.k.k.f.l.@Xg.n.e.`.S.E.I.K.L.L.H.H.H.H.H.H.H.H.H.H.H.H.H.H.H.H.H.H.H.H.H.",
"H.H.H.H.H.H.H.H.H.H.H.H.H.H.H.H.H.H.H.H.H.G.Y.A.1.t.i.k.l.j.j.a.g.*X2Xn.e.;.C./.).T.L.H.H.H.H.H.H.H.H.H.H.H.H.H.H.H.H.H.H.H.H.H.",
"H.H.H.H.H.H.H.H.H.H.H.H.H.H.H.H.H.J.J.J.P.~.Z.1.v.yXuXcXrX{.h.f.&X3X2X2Xn.b.x.4.<./.U.K.J.H.H.H.H.H.H.H.H.H.H.H.H.H.H.H.H.H.H.H.",
"H.H.H.H.H.H.H.H.H.H.H.J.H.J.G.G.G.G.G.I.~./.c.OXxXxXbXcXbX7XW h.;X,X4X3X3Xl.l.oXv.c.V.~.K.H.H.H.H.H.H.H.H.H.H.H.H.H.H.H.H.H.H.H.",
"H.H.H.H.H.H.H.H.J.G.I.I.I.E.E.W.W.W.S.S.1.c.OXoXlXxXMXMXvXzXtX5X-X@X#X3XyXl.j.rX.XoX'.(.U.L.J.H.H.H.H.H.H.H.H.H.H.H.H.H.H.H.H.H.",
"H.H.H.H.H.H.H.J.P.I.W.W.B.:.;.0.0.0.0.8.m.oXxXxXvXfXfXmXmXvXfX7Xh.:Xf.;Xd.V W rXrX+XOX'./.T.L.H.H.H.H.H.H.H.H.H.H.H.H.H.H.H.H.H.",
"H.H.H.H.H.H.G.F.W.B.B.w.q.e.9.e.9.k.k.p.|.cXcXmXmXmXkXkXvXvXvXtXj.:Xj.s.S C W 8XwX[.u.t.<.Q.P.H.H.H.H.H.H.H.H.H.H.H.H.H.H.H.H.H.",
"H.H.H.H.H.J.I.W.:.`.e.e.n.9.g.g.@Xf.@X5XuXvXmXmXmXkXmXkXkXhXvXfX5X:Xh.V m m N T ( ( Y r.4./.U.L.J.H.H.H.H.H.H.H.H.H.H.H.H.H.H.H.",
"H.H.H.H.H.P.E.C.q.n.%X%X%Xg.#Xg.&X>X:XtXbXvXmXmXMXmXmXkXvXvXvXfX5XZ m m l m z F ( ( ( n 3.5._.Y.P.L.H.H.H.H.H.H.H.H.H.H.H.H.H.H.",
"H.H.H.H.L.Y.Z.;.b.2X%X%X%X$X$X#X,X>X-X5XfXmXkXMXmXmXmXMXmXvXvXtXW Z m m k < > z T ( T n u.t.1.^.Q.R.G.J.H.H.H.H.H.H.H.H.H.H.H.H.",
"H.H.H.J.K.U.C.8.9.g.=X=X%X$X$X#X&X@X:X5XfXkXMXkXmXmXmXmXvXfX6XW G l k 4 < > : q z ( ~ T L x r.&.=.A.T.L.J.H.H.H.H.H.H.H.H.H.H.H.",
"H.H.H.J.T./.c.i.p.D &X<X%X%X#X#X&X,X:X7XeXfXMXMXMXMXmXmXkXeXE B < < < < : : ; % i P _ ~ ( n n 7.+.1.A.I.L.H.H.H.H.H.H.H.H.H.H.H.",
"H.H.H.L.~.Z.v.XXj.W d.&X=X%X$Xa.,X;X5X9XeXgXkXMXkXmXmXbXwX-XH , k < : - : r r ; & e p L ( P b 2 5 #.1.S.I.J.J.H.H.H.H.H.H.H.H.H.",
"H.H.H.P.).5.v.lXfX-XR d.,X1X#Xa.&Xh.{.9XtXaXjXMXMXmXmXtX-XH t t l k > : ; j r % & ; ; r F H z j p.7.*.1.!.Y.P.J.H.H.H.H.H.H.H.H.",
"H.H.J.T./.c.oXzXbXtX' R d.>X,Xs.V V j.wXeXaXhXMXbXtX . .' M t t t < e > ; r : ; % ; ; ; e p t m C p.7.*.>.Z.!.I.K.G.J.H.H.H.H.H.",
"H.H.G.~.^.v.lXMXmXkXtX .R d.A V 7 m ' eXeXaXeX . .wXhXmXdXE , t i G L i e ; ; ; ; ; ; > r k , B Y A V 7.y.z.5.(.~.T.J.H.H.H.H.H.",
"H.G.Y./.5.i.lXzXkXkXtXwXW k 4 l l z {.pXaXaXqX ...hXkXMXeX .M e p L _ ~ z > ; q % % : r r 4 t B A U Z C c i.XXc.^.!.T.L.H.H.H.H.",
"L.T.).5.z.+XVXgXkXkXhXgX .t > t > M  .eXaXaX.. .aXaXaXkXeXI K t p L _ / ~ F e ; % - , 4 , 4 , m Z U C N N [..XXXv.5.A.U.J.H.H.H.",
"T.Q.^.z.+X.XjXjXkXkXhXdX6XH > > r H 6XeXaXaXwXeXaXaXaX.. .H f f p L ^ / _ _ G t ; : < 4 4 4 4 m D R U E  X9XrXrXoXv.<.~.P.H.H.H.",
").^.v.XX.XsXgXjXjXhXfXqX' P > > > P qXeXaX....aXaXaX.. .I I K K F I ^ _ _ _ ~ z ; 4 l m B V m m Y W ` 8X8X0X0X9X[.r.,.Z.T.J.H.H.",
"^.5.+X.X.XjXgXgXhXhXtX6XU B , - - H eXeXeXeXaXaXaXaXhX .K  . .I F P I E ^ _ P M 4 l m V 8 m 7 m U W {.8X8XqX0X{ ( n *.<.U.L.H.H.",
"5.4..XsX9XqXwXtXfXtX:XR D d.h.h.D U 6XtXqXqXeXaXaXaXwX .^ ^ I E P U U H I I I M , m V 7 8 m 7 4 B U 8X9X......} ! n %.<.).P.J.H.",
"4.i..X}  .wXtXtX5X-X-X@X;X&X-Xd.D -XR  .eXwXeXaXeX.. .[  .I E U R R R R U H H t - , m V V V 7 4 k P 9X0X..| } / ! n x 3./.T.L.H.",
"z.2.) / '  .9X7X,X1X=X=X&X&X&Xa.@X:XR  .eXeXeXeX.... . ._ E U d.:X;Xh.R R U B > - , , 4 7 7 m m k G 9X0X} ] / ! ~ b n %.<.~.L.H.",
"z.2.Y / '  .R :X1X%X%X%X%X%X&X@X@X;XR D  .eXwX ... . . . .I R -X,X&X>X;XR Z Z k - - - , 4 m m k r M { qX[ K ! J ! ( n 2.>.).T.H.",
"z.y.j.]  X Xh.,X1X%X%X%X%X%X&X#X;X;XR M  .wXeXeXwX . . .U Z -X,X=X=X<X@Xd.S Z B M r > - - - = = - & e s s g g ! ! ! L x 4./.T.J.",
"z.y.Y _ ' E U h.1X4X4X=X%X%X=X=X>XD V M ' 6XwX9X . . . .E R -X1X<X1X1X,Xs.S Z H k > p p q % - % % & 9 u y y g ! ! ! ! x %.<.U.L.",
"z.2.n Q ( W W j.d.h.,X1X4X&X&X;Xh.D m M U  . . . . .^ ^ I R -X-X@X>X&XD S D Z Z k ; ; r r ; % & & * 9 u s s s J L J L n 2.>.).T.",
"3.x b J T T W W -X-Xd.d.&X@Xd.D R Z m B H  . . ._ [  .I I U R d.-Xd.d.S D D Z 4 < < z t ; ; & & & * y u s s g J J L g b x >./.U.",
"z.r.n F P T | pXhXbXfX5XC A Z R R Z m M f U  . .I  .^  .I U R R R d.D S D Z 4 , k l G N j ; - % * e u u a y s g J ! ! b x %.V.).",
"t.# b P P  XhXjXmXkXvXfX{.G U U Z B m M k H E ^  .I  .^ I  . .U R h.R D Z m > > l B C C C l - $ ; e y y a a a g J J ! b h 2.<./.",
"t.# b ( 8XgXkXVXkXkXkXaXeX6XG l M M m t t H _  .K  . .K I  .eX' H R R B N H M , C c A j.j.h.m , - > y u y y a d J ! ! v b # >.(.",
"t.r.Y [ dXhXjXjXMXkXhX9X8X9X` M k t t k e M I  . .K I I K  .eX..' H H H T ` N r C C d.j.;X:Xj.j.m - e y y a 0 a g J J J v x 3.^.",
"2.x n 0XjXjXjXjXkXhXiX.. XwX{.M k t > t > f _ ^ I ^ ^ ^  .......6X' ' ` ` ` F > l D >Xf.>X>X>X;Xh.m > r u u d ! g ! ! J b x &.4.",
"r.x ) sXgXjXjXjXkXgX[ ~ { ' L M M t H F , p I  . .K  .K  .......I F _ [ _ _ F ; l D >X>X&X@X&X&X,Xj.B ; u K / / ! g g J b n 2.4.",
"r.x {.gXgXgXhXhXgX8XF r M G G G z M H F 0 f K ^ ~  .K K Q .... .[  . ._ ^ ^ F r B D f.,X&X&X=X&X,X>XZ > f ^ _ / ! J g g ! x %.4.",
"# x [.iX9X X{ [ ( z q r G G H N M u t t > u ^ K  .Q  .K g  ..... ...{ ^ ^ ^ F t B D S @X&X%X#X#X&Xf.m > e f ~ ~ ! J g J L n &.5.",
"%.# c H L T H H G z ; r M H H b z t r r q d ~ ~ / / / Q Q  .....} } } ^ ~ Q g f U m S S &X%X%X%X<Xa.3 < 0 s d ! ! g g J b x &.^.",
"z.%.c G M F p r q q * y v G G G p r r r q p ~ ~ Q / Q g Q / /  .[ ] } ~ ~ K f K  .Z Z S #X<X=X1Xf.3 4 e y s s g ! L d g b x 3.(.",
"z.+ h z i J P ' ] P v ] 8XT v z p r e e 0 p P Q Q Q Q Q Q  ./  ./ ~ ^ ~ K g f I  .H m S S &X4X&X3 3 r p s y s s ! g s v n # >.(.",
"*.+ c  X9XpXaXaX8X! J / | 8X~ p F P L d 0 p J J / Q Q Q Q / / / / / Q Q g f u K  . .U B S S S 7 3 , r d d 0 y s J ! g s n 2.<._.",
"3.2.[. XiXpXaXpX} / / / [ | / J [ [ [ K u d f Q } ~ J g Q / / ] / / Q K g a d ^  . .' U B Z m , , ; d J s s y s ! ! s i x 3.^.Q.",
"z.r. X XqXpXpXiX} / / ] ] [ / } | [ ] / J d J ^ / / Q g Q / / / / / Q g f a K  . . .{ W H B m > e z J F ! } } / s ! g h O >./.U.",
"v.u.) | iXiX| } ~ ! ! ] } / ! / | } / ] g a J / ~ J g g g / ~ ~ Q ~ ! g f a K .. . .' I E E p u v g d ~ | | ] ! ! g v h O >.).D.",
"i.2.) | | } / / ! s g ~ / ! g ~ } } / / g f ~ ~ Q J J g K Q / / / Q Q g a a ~ .. .6X . .{ { P u J d ~ ..| } ! ! ! s v x &.V.U.D.",
"2.x ) | ..} ~ J g d g ~ Q g g g ~ } / d 0 s ! J J ~ / ~ g g ~ / ^ K f u u u ~  .8X8X .8X{ [ / ! g } jXpX} ! ! / J d h # 4._.T.L.",
"i.}.) | | ] ~ g f g g K g Q Q J J a 9 9 9 d J F v J Q ~ f a g Q K f u 0 J [ ^ ] } ..8X..[ / [ / ~ ..gX..} ! ! ! ! d w # >.).K.L.",
"r.n ) / [ ^ f p J f g g J ^ K g p 0 9 9 e s F F F f J Q f u f f p t p  .wX' ~ ] ] ] | [ / _ } ~ / ....../ ! ! ! ! v h # 4._.T.L.",
"2.r.) / _ F F P M F f f F J F f u 9 0 e 9 p F F G G J J u u u F p H 5XtX .K ~ ] ] ] ^ Q ^ ] / ! / ....../ ! ! ! ! J v h $.<.~.T.",
"%.y.k.E M t k Z H B M p p F F i > p e q i p b H G F d y 9 e t J H W tX-XP F I ] ] / ~ ~ / } / ~ ! } } } } ! ! ! ! g s h # &.Z.).",
">.@.r.6 2 2 l d.;XZ M p p d p r e t t ; e z N l z t q 9 9 9 9 , Z 5X-XE H H K ] [ ~ ~ / ] ] / ~ ! / / } / J ! ! ! ! b i h O O./.",
"(.:.O.+.+ 5 6 a.d.S B z p d r r : h : % e r k j k r q * * & * , S 7XfXbX .B K / / / / } / ] ] ~ g ! / / ! ! g g s s y s h # O.^.",
"E.A.:.<.&.+.+ 6.6 1 : r i q * : h 2 2   = = : h r : % % * % * , m :XBXVXCXMX/ / Q Q / / ] ] ] ~ g g / ! g y y y y 0 s y w @ &.5.",
"D.M.=.A.S.Z.;.#.7.2 2 j ) 0X X[.x h @   @ h j 3 2 = = : = - , m S D nXCXnXgX .I Q / / / / ] ] K s d d d s y y y y y y 0 w @ &.^.",
"L.D.D.U.I.E.C.;.%.6 [. X0XiXiXsX}.u.2.# @ # 5 5 5 2 5 5   c uXyXS 7 8 bXCXCXfXg L ] ] ] _ ~ ~ f 0 v v d s 0 s y y 0 w w w O o.<.",
"J.J.K.L.L.I.A.:.8.oX7XrXpXiXpX.X.Xu.2.2.$.$.$.$.5 + $.7.7.oXBXBX1X8 1 S 7Xj.Z M L ] ] ] _ P v e e d v s s 0 0 y y 0 0 w @ . o.Z.",
"H.H.H.H.H.K.W.C.m.oXrXsXsXsXpXsX}.2.&.4.<.<.>.@.+.#.@.-.w.m.3X9.8 8 8 8 8 6 7 B b ! ( / ( T z i z z v s s 0 0 0 w w w @ O >./.~.",
"H.H.H.H.H.G.N.:.8.v.+XsXlXgXsXlXXX*.O.=.V.A.A.M.o.=.o.=.:.;.6.6.9.1 9.g.6.6 6 x b b b L G b j 2 j l r j s w 0 9 w w @ o &./.U.K.",
"H.H.H.H.H.G.F.M.O.X.&.2.r.i.}.t.&.>.(.).U.R.R.F.D.N.N.F.S.B.;.0.0.9.m.NXb.#.#.+.%.# x x 5 2 5 @ # # @ @ @ @ @ @ O @ . O.Z.U.L.L.",
"H.H.H.H.H.H.K.D.N.N./.Z.=.O.o.o.=.).U.K.L.J.G.G.K.K.L.K.I.F.B.B.:.-.].NXC.B.A.S.V.O.X.o o o o X.&.X.X X . X . . . o./.Q.T.L.L.L.",
"H.H.H.H.H.H.J.G.K.T.U.~._.(.(.(.).U.K.J.J.H.H.H.J.J.H.J.G.I.I.W.W.C.`.`.(.W.Y.Y.).(.^.c.c.c.'.].(.(.(.].'.'.'.'.(._.~.T.L.L.H.H."
};
