/* XPM */
static char *out[] = {
/* columns rows colors chars-per-pixel */
"64 64 222 2 ",
"   c #005400",
".  c #015A00",
"X  c #0A5B00",
"o  c #105E00",
"O  c #395F00",
"+  c #016400",
"@  c #096600",
"#  c #126500",
"$  c #166900",
"%  c #1E6800",
"&  c #067700",
"*  c #147500",
"=  c #1A7800",
"-  c #256600",
";  c #296600",
":  c #236A00",
">  c #2D6A00",
",  c #3D6701",
"<  c #326D00",
"1  c #277800",
"2  c #2C7A00",
"3  c #357600",
"4  c #485E01",
"5  c #714F07",
"6  c #745205",
"7  c #7A5707",
"8  c #75530A",
"9  c #79560B",
"0  c #7C5A0D",
"q  c #7D5B11",
"w  c #456905",
"e  c #566807",
"r  c #477501",
"t  c #5A790B",
"y  c #5A6C12",
"u  c #5A7414",
"i  c #66780F",
"p  c #6D6A16",
"a  c #716612",
"s  c #7A6D18",
"d  c #687815",
"f  c #777917",
"g  c #687723",
"h  c #815C0C",
"j  c #825F13",
"k  c #86610B",
"l  c #8B630D",
"z  c #90670E",
"x  c #846214",
"c  c #8A6514",
"v  c #8A6916",
"b  c #896619",
"n  c #846C1A",
"m  c #8D6B1B",
"M  c #946B15",
"N  c #936D1C",
"B  c #9A6F18",
"V  c #88781B",
"C  c #9E7516",
"Z  c #9F7915",
"A  c #937418",
"S  c #95711D",
"D  c #9D741C",
"F  c #9D791E",
"G  c #A07516",
"H  c #A1771B",
"J  c #A3791D",
"K  c #A97C1D",
"L  c #946F20",
"P  c #887E23",
"I  c #957321",
"U  c #9C7521",
"Y  c #937B22",
"T  c #9E7922",
"R  c #9E7D2A",
"E  c #A27922",
"W  c #A07825",
"Q  c #A97E23",
"!  c #088800",
"~  c #138500",
"^  c #148B00",
"/  c #0C9600",
"(  c #189500",
")  c #149E00",
"_  c #2B8800",
"`  c #378700",
"'  c #289900",
"]  c #389400",
"[  c #1CA200",
"{  c #17A800",
"}  c #1BB603",
"|  c #1DBC0C",
" . c #28A400",
".. c #22BD05",
"X. c #458D03",
"o. c #55830A",
"O. c #459300",
"+. c #499601",
"@. c #599A04",
"#. c #60800F",
"$. c #639D09",
"%. c #7A8419",
"&. c #7B8B1D",
"*. c #779A17",
"=. c #77A617",
"-. c #1EC50B",
";. c #1ED308",
":. c #1FD914",
">. c #24CC08",
",. c #25D60C",
"<. c #22C512",
"1. c #22CC12",
"2. c #25DA16",
"3. c #1BEF0E",
"4. c #00FF01",
"5. c #08FA07",
"6. c #0EF60B",
"7. c #07FA08",
"8. c #0BF909",
"9. c #13F30D",
"0. c #18F30A",
"q. c #19EC15",
"w. c #1CED15",
"e. c #1CEC19",
"r. c #15F211",
"t. c #18F012",
"y. c #23E212",
"u. c #25E51C",
"i. c #24E918",
"p. c #2FDF27",
"a. c #3FD72C",
"s. c #32DE2A",
"d. c #3AD92C",
"f. c #3ED634",
"g. c #39D834",
"h. c #28E424",
"j. c #45D71B",
"k. c #42D724",
"l. c #41D433",
"z. c #868719",
"x. c #AA811E",
"c. c #85A61D",
"v. c #93AA1C",
"b. c #888524",
"n. c #958524",
"m. c #9A872A",
"M. c #829320",
"N. c #878838",
"B. c #949032",
"V. c #A68223",
"C. c #AC8223",
"Z. c #AA8A27",
"A. c #A1832B",
"S. c #AD852A",
"D. c #B28423",
"F. c #B38828",
"G. c #B58C2A",
"H. c #BA8D2B",
"J. c #BE952E",
"K. c #A78933",
"L. c #AC8F31",
"P. c #AC9337",
"I. c #B49637",
"U. c #BC9332",
"Y. c #BB9C3A",
"T. c #9BB830",
"R. c #B4AA35",
"E. c #A6BD35",
"W. c #BEBA39",
"Q. c #C1922D",
"!. c #CC9B2D",
"~. c #C69C39",
"^. c #C9A73E",
"/. c #CCA53E",
"(. c #D6A836",
"). c #D2B43B",
"_. c #E3B13F",
"`. c #B1C33B",
"'. c #C0C43F",
"]. c #B89C49",
"[. c #A79852",
"{. c #BEA245",
"}. c #BAA757",
"|. c #BAB167",
" X c #CEA541",
".X c #CDAA41",
"XX c #C8AA4A",
"oX c #D6AC47",
"OX c #CFB14D",
"+X c #D6B547",
"@X c #DABA57",
"#X c #E8BA49",
"$X c #E3BE5C",
"%X c #C2AB64",
"&X c #CAB665",
"*X c #D5BC6D",
"=X c #C4CD4E",
"-X c #D6C748",
";X c #D7C855",
":X c #D8D454",
">X c #E6C54C",
",X c #EFCA54",
"<X c #ECC55C",
"1X c #EAC859",
"2X c #F4CB52",
"3X c #F4CE5E",
"4X c #DFC46D",
"5X c #E8C867",
"6X c #ECD764",
"7X c #F8DA67",
"8X c #E2C67C",
"9X c #EDD276",
"0X c #FCDC76",
"qX c #EDE667",
"wX c #F7E46B",
"eX c #FFE475",
"rX c #FFE87B",
"tX c #DDCA84",
"yX c #EAD384",
"uX c #F6DE96",
"iX c #FFE682",
"pX c #FBE497",
/* pixels */
"4.4.4.4.4.4.4.4.4.4.4.4.4.4.4.4.4.4.4.4.4.4.4.4.4.4.4.4.4.4.4.4.4.4.4.4.4.4.4.4.4.4.4.4.4.4.4.4.4.4.4.4.4.4.4.4.4.4.4.4.4.4.4.4.",
"4.4.4.4.4.4.4.4.4.4.4.4.4.4.4.4.4.4.4.4.4.4.4.4.4.4.4.4.4.4.4.4.4.4.4.4.4.4.4.4.4.4.4.4.4.4.4.4.4.4.4.4.4.4.4.4.4.4.4.4.4.4.4.4.",
"4.4.4.4.4.4.4.4.4.4.4.4.4.4.4.4.4.4.4.4.4.4.4.4.4.4.4.4.4.4.4.4.4.4.4.4.4.4.4.4.4.4.4.4.4.4.4.4.4.4.4.4.4.4.4.4.4.4.4.4.4.4.4.4.",
"4.4.4.4.4.4.4.4.4.4.4.4.4.4.4.4.4.4.4.4.4.4.4.4.4.4.4.4.4.4.4.4.4.4.4.4.4.4.4.4.4.4.4.4.4.4.4.4.4.4.4.4.4.4.4.4.4.4.4.4.4.4.4.4.",
"4.4.4.4.4.4.4.4.4.4.4.4.4.4.4.4.4.4.4.4.4.4.4.4.4.4.4.4.4.4.4.4.4.4.4.4.4.4.4.4.4.4.4.4.4.4.4.4.4.4.4.4.4.4.4.4.4.4.4.4.4.4.4.4.",
"4.4.4.4.4.4.4.4.4.4.4.4.4.4.4.4.4.4.4.4.4.4.4.4.4.4.4.4.4.4.4.4.4.4.4.4.4.4.4.4.4.4.4.4.4.4.4.4.4.4.4.4.4.4.4.4.4.4.4.4.4.4.4.4.",
"4.4.4.4.4.4.4.4.4.4.4.4.4.4.4.4.4.4.4.4.4.4.4.4.4.4.4.4.4.4.4.4.4.4.4.4.4.4.4.4.4.4.4.4.4.4.4.4.4.4.4.4.4.4.4.4.4.4.4.4.4.4.4.4.",
"4.4.4.4.4.4.4.4.4.4.4.4.4.4.4.4.4.4.4.4.4.4.4.4.4.4.4.4.4.4.4.4.4.4.4.4.4.4.4.4.4.4.4.4.4.4.4.4.4.4.4.4.4.4.4.4.4.4.4.4.4.4.4.4.",
"4.4.4.4.4.4.4.4.4.4.4.4.4.4.4.4.4.4.4.4.4.4.4.4.4.4.4.4.4.4.4.4.4.4.4.4.4.4.4.4.4.4.4.4.4.4.4.4.4.4.4.4.4.4.4.4.4.4.4.4.4.4.4.4.",
"4.4.4.4.4.4.4.4.4.4.4.4.4.4.4.4.4.4.4.4.4.4.4.4.4.4.4.4.4.5.4.4.4.7.7.4.4.4.4.4.4.4.4.4.4.4.4.4.4.4.4.4.4.4.4.4.4.4.4.4.4.4.4.4.",
"4.4.4.4.4.4.4.4.4.4.4.4.4.4.4.4.4.4.4.4.4.4.4.4.4.4.4.7.5.5.5.5.5.7.7.7.5.4.4.4.4.4.4.4.4.4.4.4.4.4.4.4.4.4.4.4.4.4.4.4.4.4.4.4.",
"4.4.4.4.4.4.4.4.4.4.4.4.4.4.4.4.4.4.5.4.4.4.5.5.7.6.r.r.t.q.e.e.e.e.e.r.r.6.7.5.4.4.4.4.4.4.4.4.4.4.4.4.4.4.4.4.4.4.4.4.4.4.4.4.",
"4.4.4.4.4.4.4.4.4.4.4.4.4.4.4.4.4.4.4.4.4.4.5.6.9.t.h.h.g.g.g.l.l.f.f.g.h.e.r.7.5.4.4.4.4.4.4.4.4.4.4.4.4.4.4.4.4.4.4.4.4.4.4.4.",
"4.4.4.4.4.4.4.4.4.4.4.4.4.4.4.4.4.4.4.4.7.8.0.w.;.} / & @ @ @ # $ # + + ! { -.e.t.9.5.4.4.4.4.4.4.4.4.4.4.4.4.4.4.4.4.4.4.4.4.4.",
"4.4.4.4.4.4.4.4.4.4.4.4.4.4.4.4.4.4.4.5.9.i.2.[ ' +.$.*.*.&.M.&.%.%.i #.t X.' [ 1.y.9.5.5.4.4.4.4.4.4.4.4.4.4.4.4.4.4.4.4.4.4.4.",
"4.4.4.4.4.4.4.4.4.4.4.4.4.4.4.4.4.5.8.0.,.} ' ] =.E.=X:X;XOX{.I.P.K.B.m.M.&.#.2 ( ..2.9.7.5.4.4.4.4.4.4.4.4.4.4.4.4.4.4.4.4.4.4.",
"4.4.4.4.4.4.4.4.4.4.4.4.4.4.4.4.4.8.3.>.' O.=.`.:XqXqX+XR.L.R S v v m Y Y B.b.&.t _  .2.3.8.7.4.4.4.4.4.4.4.4.4.4.4.4.4.4.4.4.4.",
"4.4.4.4.4.4.4.4.4.4.4.4.4.4.4.7.9.3.>. .@.T.=X6XwX6X.XZ.A l h 9 7 7 q S W W m.m.b.#.2 ) ,.q.7.4.4.4.4.4.4.4.4.4.4.4.4.4.4.4.4.4.",
"4.4.4.4.4.4.4.4.4.4.4.4.4.4.7.8.3.>. .$.`.:XqXeX1XY.T k 7 8 8 8 9 9 q b L L W P.m.b.d 2 ( 2.r.5.4.4.4.4.4.4.4.4.4.4.4.4.4.4.4.4.",
"4.4.4.4.4.4.4.4.4.4.4.4.4.4.7.0.,. .$.`.:X7XrX6XY.A 0 8 8 9 q j x b b x x x m W K.A.n.#.2  .y.9.7.4.4.4.4.4.4.4.4.4.4.4.4.4.4.4.",
"4.4.4.4.4.4.4.4.4.4.4.4.4.5.0.y.[ +.E.:X7XiX6X].N 7 8 9 j j j N N S S A N N M M T K.K.b.t 1 } i.8.4.4.4.4.4.4.4.4.4.4.4.4.4.4.4.",
"4.4.4.4.4.4.4.4.4.4.4.4.4.8.3.>.] c.-X3XeXrXXXI 0 5 q j b N L B U T J U D F U N N U T A &.r ^ 2.3.5.4.4.4.4.4.4.4.4.4.4.4.4.4.4.",
"4.4.4.4.4.4.4.4.4.4.4.4.4.9.y. .$.'.-X7XiX5XK.s 8 9 j m N L U W U J E E H E E D D M M m Y i 1 ) u.8.7.4.4.4.4.4.4.4.4.4.4.4.4.4.",
"4.4.4.4.4.4.4.4.4.4.4.4.7.3...] v.-X1XeX0X].b 6 q j m L L U U U E U E F U E H F E D B A Y b.w * 1.t.7.4.4.4.4.4.4.4.4.4.4.4.4.4.",
"4.4.4.4.4.4.4.4.4.4.4.7.9.y.( @.).-X7XrX@Xm.0 8 q b m L L L L N S S L S S H D H J F D D J n.i 2 ) u.8.4.4.4.4.4.4.4.4.4.4.4.4.4.",
"4.4.4.4.4.4.4.4.4.4.4.7.t.>.` c.-X>X0X0X{.v 9 0 b m N j q j q q 0 q j h h h B E E Z D D Q m.V r + p.9.4.4.4.4.4.4.4.4.4.4.4.4.4.",
"4.4.4.4.4.4.4.4.4.4.4.8.i.{ $.E.).>XeX5XP.x 9 j m L m 9 5 8 8 8 8 8 8 6 6 c S.S.K J H D Q S.R e . s.r.4.4.4.4.4.4.4.4.4.4.4.4.4.",
"4.4.4.4.4.4.4.4.4.4.4.6.u.^ *.W.).,XeX1XY 0 0 c L U m q q j j j x x j j h S.@XQ.K J J Z Q U.K.p # k.0.4.4.4.4.4.4.4.4.4.4.4.4.4.",
"4.4.4.4.4.4.4.4.4.4.4.6.s.& *.^._.2XeXOXM 7 x m L W N h j b N L N N N M M ~.5XU.K K G G Q ~.J.f 2 k.0.4.4.4.4.4.4.4.4.4.4.4.4.4.",
"4.4.4.4.4.4.4.4.4.4.4.r.d.X %./.).2X7X^.k 7 x m U W L h j L U D E U U F Z XX5XQ.K G K G x. X/.V ` k.0.4.4.4.4.4.4.4.4.4.4.4.4.4.",
"4.4.4.4.4.4.4.4.4.4.4.r.d.X z. X(.2X2XU.0 7 v S U W M h j U W W H H J F Z  X3XQ.K K J J x. XoXz.X.j.0.4.4.4.4.4.4.4.4.4.4.4.4.4.",
"4.4.4.4.4.4.4.4.4.4.4.r.a.o b./.(.2X>XG.k 7 M S U W N h c U W H H E E J Z ).5XJ.K K J J C.oX$Xz.O.j.0.4.4.4.4.4.4.4.4.4.4.4.4.4.",
"4.4.4.4.4.4.4.4.4.4.4.r.l.X z.~.!.#X#XF.h h b U W E M h j B E E E J J Z Z /.<XJ.K G K J x.@X5Xz.O.j.0.4.4.4.4.4.4.4.4.4.4.4.4.4.",
"4.4.4.4.4.4.4.4.4.4.4.9.a.X f ~.!._.oXH.h h M L W W N h j B E E J J J J Z ^.<XJ.x.J J Z V.5X5Xb.X.j.0.4.4.4.4.4.4.4.4.4.4.4.4.4.",
"4.4.4.4.4.4.4.4.4.4.4.r.d.. d I.!.(._.D.l h M U H U N h j H H H H H J C G ^.<XQ.x.K E U P.9X5X&.` j.0.4.4.4.4.4.4.4.4.4.4.4.4.4.",
"4.4.4.4.4.4.4.4.4.4.4.r.s.+ i L.Q.!.(.Q.z h M W W E M h j B H J J H H H G ^.1XJ.K J H T {.pX4Xd 2 k.r.4.4.4.4.4.4.4.4.4.4.4.4.4.",
"4.4.4.4.4.4.4.4.4.4.4.8.h.! o.m.D.Q.(.H.B h M U E E m h l B H J G G G G G ^.1XQ.K H W W &XuX|.g % k.0.4.4.4.4.4.4.4.4.4.4.4.4.4.",
"4.4.4.4.4.4.4.4.4.4.4.8.u.[ X.&.x.F.Q.H.Q z c B H U B h B Q Q Q D.D.D.D.D.+X<XJ.K W D K.8XuX[.g . d.r.4.4.4.4.4.4.4.4.4.4.4.4.4.",
"4.4.4.4.4.4.4.4.4.4.4.6.t.-._ t n.V.G.H.Q M z S E H G G D.Q.Q.Q.Q.H.Q.Q.Q./. XH.Q W W [.uXtXN.w + p.6.4.4.4.4.4.4.4.4.4.4.4.4.4.",
"4.4.4.4.4.4.4.4.4.4.4.5.r.2.^ 3 %.F C.F.Q B z M U E J Q Q D.Q Q D.D.D.D.D.D.C.C.W W R *XpX|.g > / h.6.4.4.4.4.4.4.4.4.4.4.4.4.4.",
"4.4.4.4.4.4.4.4.4.4.4.4.7.i.} 1 t V F Q S.E M z D H H Q K E J K K K K K K K J J F R }.uXtXN., * -.q.5.4.4.4.4.4.4.4.4.4.4.4.4.4.",
"4.4.4.4.4.4.4.4.4.4.4.4.5.9.2.( < d V F W Q D B M F E H H K K K K J K K J J H J F P.yXuX|.g : / 2.9.7.4.4.4.4.4.4.4.4.4.4.4.4.4.",
"4.4.4.4.4.4.4.4.4.4.4.4.4.5.w...1 w p v I Q Q D M M D G H H W J K K H J J D D F P.4XuX%X&., ~ <.q.7.4.4.4.4.4.4.4.4.4.4.4.4.4.4.",
"4.4.4.4.4.4.4.4.4.4.4.4.4.7.9.2./ - e p m S E W D B B D H H H H G H H J J D J L.*XpX*XN.u % { u.r.4.4.4.4.4.4.4.4.4.4.4.4.4.4.4.",
"4.4.4.4.4.4.4.4.4.4.4.4.4.5.5.r.1.^ ; y a n N U E J F D D D G H G H D C C V.].5XyX*XB.d : ^ 2.r.7.4.4.4.4.4.4.4.4.4.4.4.4.4.4.4.",
"4.4.4.4.4.4.4.4.4.4.4.4.4.4.4.6.i.| ~ > e a n I I U E E H H G H G K K S.U.OX5X9XXXb.u ; ^ 1.t.8.4.4.4.4.4.4.4.4.4.4.4.4.4.4.4.4.",
"4.4.4.4.4.4.4.4.4.4.4.4.4.4.4.7.6.w.| * ; w p s V N I T Q Q S.S.Q H.~.oX@X@XXXP.P u : ~ <.q.6.7.4.4.4.4.4.4.4.4.4.4.4.4.4.4.4.4.",
"4.4.4.4.4.4.4.4.4.4.4.4.4.4.4.4.7.8.u...~ % , p s n n I S T Q S.H.H.~. XI.n.z.d w : ^ <.e.6.7.4.4.4.4.4.4.4.4.4.4.4.4.4.4.4.4.4.",
"4.4.4.4.4.4.4.4.4.4.4.4.4.4.4.4.4.8.9.w.1.[ * - , y p s s n L V A S V P f p w > * [ ,.e.8.7.4.4.4.4.4.4.4.4.4.4.4.4.4.4.4.4.4.4.",
"4.4.4.4.4.4.4.4.4.4.4.4.4.4.4.4.4.4.4.9.0.u.| ^ = > , w 4 4 4 e e e 4 4 O < = ! | 2.t.7.7.4.4.4.4.4.4.4.4.4.4.4.4.4.4.4.4.4.4.4.",
"4.4.4.4.4.4.4.4.4.4.4.4.4.4.4.4.4.4.4.4.7.6.q.:.| / + .     # $ $ $ . . + ! { :.e.6.8.7.4.4.4.4.4.4.4.4.4.4.4.4.4.4.4.4.4.4.4.4.",
"4.4.4.4.4.4.4.4.4.4.4.4.4.4.4.4.4.4.4.4.4.7.7.9.r.h.s.g.f.f.f.l.a.f.f.g.g.p.e.r.7.7.4.4.4.4.4.4.4.4.4.4.4.4.4.4.4.4.4.4.4.4.4.4.",
"4.4.4.4.4.4.4.4.4.4.4.4.4.4.4.4.4.4.4.4.4.4.4.7.7.6.q.e.e.e.e.e.e.q.w.e.r.r.6.7.4.7.4.4.4.4.4.4.4.4.4.4.4.4.4.4.4.4.4.4.4.4.4.4.",
"4.4.4.4.4.4.4.4.4.4.4.4.4.4.4.4.4.4.4.4.4.4.4.4.4.4.7.8.4.7.8.8.5.5.5.5.7.7.4.4.4.4.4.4.4.4.4.4.4.4.4.4.4.4.4.4.4.4.4.4.4.4.4.4.",
"4.4.4.4.4.4.4.4.4.4.4.4.4.4.4.4.4.4.4.4.4.4.4.4.4.4.4.4.4.4.7.4.5.4.4.4.4.4.4.4.4.4.4.4.4.4.4.4.4.4.4.4.4.4.4.4.4.4.4.4.4.4.4.4.",
"4.4.4.4.4.4.4.4.4.4.4.4.4.4.4.4.4.4.4.4.4.4.4.4.4.4.4.4.4.4.4.4.4.4.4.4.4.4.4.4.4.4.4.4.4.4.4.4.4.4.4.4.4.4.4.4.4.4.4.4.4.4.4.4.",
"4.4.4.4.4.4.4.4.4.4.4.4.4.4.4.4.4.4.4.4.4.4.4.4.4.4.4.4.4.4.4.4.4.4.4.4.4.4.4.4.4.4.4.4.4.4.4.4.4.4.4.4.4.4.4.4.4.4.4.4.4.4.4.4.",
"4.4.4.4.4.4.4.4.4.4.4.4.4.4.4.4.4.4.4.4.4.4.4.4.4.4.4.4.4.4.4.4.4.4.4.4.4.4.4.4.4.4.4.4.4.4.4.4.4.4.4.4.4.4.4.4.4.4.4.4.4.4.4.4.",
"4.4.4.4.4.4.4.4.4.4.4.4.4.4.4.4.4.4.4.4.4.4.4.4.4.4.4.4.4.4.4.4.4.4.4.4.4.4.4.4.4.4.4.4.4.4.4.4.4.4.4.4.4.4.4.4.4.4.4.4.4.4.4.4.",
"4.4.4.4.4.4.4.4.4.4.4.4.4.4.4.4.4.4.4.4.4.4.4.4.4.4.4.4.4.4.4.4.4.4.4.4.4.4.4.4.4.4.4.4.4.4.4.4.4.4.4.4.4.4.4.4.4.4.4.4.4.4.4.4.",
"4.4.4.4.4.4.4.4.4.4.4.4.4.4.4.4.4.4.4.4.4.4.4.4.4.4.4.4.4.4.4.4.4.4.4.4.4.4.4.4.4.4.4.4.4.4.4.4.4.4.4.4.4.4.4.4.4.4.4.4.4.4.4.4.",
"4.4.4.4.4.4.4.4.4.4.4.4.4.4.4.4.4.4.4.4.4.4.4.4.4.4.4.4.4.4.4.4.4.4.4.4.4.4.4.4.4.4.4.4.4.4.4.4.4.4.4.4.4.4.4.4.4.4.4.4.4.4.4.4.",
"4.4.4.4.4.4.4.4.4.4.4.4.4.4.4.4.4.4.4.4.4.4.4.4.4.4.4.4.4.4.4.4.4.4.4.4.4.4.4.4.4.4.4.4.4.4.4.4.4.4.4.4.4.4.4.4.4.4.4.4.4.4.4.4.",
"4.4.4.4.4.4.4.4.4.4.4.4.4.4.4.4.4.4.4.4.4.4.4.4.4.4.4.4.4.4.4.4.4.4.4.4.4.4.4.4.4.4.4.4.4.4.4.4.4.4.4.4.4.4.4.4.4.4.4.4.4.4.4.4."
};
