/* XPM */
static char *out[] = {
/* columns rows colors chars-per-pixel */
"64 64 206 2 ",
"   c #004C00",
".  c #025400",
"X  c #0D5200",
"o  c #015B00",
"O  c #0C5B00",
"+  c #145400",
"@  c #135C00",
"#  c #1D5B00",
"$  c #245E00",
"%  c #006200",
"&  c #0D6300",
"*  c #136300",
"=  c #1B6700",
"-  c #027500",
";  c #167800",
":  c #2C6A00",
">  c #366704",
",  c #277D00",
"<  c #3A7500",
"1  c #3C7A00",
"2  c #3E6F12",
"3  c #5E4F0D",
"4  c #575405",
"5  c #55530A",
"6  c #5B530F",
"7  c #57590F",
"8  c #5D5411",
"9  c #585A13",
"0  c #545918",
"q  c #6D4E07",
"w  c #66490C",
"e  c #6A4C0C",
"r  c #63500E",
"t  c #6C520F",
"y  c #75540C",
"u  c #79560B",
"i  c #7B5A0D",
"p  c #6B4E11",
"a  c #645111",
"s  c #6C5212",
"d  c #695E19",
"f  c #745514",
"g  c #785713",
"h  c #775916",
"j  c #7A5A14",
"k  c #745618",
"l  c #765818",
"z  c #785919",
"x  c #44680F",
"c  c #4E6E1A",
"v  c #536C16",
"b  c #556418",
"n  c #546D19",
"m  c #437515",
"M  c #4A711A",
"N  c #597319",
"B  c #636516",
"V  c #6C6116",
"C  c #6B6119",
"Z  c #77691C",
"A  c #64781A",
"S  c #7B7223",
"D  c #805E15",
"F  c #85610D",
"G  c #86690D",
"H  c #876717",
"J  c #8A6514",
"K  c #84631A",
"L  c #946E12",
"P  c #926D1D",
"I  c #89701D",
"U  c #9A771F",
"Y  c #A27C1F",
"T  c #8D6C24",
"R  c #906F29",
"E  c #8D7621",
"W  c #957325",
"Q  c #A47B21",
"!  c #AB7D21",
"~  c #A07F38",
"^  c #0A8300",
"/  c #088800",
"(  c #188600",
")  c #0A9900",
"_  c #189F02",
"`  c #338700",
"'  c #249A00",
"]  c #1AA204",
"[  c #1CA80D",
"{  c #29B20B",
"}  c #31B10F",
"|  c #26B11A",
" . c #458E00",
".. c #599C02",
"X. c #53811F",
"o. c #6E8C1B",
"O. c #60A304",
"+. c #68AF18",
"@. c #7BB722",
"#. c #2EC41B",
"$. c #2FDB1A",
"%. c #3FDB17",
"&. c #35DE1C",
"*. c #38DE1C",
"=. c #1CEE0E",
"-. c #0EF707",
";. c #00FF01",
":. c #0AF906",
">. c #0EF60B",
",. c #0AF909",
"<. c #10F607",
"1. c #11F50B",
"2. c #1CED15",
"3. c #1FEB19",
"4. c #15F112",
"5. c #19F114",
"6. c #22EB0E",
"7. c #2AE616",
"8. c #22EA14",
"9. c #25E61D",
"0. c #2BE41E",
"q. c #21E91B",
"w. c #34E017",
"e. c #34C625",
"r. c #2DDD22",
"t. c #2FDF29",
"y. c #33DD24",
"u. c #39D829",
"i. c #3CDA2B",
"p. c #27E721",
"a. c #2CE224",
"s. c #32E023",
"d. c #49D713",
"f. c #46D718",
"g. c #42D820",
"h. c #40D72A",
"j. c #73C242",
"k. c #AD831F",
"l. c #8F8A29",
"z. c #879C28",
"x. c #A48824",
"c. c #B68724",
"v. c #B48B23",
"b. c #A6992B",
"n. c #BA962C",
"m. c #A58A38",
"M. c #B69E3B",
"N. c #95A33B",
"B. c #B3AC35",
"V. c #C19227",
"C. c #CC9C2A",
"Z. c #D9A735",
"A. c #D0AB37",
"S. c #E7B83D",
"D. c #AE9447",
"F. c #B5AF50",
"G. c #D7BB4C",
"H. c #C0AE58",
"J. c #EBBD47",
"K. c #CCB867",
"L. c #80C442",
"P. c #B7DD4C",
"I. c #AFF072",
"U. c #CAD346",
"Y. c #C8DB4A",
"T. c #DFD745",
"R. c #F0C74F",
"E. c #F4CD4C",
"W. c #E7D345",
"Q. c #F9DD4F",
"!. c #E9CD58",
"~. c #EFD450",
"^. c #FCDA5A",
"/. c #D2E95D",
"(. c #D4D472",
"). c #EFDD65",
"_. c #D1FB6C",
"`. c #FEE361",
"'. c #FDF266",
"]. c #F6F06D",
"[. c #EBFF7E",
"{. c #FFF374",
"}. c #FCF879",
"|. c #FFFB78",
" X c #DBCC83",
".X c #F3DE82",
"XX c #DEEF87",
"oX c #C8FD8A",
"OX c #D6FA8D",
"+X c #DEFF9D",
"@X c #FFF284",
"#X c #FFFC83",
"$X c #FFF78C",
"%X c #F5FF8B",
"&X c #FFFD8C",
"*X c #F2E59F",
"=X c #E0FF91",
"-X c #EDFF9C",
";X c #F2FF92",
":X c #FFFE94",
">X c #FDFD9D",
",X c #F4FFA3",
"<X c #FFFDA4",
"1X c #FDFEAD",
"2X c #FEFDB3",
"3X c #FFFFBA",
/* pixels */
";.;.;.;.;.;.;.;.;.;.;.;.;.;.;.;.;.;.;.;.;.;.;.;.;.;.;.;.;.;.;.;.;.;.;.;.;.;.;.;.;.;.;.;.;.;.;.;.;.;.;.;.;.;.;.;.;.;.;.;.;.;.;.;.",
";.;.;.;.;.;.;.;.;.;.;.;.;.;.;.;.;.;.;.;.;.;.;.;.;.;.;.;.;.;.;.;.;.;.;.;.;.;.;.;.;.;.;.;.;.;.;.;.;.;.;.;.;.;.;.;.;.;.;.;.;.;.;.;.",
";.;.;.;.;.;.;.;.;.;.;.;.;.;.;.;.;.;.;.;.;.;.;.;.;.;.;.;.;.;.;.;.;.;.;.;.;.;.;.;.;.;.;.;.;.;.;.;.;.;.;.;.;.;.;.;.;.;.;.;.;.;.;.;.",
";.;.;.;.;.;.;.;.;.;.;.;.;.;.;.;.;.;.;.;.;.;.;.;.;.;.;.;.;.;.;.;.;.;.;.;.;.;.;.;.;.;.;.;.;.;.;.;.;.;.;.;.;.;.;.;.;.;.;.;.;.;.;.;.",
";.;.;.;.;.;.;.;.;.;.;.;.;.;.;.;.;.;.;.;.;.;.;.;.;.;.;.;.;.;.;.;.;.;.;.;.;.;.;.;.;.;.;.;.;.;.;.;.;.;.;.;.;.;.;.;.;.;.;.;.;.;.;.;.",
";.;.;.;.;.;.;.;.;.;.;.;.;.;.;.;.;.;.;.;.;.;.;.;.;.;.;.;.;.;.;.;.;.;.;.;.;.;.;.;.;.;.;.;.;.;.;.;.;.;.;.;.;.;.;.;.;.;.;.;.;.;.;.;.",
";.;.;.;.;.;.;.;.;.;.;.;.;.;.;.;.;.;.;.;.;.;.;.;.;.;.;.;.;.;.;.;.;.;.;.;.;.;.;.;.;.;.;.;.;.;.:.;.;.;.;.;.;.;.;.;.;.;.;.;.;.;.;.;.",
";.;.;.;.;.;.;.;.;.;.;.;.;.;.;.;.;.;.;.;.;.;.;.;.;.;.;.;.;.;.;.;.;.;.;.;.;.;.;.;.;.;.;.;.;.;.;.;.;.;.;.;.;.;.;.;.;.;.;.;.;.;.;.;.",
";.;.;.;.;.;.;.;.;.;.;.;.;.;.;.;.;.;.;.;.;.;.;.;.;.;.;.;.;.;.;.;.;.;.;.;.;.;.;.;.;.;.;.;.;.;.;.;.;.;.;.;.;.;.;.;.;.;.;.;.;.;.;.;.",
";.;.;.;.;.;.;.;.;.;.;.;.;.;.;.;.;.;.;.;.;.;.;.;.;.;.;.;.;.;.;.;.;.;.;.;.;.;.;.;.;.;.;.;.;.;.;.;.;.;.;.;.;.;.;.;.;.;.;.;.;.;.;.;.",
";.;.;.;.;.;.;.;.;.;.;.;.;.;.;.;.;.;.;.;.;.;.;.;.;.;.;.;.;.;.;.;.;.;.;.;.;.;.;.;.;.;.;.;.;.;.;.;.;.;.;.;.;.;.;.;.;.;.;.;.;.;.;.;.",
";.;.;.;.;.;.;.;.;.;.;.;.;.;.;.;.;.;.;.;.;.;.;.;.;.;.;.;.;.;.;.;.;.;.;.;.;.;.;.;.;.;.;.;.;.;.;.;.;.;.;.;.;.;.;.;.;.;.;.;.;.;.;.;.",
";.;.;.;.;.;.;.;.;.;.;.;.;.;.;.;.;.;.;.;.;.;.;.;.;.;.;.;.;.;.;.;.;.;.;.;.;.;.;.;.;.;.;.;.;.;.;.;.;.;.;.;.;.;.;.;.;.;.;.;.;.;.;.;.",
";.;.;.;.;.;.;.;.;.;.;.;.;.;.;.;.;.;.;.;.;.;.;.;.;.;.:.,.:.:.-.:.-.<.:.:.:.:.;.;.;.;.;.;.;.;.;.;.;.;.;.;.;.;.;.;.;.;.;.;.;.;.;.;.",
";.;.;.;.;.;.;.;.;.;.;.;.;.;.;.;.;.;.;.;.;.;.;.;.;.,.,.1.=.=.6.6.6.8.6.8.2.1.-.:.;.;.;.;.;.;.;.;.;.;.;.;.;.;.;.;.;.;.;.;.;.;.;.;.",
";.;.;.;.;.;.;.;.;.;.;.;.;.;.;.;.;.;.;.;.;.;.;.:.,.1.7.w.%.d.d.d.d.f.f.g.i.&.q.5.,.;.;.;.;.;.;.;.;.;.;.;.;.;.;.;.;.;.;.;.;.;.;.;.",
";.;.;.;.;.;.;.;.;.;.;.;.;.;.;.;.;.;.;.;.;.;.;.>.2.$.] ; , ..O.O.O.O. .` ; % _ y.5.,.,.;.;.;.;.;.;.;.;.;.;.;.;.;.;.;.;.;.;.;.;.;.",
";.;.;.;.;.;.;.;.;.;.;.;.;.;.;.;.;.;.;.;.;.:.>.2.s.^ +.P.Y.U.U.U.B.z.o.A N X.= % t.3.,.;.;.;.;.;.;.;.;.;.;.;.;.;.;.;.;.;.;.;.;.;.",
";.;.;.;.;.;.;.;.;.;.;.;.;.;.;.;.;.;.;.;.;.,.5.&.- @.Y.T.W.W.~.A.x.G i V V B N : ^ t.4.;.;.;.;.;.;.;.;.;.;.;.;.;.;.;.;.;.;.;.;.;.",
";.;.;.;.;.;.;.;.;.;.;.;.;.;.;.;.;.;.;.;.:.1.9.] +./.T.Q.Q.Q.R.c.G i q q e s d n . [ p.>.,.;.;.;.;.;.;.;.;.;.;.;.;.;.;.;.;.;.;.;.",
";.;.;.;.;.;.;.;.;.;.;.;.;.;.;.;.;.;.;.;.:.2.#.o _.].'.'.].{.n.L u q t t e p w 9 M o u.5.,.;.;.;.;.;.;.;.;.;.;.;.;.;.;.;.;.;.;.;.",
";.;.;.;.;.;.;.;.;.;.;.;.;.;.;.;.;.;.;.;.,.9.- I.[.|.}.|.{.U.x.u y y f h f s a 3 b $ [ p.>.;.;.;.;.;.;.;.;.;.;.;.;.;.;.;.;.;.;.;.",
";.;.;.;.;.;.;.;.;.;.;.;.;.;.;.;.;.;.:.,.5.&.` =X%X&X$X$X@XD.H i y h f l l f s a 8 x   u.5.:.;.;.;.;.;.;.;.;.;.;.;.;.;.;.;.;.;.;.",
";.;.;.;.;.;.;.;.;.;.;.;.;.;.;.;.;.;.;.>.q.) L.-X>X>X<X>X.Xm.i y f h h h l l f s r 0 X | 3.:.:.;.;.;.;.;.;.;.;.;.;.;.;.;.;.;.;.;.",
";.;.;.;.;.;.;.;.;.;.;.;.;.;.;.;.;.;.,.4.t.% oX,X1X1X2X1XK.P u g h g h h h h l f a 9 m ( 9.>.;.;.;.;.;.;.;.;.;.;.;.;.;.;.;.;.;.;.",
";.;.;.;.;.;.;.;.;.;.;.;.;.;.;.;.;.,.,.5.#., +X2X2X2X3X2XD.j y h g h h h h h l k a 8 n & r.>.:.;.;.;.;.;.;.;.;.;.;.;.;.;.;.;.;.;.",
";.;.;.;.;.;.;.;.;.;.;.;.;.;.;.;.;.:.,.2.{ j.-X1X2X3X3X*Xm.y y g f f s g l f l l s 8 0   r.<.:.;.;.;.;.;.;.;.;.;.;.;.;.;.;.;.;.;.",
";.;.;.;.;.;.;.;.;.;.;.;.;.;.;.;.;.;.:.8._ I.-X1X2X2X2X Xm.u g f e e w w w w s l k a 0 + &.,.:.;.;.;.;.;.;.;.;.;.;.;.;.;.;.;.;.;.",
";.;.;.;.;.;.;.;.;.;.;.;.;.;.;.;.;.;.-.7.( oX-X>X<X<X<XK.R u g h s s p p p w k k h a 7 = y.<.;.;.;.;.;.;.;.;.;.;.;.;.;.;.;.;.;.;.",
";.;.;.;.;.;.;.;.;.;.;.;.;.;.;.;.;.:.,.7.; oX;X:X:X:X:XH.T u g h f k k k p w k k h s 5 : *.<.:.;.;.;.;.;.;.;.;.;.;.;.;.;.;.;.;.;.",
";.;.;.;.;.;.;.;.;.;.;.;.;.;.;.;.;.:.-.w.& OX%X#X#X#X$XF.H y j h f h l k f w s l l a 4 < *.<.:.;.;.;.;.;.;.;.;.;.;.;.;.;.;.;.;.;.",
";.;.;.;.;.;.;.;.;.;.;.;.;.;.;.;.;.;.-.w.@ XX}.{.{.{.@XM.G y j h f h l l s w f l l s 4 < *.<.;.;.;.;.;.;.;.;.;.;.;.;.;.;.;.;.;.;.",
";.;.;.;.;.;.;.;.;.;.;.;.;.;.;.;.;.;.1.w.@ (.).^.^.`.{.n.F u g h f g l f s e f h h a 4 < w.<.:.;.;.;.;.;.;.;.;.;.;.;.;.;.;.;.;.;.",
";.;.;.;.;.;.;.;.;.;.;.;.;.;.;.;.;.:.1.*.+ (.!.E.R.R.^.v.F u g g f l l l k w f l l t 4 1 *.1.;.;.;.;.;.;.;.;.;.;.;.;.;.;.;.;.;.;.",
";.;.;.;.;.;.;.;.;.;.;.;.;.;.;.;.;.:.<.w.+ F.G.S.S.J.R.c.F u g h y h h f s w f k l s 4 < *.1.;.;.;.;.;.;.;.;.;.;.;.;.;.;.;.;.;.;.",
";.;.;.;.;.;.;.;.;.;.;.;.;.;.;.;.;.;.<.s.@ F.A.Z.Z.Z.Z.Y J u g h f h k k k w f l h s 5 < y.1.:.;.;.;.;.;.;.;.;.;.;.;.;.;.;.;.;.;.",
";.;.;.;.;.;.;.;.;.;.;.;.;.;.;.;.;.;.:.w.= N.B.C.C.C.C.Y J u g l f f k l p w p z k r 5 : y.1.:.;.;.;.;.;.;.;.;.;.;.;.;.;.;.;.;.;.",
";.;.;.;.;.;.;.;.;.;.;.;.;.;.;.;.;.:.<.7.( z.n.n.V.V.V.Y J u g f p p p p p w k z k a 0 # y.<.;.;.;.;.;.;.;.;.;.;.;.;.;.;.;.;.;.;.",
";.;.;.;.;.;.;.;.;.;.;.;.;.;.;.;.;.:.:.7.' o.b.c.c.V.V.Y J u g l w w w w w w k k k 8 0 + y.<.;.;.;.;.;.;.;.;.;.;.;.;.;.;.;.;.;.;.",
";.;.;.;.;.;.;.;.;.;.;.;.;.;.;.;.;.;.:.8.} 1 l.k.! ! ! Q J u f g f h l l l k f k s 8 b   s.<.:.;.;.;.;.;.;.;.;.;.;.;.;.;.;.;.;.;.",
";.;.;.;.;.;.;.;.;.;.;.;.;.;.;.;.;.;.,.3.e.O l.U Y Q Q Q D j y g h h h h h h h f p 6 c & 0.,.:.;.;.;.;.;.;.;.;.;.;.;.;.;.;.;.;.;.",
";.;.;.;.;.;.;.;.;.;.;.;.;.;.;.;.;.;.;.5.t.o o.E U U U Q J D g g g h g h h h l f r 7 2 ( 9.,.;.;.;.;.;.;.;.;.;.;.;.;.;.;.;.;.;.;.",
";.;.;.;.;.;.;.;.;.;.;.;.;.;.;.;.;.;.:.>.p._ : S I P P P W D j t f l h h h l f a 3 b . | 3.,.;.;.;.;.;.;.;.;.;.;.;.;.;.;.;.;.;.;.",
";.;.;.;.;.;.;.;.;.;.;.;.;.;.;.;.;.;.;.,.5.y.@ N Z H J J R D j g f g z g h f s p 8 x . u.5.;.:.;.;.;.;.;.;.;.;.;.;.;.;.;.;.;.;.;.",
";.;.;.;.;.;.;.;.;.;.;.;.;.;.;.;.;.;.;.;.>.p.; > B Z i Z K T h h e f g f f s p 8 b # | p.>.;.:.;.;.;.;.;.;.;.;.;.;.;.;.;.;.;.;.;.",
";.;.;.;.;.;.;.;.;.;.;.;.;.;.;.;.;.;.;.:.,.5.e.  v V j j j ~ D j g e s e p p a 9 M % s.5.,.;.;.;.;.;.;.;.;.;.;.;.;.;.;.;.;.;.;.;.",
";.;.;.;.;.;.;.;.;.;.;.;.;.;.;.;.;.;.;.;.;.4.p.[ @ n V z j j R h j l f p w s d b . | 3.,.,.;.;.;.;.;.;.;.;.;.;.;.;.;.;.;.;.;.;.;.",
";.;.;.;.;.;.;.;.;.;.;.;.;.;.;.;.;.;.;.;.;.,.1.a.- = v V C C Z S k V d d d B c = / a.4.;.;.;.;.;.;.;.;.;.;.;.;.;.;.;.;.;.;.;.;.;.",
";.;.;.;.;.;.;.;.;.;.;.;.;.;.;.;.;.;.;.;.;.;.:.2.y./ . m c n n n n n n v c m . ^ p.4.,.;.;.;.;.;.;.;.;.;.;.;.;.;.;.;.;.;.;.;.;.;.",
";.;.;.;.;.;.;.;.;.;.;.;.;.;.;.;.;.;.;.;.;.;.;.>.2.a.[ - o . O O * * * * o - [ a.5.,.:.;.;.;.;.;.;.;.;.;.;.;.;.;.;.;.;.;.;.;.;.;.",
";.;.;.;.;.;.;.;.;.;.;.;.;.;.;.;.;.;.;.;.;.;.;.:.,.4.3.a.y.i.i.i.h.h.i.i.u.a.3.4.,.;.;.;.;.;.;.;.;.;.;.;.;.;.;.;.;.;.;.;.;.;.;.;.",
";.;.;.;.;.;.;.;.;.;.;.;.;.;.;.;.;.;.;.;.;.;.;.;.;.;.,.4.2.3.3.8.8.8.3.2.2.5.,.:.;.;.;.;.;.;.;.;.;.;.;.;.;.;.;.;.;.;.;.;.;.;.;.;.",
";.;.;.;.;.;.;.;.;.;.;.;.;.;.;.;.;.;.;.;.;.;.;.;.;.;.,.;.,.,.,.,.,.,.:.,.:.:.;.;.;.;.;.;.;.;.;.;.;.;.;.;.;.;.;.;.;.;.;.;.;.;.;.;.",
";.;.;.;.;.;.;.;.;.;.;.;.;.;.;.;.;.;.;.;.;.;.;.;.;.;.;.;.;.;.;.;.;.;.;.;.;.;.;.;.;.;.;.;.;.;.;.;.;.;.;.;.;.;.;.;.;.;.;.;.;.;.;.;.",
";.;.;.;.;.;.;.;.;.;.;.;.;.;.;.;.;.;.;.;.;.;.;.;.;.;.;.;.;.;.;.;.;.;.;.;.;.;.;.;.;.;.;.;.;.;.;.;.;.;.;.;.;.;.;.;.;.;.;.;.;.;.;.;.",
";.;.;.;.;.;.;.;.;.;.;.;.;.;.;.;.;.;.;.;.;.;.;.;.;.;.;.;.;.;.;.;.;.;.;.;.;.;.;.;.;.;.;.;.;.;.;.;.;.;.;.;.;.;.;.;.;.;.;.;.;.;.;.;.",
";.;.;.;.;.;.;.;.;.;.;.;.;.;.;.;.;.;.;.;.;.;.;.;.;.;.;.;.;.;.;.;.;.;.;.;.;.;.;.;.;.;.;.;.;.;.;.;.;.;.;.;.;.;.;.;.;.;.;.;.;.;.;.;.",
";.;.;.;.;.;.;.;.;.;.;.;.;.;.;.;.;.;.;.;.;.;.;.;.;.;.;.;.;.;.;.;.;.;.;.;.;.;.;.;.;.;.;.;.;.;.;.;.;.;.;.;.;.;.;.;.;.;.;.;.;.;.;.;.",
";.;.;.;.;.;.;.;.;.;.;.;.;.;.;.;.;.;.;.;.;.;.;.;.;.;.;.;.;.;.;.;.;.;.;.;.;.;.;.;.;.;.;.;.;.;.;.;.;.;.;.;.;.;.;.;.;.;.;.;.;.;.;.;.",
";.;.;.;.;.;.;.;.;.;.;.;.;.;.;.;.;.;.;.;.;.;.;.;.;.;.;.;.;.;.;.;.;.;.;.;.;.;.;.;.;.;.;.;.;.;.;.;.;.;.;.;.;.;.;.;.;.;.;.;.;.;.;.;.",
";.;.;.;.;.;.;.;.;.;.;.;.;.;.;.;.;.;.;.;.;.;.;.;.;.;.;.;.;.;.;.;.;.;.;.;.;.;.;.;.;.;.;.;.;.;.;.;.;.;.;.;.;.;.;.;.;.;.;.;.;.;.;.;.",
";.;.;.;.;.;.;.;.;.;.;.;.;.;.;.;.;.;.;.;.;.;.;.;.;.;.;.;.;.;.;.;.;.;.;.;.;.;.;.;.;.;.;.;.;.;.;.;.;.;.;.;.;.;.;.;.;.;.;.;.;.;.;.;.",
";.;.;.;.;.;.;.;.;.;.;.;.;.;.;.;.;.;.;.;.;.;.;.;.;.;.;.;.;.;.;.;.;.;.;.;.;.;.;.;.;.;.;.;.;.;.;.;.;.;.;.;.;.;.;.;.;.;.;.;.;.;.;.;.",
";.;.;.;.;.;.;.;.;.;.;.;.;.;.;.;.;.;.;.;.;.;.;.;.;.;.;.;.;.;.;.;.;.;.;.;.;.;.;.;.;.;.;.;.;.;.;.;.;.;.;.;.;.;.;.;.;.;.;.;.;.;.;.;."
};
