/* XPM */
static char *out[] = {
/* columns rows colors chars-per-pixel */
"64 64 223 2 ",
"   c #0A5700",
".  c #185B00",
"X  c #285F00",
"o  c #0A6500",
"O  c #0A6B00",
"+  c #1A6700",
"@  c #166B00",
"#  c #097800",
"$  c #127700",
"%  c #1A7400",
"&  c #1D7C00",
"*  c #266500",
"=  c #386800",
"-  c #257300",
";  c #277600",
":  c #3B7500",
">  c #775D0D",
",  c #496A06",
"<  c #5A650D",
"1  c #526D0D",
"2  c #596F0F",
"3  c #4B7806",
"4  c #6C630D",
"5  c #72610A",
"6  c #636711",
"7  c #6F6111",
"8  c #786912",
"9  c #677312",
"0  c #757515",
"q  c #707D24",
"w  c #8F6C04",
"e  c #906900",
"r  c #987707",
"t  c #886B13",
"y  c #916D15",
"u  c #897819",
"i  c #987619",
"p  c #A17C0B",
"a  c #A07A1D",
"s  c #A67F22",
"d  c #0F8900",
"f  c #148900",
"g  c #1B8C00",
"h  c #0E9500",
"j  c #189500",
"k  c #1C9C00",
"l  c #268700",
"z  c #328800",
"x  c #249700",
"c  c #379800",
"v  c #18A703",
"b  c #1CB604",
"n  c #25A903",
"m  c #36A500",
"M  c #23BC08",
"N  c #24B412",
"B  c #458700",
"V  c #568708",
"C  c #489400",
"Z  c #4C9E00",
"A  c #4F9610",
"S  c #618715",
"D  c #7A841D",
"F  c #44A500",
"G  c #62AD09",
"H  c #69A913",
"J  c #76BE18",
"K  c #768626",
"L  c #78B22D",
"P  c #23C807",
"I  c #28CA17",
"U  c #2CCF15",
"Y  c #29D918",
"T  c #3BDD15",
"R  c #35DF1D",
"E  c #39DE19",
"W  c #1BEE0E",
"Q  c #00FF01",
"!  c #0AF906",
"~  c #0EF609",
"^  c #0AF908",
"/  c #0BF909",
"(  c #12F40C",
")  c #18F00D",
"_  c #1CED13",
"`  c #1DEC18",
"'  c #16F111",
"]  c #19F011",
"[  c #23EB0C",
"{  c #29E416",
"}  c #23EA15",
"|  c #25E51C",
" . c #2CE31B",
".. c #24E91A",
"X. c #30E317",
"o. c #32E01D",
"O. c #2ADF20",
"+. c #35DE21",
"@. c #3CDA26",
"#. c #31E020",
"$. c #46D913",
"%. c #79AC42",
"&. c #87821F",
"*. c #AB830C",
"=. c #A68414",
"-. c #AB8512",
";. c #A7891A",
":. c #B08714",
">. c #B48916",
",. c #B08D1B",
"<. c #AF921F",
"1. c #B7911B",
"2. c #878827",
"3. c #978524",
"4. c #8F942D",
"5. c #8E9A36",
"6. c #A48122",
"7. c #A68C26",
"8. c #B38F28",
"9. c #B8972A",
"0. c #A79939",
"q. c #85B72A",
"w. c #8AA438",
"e. c #98B833",
"r. c #BCA72A",
"t. c #BDA230",
"y. c #C39C24",
"u. c #C29B32",
"i. c #C8A62C",
"p. c #CDAA2A",
"a. c #C7A937",
"s. c #D8AD30",
"d. c #D2AC3E",
"f. c #CBB538",
"g. c #D8B738",
"h. c #E3BE37",
"j. c #E4BE3A",
"k. c #A8CC3F",
"l. c #E5C13C",
"z. c #EBC13E",
"x. c #9FA041",
"c. c #9BB546",
"v. c #A8AF4B",
"b. c #B0AE49",
"n. c #CDB345",
"m. c #D8B845",
"M. c #D7BC50",
"N. c #E5BD42",
"B. c #E3BD4B",
"V. c #B5D24D",
"C. c #ADC969",
"Z. c #DCC243",
"A. c #DDC64F",
"S. c #C8DA4B",
"D. c #DCC656",
"F. c #C5DC57",
"G. c #D8D258",
"H. c #E4C544",
"J. c #EBC645",
"K. c #E7C842",
"L. c #EACA44",
"P. c #EBC54B",
"I. c #E9C849",
"U. c #F3CB45",
"Y. c #F2CC4B",
"T. c #F6CC4A",
"R. c #E8D14D",
"E. c #F9D046",
"W. c #F6D14D",
"Q. c #FCD44D",
"!. c #FCD84E",
"~. c #E8C754",
"^. c #EFCB54",
"/. c #F3CD52",
"(. c #F1CC5A",
"). c #E6D551",
"_. c #F4D354",
"`. c #FBD554",
"'. c #F5DA53",
"]. c #FEDC53",
"[. c #F3D15B",
"{. c #FBD55A",
"}. c #F3D85B",
"|. c #FDDC5B",
" X c #CBE556",
".X c #FFE157",
"XX c #FEE35B",
"oX c #DAC565",
"OX c #CFD26B",
"+X c #D8DB67",
"@X c #E8D765",
"#X c #F3D766",
"$X c #FCDC61",
"%X c #E5D875",
"&X c #F2DE77",
"*X c #CBEA68",
"=X c #E9E567",
"-X c #FFE462",
";X c #FFEB67",
":X c #F7E36A",
">X c #FFEC6B",
",X c #F1F16D",
"<X c #E9E474",
"1X c #FEEB75",
"2X c #F5E779",
"3X c #FFEC7D",
"4X c #EBF772",
"5X c #FFF372",
"6X c #FFF379",
"7X c #FFFA7B",
"8X c #E4DA81",
"9X c #D8F791",
"0X c #FAE887",
"qX c #FDEB86",
"wX c #FFF382",
"eX c #FEF38B",
"rX c #E8FA97",
"tX c #FEF394",
"yX c #FBF89A",
"uX c #FFF89D",
"iX c #EEFFAD",
"pX c #FFFBA2",
"aX c #F5FFA8",
/* pixels */
"Q Q Q Q Q Q Q Q Q Q Q Q Q Q Q Q Q Q Q Q Q Q Q Q Q Q Q Q Q Q Q Q Q Q Q Q Q Q Q Q Q Q Q Q Q Q Q Q Q Q Q Q Q Q Q Q Q Q Q Q Q Q Q Q ",
"Q Q Q Q Q Q Q Q Q Q Q Q Q Q Q Q Q Q Q Q Q Q Q Q Q Q Q Q Q Q Q Q Q Q Q Q Q Q Q Q Q Q Q Q Q Q Q Q Q Q Q Q Q Q Q Q Q Q Q Q Q Q Q Q ",
"Q Q Q Q Q Q Q Q Q Q Q Q Q Q Q Q Q Q Q Q Q Q Q Q Q Q Q Q Q Q Q Q Q Q Q Q Q Q Q Q Q Q Q Q Q Q Q Q Q Q Q Q Q Q Q Q Q Q Q Q Q Q Q Q ",
"Q Q Q Q Q Q Q Q Q Q Q Q Q Q Q Q Q Q Q Q Q Q Q Q Q Q Q Q Q Q Q Q Q Q Q Q Q Q Q Q Q Q Q Q Q Q Q Q Q Q Q Q Q Q Q Q Q Q Q Q Q Q Q Q ",
"Q Q Q Q Q Q Q Q Q Q Q Q Q Q Q Q Q Q Q Q Q Q Q Q Q Q Q Q Q Q Q Q Q Q Q Q Q Q Q Q Q Q Q Q Q Q Q Q Q Q Q Q Q Q Q Q Q Q Q Q Q Q Q Q ",
"Q Q Q Q Q Q Q Q Q Q Q Q Q Q Q Q Q Q Q Q Q Q Q Q Q Q Q Q Q Q Q Q Q Q Q Q Q Q Q Q Q Q Q Q Q Q Q Q Q Q Q Q Q Q Q Q Q Q Q Q Q Q Q Q ",
"Q Q Q Q Q Q Q Q Q Q Q Q Q Q Q Q Q Q Q Q Q Q Q Q Q Q Q Q Q Q Q Q Q Q Q Q Q Q Q Q Q Q Q Q Q Q Q Q Q Q Q Q Q Q Q Q Q Q Q Q Q Q Q Q ",
"Q Q Q Q Q Q Q Q Q Q Q Q Q Q Q Q Q Q Q Q Q Q Q Q Q Q Q Q Q Q Q Q Q Q Q Q Q Q Q Q Q Q Q Q Q Q Q Q Q Q Q Q Q Q Q Q Q Q Q Q Q Q Q Q ",
"Q Q Q Q Q Q Q Q Q Q Q Q Q Q Q Q Q Q Q Q Q Q Q Q Q Q Q Q Q Q Q Q Q Q Q Q Q Q Q Q Q Q Q Q Q Q Q Q Q Q Q Q Q Q Q Q Q Q Q Q Q Q Q Q ",
"Q Q Q Q Q Q Q Q Q Q Q Q Q Q Q Q Q Q Q Q Q Q Q Q Q Q Q Q Q Q Q Q Q Q Q Q Q Q Q Q Q Q Q Q Q Q Q Q Q Q Q Q Q Q Q Q Q Q Q Q Q Q Q Q ",
"Q Q Q Q Q Q Q Q Q Q Q Q Q Q Q Q Q Q Q Q Q Q Q Q Q Q Q Q Q Q Q Q Q Q Q Q Q Q Q Q Q Q Q Q Q Q Q Q Q Q Q Q Q Q Q Q Q Q Q Q Q Q Q Q ",
"Q Q Q Q Q Q Q Q Q Q Q Q Q Q Q Q Q Q Q Q Q Q Q Q Q Q Q ! Q ! Q ! Q ! ! Q Q ^ Q Q Q Q Q Q Q Q Q Q Q Q Q Q Q Q Q Q Q Q Q Q Q Q Q Q ",
"Q Q Q Q Q Q Q Q Q Q Q Q Q Q Q Q Q Q Q Q Q Q Q Q Q ! ! ! / ~ ~ ~ ( ~ ~ ~ ~ ~ / ^ ^ Q Q Q Q Q Q Q Q Q Q Q Q Q Q Q Q Q Q Q Q Q Q Q ",
"Q Q Q Q Q Q Q Q Q Q Q Q Q Q Q Q Q Q Q Q Q Q ! ^ ) ] [ { X.X.X.o.R o.#.O. ...| ` ' ~ ^ Q Q Q Q Q Q Q Q Q Q Q Q Q Q Q Q Q Q Q Q Q ",
"Q Q Q Q Q Q Q Q Q Q Q Q Q Q Q Q Q Q Q Q Q ^ ~ ] ` Y n g & @ ; ; - +     O g n I O.` ' ^ ^ Q Q Q Q Q Q Q Q Q Q Q Q Q Q Q Q Q Q Q ",
"Q Q Q Q Q Q Q Q Q Q Q Q Q Q Q Q Q Q Q Q ~ ' } Y h d L *X9XrXrXrXaXiXiX9XC.%.A o # M | ` ~ ^ Q Q Q Q Q Q Q Q Q Q Q Q Q Q Q Q Q Q ",
"Q Q Q Q Q Q Q Q Q Q Q Q Q Q Q Q Q Q Q ! ] { v l H  X4X4X,X<X2X2X2XeXyXpXaXrXC.c.S - g U ..~ ^ Q Q Q Q Q Q Q Q Q Q Q Q Q Q Q Q Q ",
"Q Q Q Q Q Q Q Q Q Q Q Q Q Q Q Q Q Q ! ) Y k z V.=X,X=XG.a.;.w r 7.M.&X0XtXpXpXOXx.w.: $ P ..( ^ Q Q Q Q Q Q Q Q Q Q Q Q Q Q Q Q ",
"Q Q Q Q Q Q Q Q Q Q Q Q Q Q Q Q Q ! W U x C V.4X@Xm.t.,.=.-.=.=.=.r w 7.oX0XuXpX8Xb.5.V & N ..' ! Q Q Q Q Q Q Q Q Q Q Q Q Q Q Q ",
"Q Q Q Q Q Q Q Q Q Q Q Q Q Q Q Q ! ) { n Z V.=X~.a.,.;.a.~.}.$X#X$X(.M.8.i u.&XtXpX%X0.4.3 % b ..( Q Q Q Q Q Q Q Q Q Q Q Q Q Q Q ",
"Q Q Q Q Q Q Q Q Q Q Q Q Q Q Q ! ~ { n z V.=XA.9.,.i.(.$X-X-X-X-X-X-X;X|.Z.<.t.%XtXtXoX0.2.3 x U _ ^ Q Q Q Q Q Q Q Q Q Q Q Q Q Q ",
"Q Q Q Q Q Q Q Q Q Q Q Q Q Q Q ^ W P c q.+Xm.,.9.m.|.|.|.XX.X.X.XXX-X-X-X-X}.t.a.&XeX0Xb.3.D * j Y ( ! Q Q Q Q Q Q Q Q Q Q Q Q Q ",
"Q Q Q Q Q Q Q Q Q Q Q Q Q Q Q ( { n G +Xm.r *.m.{.|.XX|..X].].XX.X.X.XXXXX-X].9.a.&X0X%X0.2.9 l b } ^ Q Q Q Q Q Q Q Q Q Q Q Q Q ",
"Q Q Q Q Q Q Q Q Q Q Q Q Q Q ! W P z e.G.<.p d.{.|.].].|.].].].].].|.XX.XXXXXXX_.f.~.qX0Xn.u D : k  .' Q Q Q Q Q Q Q Q Q Q Q Q Q ",
"Q Q Q Q Q Q Q Q Q Q Q Q Q Q ( } k C +Xg.p y./.{.].`.T././././././._./.T.`.].|.XXZ.g.:X3XD.3.u 1 % b ] ^ Q Q Q Q Q Q Q Q Q Q Q Q ",
"Q Q Q Q Q Q Q Q Q Q Q Q Q Q ( X.m q.G.9.,.N.|.|.{.g.1.>.>.>.:.:.:.=.*.p y.J.|.XX|.f.Z.6X2Xt.t 9 + h ..~ ! Q Q Q Q Q Q Q Q Q Q Q ",
"Q Q Q Q Q Q Q Q Q Q Q Q Q ! ) T F V.n.=.i.(.].XX$Xg.r e e e e e e e e e =.j.].XX.XK.Z.:X2Xn.y 0 = g  .( ! Q Q Q Q Q Q Q Q Q Q Q ",
"Q Q Q Q Q Q Q Q Q Q Q Q Q ! ) $.F V.r.-.N.|.]..X-XP.i.B.^.(.(.(.(.(.(.^.g.l.]..XXX].L.'.1XM.i 9 3 l  .( ! Q Q Q Q Q Q Q Q Q Q Q ",
"Q Q Q Q Q Q Q Q Q Q Q Q Q ! [ $.Z  Xr.1.z.!.]..X-XH.f.^.|.|.|.|.|.XX-X|.j.j.].XX.X.XR.R.:X~.6.5 , & +.] ! Q Q Q Q Q Q Q Q Q Q Q ",
"Q Q Q Q Q Q Q Q Q Q Q Q Q ! [ $.G S.i.p.T.].]..XXXI.p.Y.|.]..X].XXXX|.|.z.l.]..X.X.Xl.K.$XM.;.4 1 $ @.] ! Q Q Q Q Q Q Q Q Q Q Q ",
"Q Q Q Q Q Q Q Q Q Q Q Q Q ! [ $.J S.i.s.W.!.].].XXH.p.Y.]..X.X.X].].|.].h.l.]..X.XXXK.H.$XB.6.5 1 @ @._ ! Q Q Q Q Q Q Q Q Q Q Q ",
"Q Q Q Q Q Q Q Q Q Q Q Q Q ! [ $.J S.f.g.W.!.].].-XI.p.L.].].]..X].XX].].h.h.]..XXXXXK.P.{.B.s 5 2 @ @._ ! Q Q Q Q Q Q Q Q Q Q Q ",
"Q Q Q Q Q Q Q Q Q Q Q Q Q ! [ $.J S.g.N.Q.!.!..XXXl.p.Y.].].].]..X.X].].j.j.].]..X.XL.J.[.m.a > 1 @ @._ ^ Q Q Q Q Q Q Q Q Q Q Q ",
"Q Q Q Q Q Q Q Q Q Q Q Q Q ! [ $.J S.H.J.Q.!.!.].-XH.p.Y.].!.!.]..X!.].].j.j.]..X.X.XL.L./.a.i 4 1 @ @._ ^ Q Q Q Q Q Q Q Q Q Q Q ",
"Q Q Q Q Q Q Q Q Q Q Q Q Q ! [ $.G  XR.J.Q.Q.!.].XXH.p.J.!.]..X!.!.!.].].j.h.].]..X].L.I.P.u.y > 1 % @._ ^ Q Q Q Q Q Q Q Q Q Q Q ",
"Q Q Q Q Q Q Q Q Q Q Q Q Q ! [ $.Z  XR.J.Q.Q.!.].-XN.p.L.!.!.!.].].].].].j.j.].].].].Y.Y.B.u.y > , & +._ ^ Q Q Q Q Q Q Q Q Q Q Q ",
"Q Q Q Q Q Q Q Q Q Q Q Q Q ! W T C F.).L.`.Q.!.`.-XH.i.H.).'.'.'.'.'.'._.h.j.`.].].!.Y./.B.6.t 7 , l #.' ! Q Q Q Q Q Q Q Q Q Q Q ",
"Q Q Q Q Q Q Q Q Q Q Q Q Q ! ) T Z k.=X|.|.W.`.].-X$X}.>X>X;X;X;X>X;X>X;XJ.j.].].].T.Y._.d.y > 7 = g O.' ! Q Q Q Q Q Q Q Q Q Q Q ",
"Q Q Q Q Q Q Q Q Q Q Q Q Q ! ( X.c q.=X1X-X[._.].;X5X7XwX7X7X7X7X7X7X7X5X;X|.].].`.J.U.B.9.y > 6 + d ../ Q Q Q Q Q Q Q Q Q Q Q Q ",
"Q Q Q Q Q Q Q Q Q Q Q Q Q ! ~ ..k B F.1X1X:X_.'.|.:X>X5X5X5X5X5X5X5X5X5X;XXX].`.T.U.{.d.a > 7 , @ v ` / Q Q Q Q Q Q Q Q Q Q Q Q ",
"Q Q Q Q Q Q Q Q Q Q Q Q Q Q ^ ] b l e.=X6X2X}.}.{.{.|.|.XXXXXXXXXXXXXXXX].].].`.T.T.B.8.y 7 6 X g Y ' ! Q Q Q Q Q Q Q Q Q Q Q Q ",
"Q Q Q Q Q Q Q Q Q Q Q Q Q Q Q ( Y n V OXwXeX1X@X[.(.`.].].'.!.]..X'.'..X`.Q.!.j.J.{.n.a t 7 1 - v ..~ Q Q Q Q Q Q Q Q Q Q Q Q Q ",
"Q Q Q Q Q Q Q Q Q Q Q Q Q Q Q ^ _ b z L +XeXtXqX#X(.`.Q.Q.Q.Q.`.!.!.!.!.Q.Q.U.T.`.d.s t > < . d Y ' ! Q Q Q Q Q Q Q Q Q Q Q Q Q ",
"Q Q Q Q Q Q Q Q Q Q Q Q Q Q Q ! ( { j ; c.<XtXuXtX#X(.(.W.`.W.!.!.E.!.E.E.U.U.`.B.8.y > 6 = f N ` ^ Q Q Q Q Q Q Q Q Q Q Q Q Q Q ",
"Q Q Q Q Q Q Q Q Q Q Q Q Q Q Q Q ^ ) Y x B v.<XtXpXtX0X@X(.[./.E.E.E.E.E.U.E.{.B.8.y > 6 = + v ../ ^ Q Q Q Q Q Q Q Q Q Q Q Q Q Q ",
"Q Q Q Q Q Q Q Q Q Q Q Q Q Q Q Q Q ~ _ P g : c.OX0XtXtXeX1X$X|.|.].].].].`.{.m.8.i 8 < , @ k | ' ^ Q Q Q Q Q Q Q Q Q Q Q Q Q Q Q ",
"Q Q Q Q Q Q Q Q Q Q Q Q Q Q Q Q Q ! ~ _ U j ; x.OX%X2XwXwX6X>X-XXX-XXX|.[.a.;.u 8 2 X o v Y ' / Q Q Q Q Q Q Q Q Q Q Q Q Q Q Q Q ",
"Q Q Q Q Q Q Q Q Q Q Q Q Q Q Q Q Q Q Q ~ _ I j % V 5.F.+X%X<X<X#X#X@XD.b.7.&.0 9 , . $ N | ] ^ Q Q Q Q Q Q Q Q Q Q Q Q Q Q Q Q Q ",
"Q Q Q Q Q Q Q Q Q Q Q Q Q Q Q Q Q Q Q ! / _ | M # + 3 K 5.v.b.v.x.2.u q K 2 =   o v Y ` ( ^ Q Q Q Q Q Q Q Q Q Q Q Q Q Q Q Q Q Q ",
"Q Q Q Q Q Q Q Q Q Q Q Q Q Q Q Q Q Q Q Q Q ! ( ` Y N g O   X = : = X X     o g N I ` ] ^ Q Q Q Q Q Q Q Q Q Q Q Q Q Q Q Q Q Q Q Q ",
"Q Q Q Q Q Q Q Q Q Q Q Q Q Q Q Q Q Q Q Q Q ! ! ~ ' } .. .X.E E T +.E R R +. .| ..' ( ^ ! Q Q Q Q Q Q Q Q Q Q Q Q Q Q Q Q Q Q Q Q ",
"Q Q Q Q Q Q Q Q Q Q Q Q Q Q Q Q Q Q Q Q Q Q Q Q ! ! / / ~ ~ ( ~ ( ( ( ~ ~ ~ ~ ^ ^ Q Q ! Q Q Q Q Q Q Q Q Q Q Q Q Q Q Q Q Q Q Q Q ",
"Q Q Q Q Q Q Q Q Q Q Q Q Q Q Q Q Q Q Q Q Q Q Q Q Q Q ! Q Q ! Q ! ! Q ! Q ^ Q ^ Q Q Q Q Q Q Q Q Q Q Q Q Q Q Q Q Q Q Q Q Q Q Q Q Q ",
"Q Q Q Q Q Q Q Q Q Q Q Q Q Q Q Q Q Q Q Q Q Q Q Q Q Q Q Q Q Q Q Q Q Q Q Q Q Q Q Q Q Q Q Q Q Q Q Q Q Q Q Q Q Q Q Q Q Q Q Q Q Q Q Q ",
"Q Q Q Q Q Q Q Q Q Q Q Q Q Q Q Q Q Q Q Q Q Q Q Q Q Q Q Q Q Q Q Q Q Q Q Q Q Q Q Q Q Q Q Q Q Q Q Q Q Q Q Q Q Q Q Q Q Q Q Q Q Q Q Q ",
"Q Q Q Q Q Q Q Q Q Q Q Q Q Q Q Q Q Q Q Q Q Q Q Q Q Q Q Q Q Q Q Q Q Q Q Q Q Q Q Q Q Q Q Q Q Q Q Q Q Q Q Q Q Q Q Q Q Q Q Q Q Q Q Q ",
"Q Q Q Q Q Q Q Q Q Q Q Q Q Q Q Q Q Q Q Q Q Q Q Q Q Q Q Q Q Q Q Q Q Q Q Q Q Q Q Q Q Q Q Q Q Q Q Q Q Q Q Q Q Q Q Q Q Q Q Q Q Q Q Q ",
"Q Q Q Q Q Q Q Q Q Q Q Q Q Q Q Q Q Q Q Q Q Q Q Q Q Q Q Q Q Q Q Q Q Q Q Q Q Q Q Q Q Q Q Q Q Q Q Q Q Q Q Q Q Q Q Q Q Q Q Q Q Q Q Q ",
"Q Q Q Q Q Q Q Q Q Q Q Q Q Q Q Q Q Q Q Q Q Q Q Q Q Q Q Q Q Q Q Q Q Q Q Q Q Q Q Q Q Q Q Q Q Q Q Q Q Q Q Q Q Q Q Q Q Q Q Q Q Q Q Q ",
"Q Q Q Q Q Q Q Q Q Q Q Q Q Q Q Q Q Q Q Q Q Q Q Q Q Q Q Q Q Q Q Q Q Q Q Q Q Q Q Q Q Q Q Q Q Q Q Q Q Q Q Q Q Q Q Q Q Q Q Q Q Q Q Q ",
"Q Q Q Q Q Q Q Q Q Q Q Q Q Q Q Q Q Q Q Q Q Q Q Q Q Q Q Q Q Q Q Q Q Q Q Q Q Q Q Q Q Q Q Q Q Q Q Q Q Q Q Q Q Q Q Q Q Q Q Q Q Q Q Q ",
"Q Q Q Q Q Q Q Q Q Q Q Q Q Q Q Q Q Q Q Q Q Q Q Q Q Q Q Q Q Q Q Q Q Q Q Q Q Q Q Q Q Q Q Q Q Q Q Q Q Q Q Q Q Q Q Q Q Q Q Q Q Q Q Q ",
"Q Q Q Q Q Q Q Q Q Q Q Q Q Q Q Q Q Q Q Q Q Q Q Q Q Q Q Q Q Q Q Q Q Q Q Q Q Q Q Q Q Q Q Q Q Q Q Q Q Q Q Q Q Q Q Q Q Q Q Q Q Q Q Q ",
"Q Q Q Q Q Q Q Q Q Q Q Q Q Q Q Q Q Q Q Q Q Q Q Q Q Q Q Q Q Q Q Q Q Q Q Q Q Q Q Q Q Q Q Q Q Q Q Q Q Q Q Q Q Q Q Q Q Q Q Q Q Q Q Q "
};
