/* XPM */
static char *out[] = {
/* columns rows colors chars-per-pixel */
"64 64 214 2 ",
"   c #0D4E00",
".  c #015700",
"X  c #0D5100",
"o  c #005C00",
"O  c #0C5D00",
"+  c #145900",
"@  c #2B5A00",
"#  c #0E6400",
"$  c #066900",
"%  c #046C00",
"&  c #156900",
"*  c #047700",
"=  c #117200",
"-  c #1B7300",
";  c #157900",
":  c #276900",
">  c #3B6603",
",  c #297801",
"<  c #3A730B",
"1  c #4A5F13",
"2  c #565C18",
"3  c #7E5A0D",
"4  c #6E5F13",
"5  c #755E14",
"6  c #7A5B12",
"7  c #476909",
"8  c #566809",
"9  c #596711",
"0  c #647A06",
"q  c #636514",
"w  c #6D6214",
"e  c #64641D",
"r  c #776517",
"t  c #66741D",
"y  c #815600",
"u  c #865B05",
"i  c #825F12",
"p  c #886308",
"a  c #946B06",
"s  c #9A7309",
"d  c #876616",
"f  c #8C6613",
"g  c #976E14",
"h  c #936D1B",
"j  c #897413",
"k  c #997719",
"l  c #A17C0F",
"z  c #AC7A11",
"x  c #A57B1C",
"c  c #816E23",
"v  c #8C7427",
"b  c #9E7620",
"n  c #967C29",
"m  c #A57C20",
"M  c #0B8200",
"N  c #0B8C00",
"B  c #138300",
"V  c #178F00",
"C  c #0A9300",
"Z  c #139700",
"A  c #139C00",
"S  c #189B00",
"D  c #258400",
"F  c #378900",
"G  c #269800",
"H  c #3C9701",
"J  c #329900",
"K  c #15A000",
"L  c #18A901",
"P  c #1BB501",
"I  c #1FBA02",
"U  c #21A500",
"Y  c #20BF0A",
"T  c #4F8000",
"R  c #448E01",
"E  c #588800",
"W  c #479508",
"Q  c #59960A",
"!  c #588D16",
"~  c #509E15",
"^  c #6F8716",
"/  c #699212",
"(  c #779817",
")  c #43A019",
"_  c #70A51E",
"`  c #7A8B26",
"'  c #6E9720",
"]  c #77A528",
"[  c #67A532",
"{  c #1FC20A",
"}  c #1FC310",
"|  c #22CF0E",
" . c #2CCE11",
".. c #29D817",
"X. c #34DF1E",
"o. c #1AEF0F",
"O. c #00FF01",
"+. c #09FA06",
"@. c #0EF60A",
"#. c #0BF809",
"$. c #13F40C",
"%. c #18F20E",
"&. c #16EF13",
"*. c #1CED15",
"=. c #1CED19",
"-. c #14F212",
";. c #18F012",
":. c #25E413",
">. c #2AE216",
",. c #22EA14",
"<. c #25E61A",
"1. c #2BE31C",
"2. c #23E91B",
"3. c #31E11E",
"4. c #34DE22",
"5. c #35DC2C",
"6. c #3DD734",
"7. c #3AD836",
"8. c #27E524",
"9. c #2CE222",
"0. c #41D62E",
"q. c #42D531",
"w. c #878A18",
"e. c #998C1E",
"r. c #84971D",
"t. c #A9861C",
"y. c #B78A1D",
"u. c #9D832C",
"i. c #979525",
"p. c #8D9330",
"a. c #AD8224",
"s. c #A68927",
"d. c #B28524",
"f. c #B48B22",
"g. c #BB8C23",
"h. c #B98C2A",
"j. c #BB9529",
"k. c #AA9A30",
"l. c #86A427",
"z. c #95AA28",
"x. c #8FBB31",
"c. c #A5A52B",
"v. c #A9AE32",
"b. c #B8A833",
"n. c #BAB33A",
"m. c #C08F21",
"M. c #C39326",
"N. c #C99727",
"B. c #CC9A26",
"V. c #C3952C",
"C. c #CC9C2D",
"Z. c #D39C25",
"A. c #D39E2A",
"S. c #D89F2B",
"D. c #C89730",
"F. c #CC9D32",
"G. c #D19F31",
"H. c #C8A32F",
"J. c #D4A22C",
"K. c #DAA32A",
"L. c #D9A62B",
"P. c #CDA134",
"I. c #CAA839",
"U. c #D4A433",
"Y. c #D5AB34",
"T. c #DAA933",
"R. c #D6AA3A",
"E. c #DBAE3A",
"W. c #C9B237",
"Q. c #D6B43C",
"!. c #DDB33D",
"~. c #E0A72D",
"^. c #E1A82D",
"/. c #E5B339",
"(. c #ECB438",
"). c #B6C43E",
"_. c #8A9E45",
"`. c #959C45",
"'. c #83AE44",
"]. c #D2AC44",
"[. c #D2AF4B",
"{. c #D5B345",
"}. c #DAB74A",
"|. c #DAB755",
" X c #E2BB45",
".X c #E5BA4A",
"XX c #F0BD41",
"oX c #E1BD50",
"OX c #B4C84C",
"+X c #B2D06F",
"@X c #CFC245",
"#X c #E7C34C",
"$X c #F2C64B",
"%X c #F5C64B",
"&X c #F5CA4D",
"*X c #E3C35C",
"=X c #F6CC52",
"-X c #F6CD58",
";X c #ECD055",
":X c #F4D459",
">X c #E4CA6A",
",X c #F3CB62",
"<X c #F8D667",
"1X c #FED96E",
"2X c #FADB73",
"3X c #F9E166",
"4X c #E0E570",
"5X c #FBE579",
"6X c #FFE17D",
"7X c #EEDB86",
"8X c #DAE487",
"9X c #ECEA8D",
"0X c #F8E984",
"qX c #F3EB96",
/* pixels */
"O.O.O.O.O.O.O.O.O.O.O.O.O.O.O.O.O.O.O.O.O.O.O.O.O.O.O.O.O.O.O.O.O.O.O.O.O.O.O.O.O.O.O.O.O.O.O.O.O.O.O.O.O.O.O.O.O.O.O.O.O.O.O.O.",
"O.O.O.O.O.O.O.O.O.O.O.O.O.O.O.O.O.O.O.O.O.O.O.O.O.O.O.O.O.O.O.O.O.O.O.O.O.O.O.O.O.O.O.O.O.O.O.O.O.O.O.O.O.O.O.O.O.O.O.O.O.O.O.O.",
"O.O.O.O.O.O.O.O.O.O.O.O.O.O.O.O.O.O.O.O.O.O.O.O.O.O.O.O.O.O.O.O.O.O.O.O.O.O.O.O.O.O.O.O.O.O.O.O.O.O.O.O.O.O.O.O.O.O.O.O.O.O.O.O.",
"O.O.O.O.O.O.O.O.O.O.O.O.O.O.O.O.O.O.O.O.O.O.O.O.O.O.O.O.O.O.O.O.O.O.O.O.O.O.O.O.O.O.O.O.O.O.O.O.O.O.O.O.O.O.O.O.O.O.O.O.O.O.O.O.",
"O.O.O.O.O.O.O.O.O.O.O.O.O.O.O.O.O.O.O.O.O.O.O.O.O.O.O.O.O.O.O.O.O.O.O.O.O.O.O.O.O.O.O.O.O.O.O.O.O.O.O.O.O.O.O.O.O.O.O.O.O.O.O.O.",
"O.O.O.O.O.O.O.O.O.O.O.O.O.O.O.O.O.O.O.O.O.O.O.O.O.O.O.O.O.O.O.O.O.O.O.O.O.O.O.O.O.O.O.O.O.O.O.O.O.O.O.O.O.O.O.O.O.O.O.O.O.O.O.O.",
"O.O.O.O.O.O.O.O.O.O.O.O.O.O.O.O.O.O.O.O.O.O.O.O.O.O.O.O.O.O.O.O.O.O.O.O.O.O.O.O.O.O.O.O.O.O.O.O.O.O.O.O.O.O.O.O.O.O.O.O.O.O.O.O.",
"O.O.O.O.O.O.O.O.O.O.O.O.O.O.O.O.O.O.O.O.O.O.O.O.O.O.O.O.O.O.O.O.O.O.O.O.O.O.O.O.O.O.O.O.O.O.O.O.O.O.O.O.O.O.O.O.O.O.O.O.O.O.O.O.",
"O.O.O.O.O.O.O.O.O.O.O.O.O.O.O.O.O.O.O.O.O.O.O.O.O.O.O.O.O.O.O.O.O.O.O.O.O.O.O.O.O.O.O.O.O.O.O.O.O.O.O.O.O.O.O.O.O.O.O.O.O.O.O.O.",
"O.O.O.O.O.O.O.O.O.O.O.O.O.O.O.O.O.O.O.O.O.O.O.O.O.O.O.O.O.O.O.O.O.O.O.O.O.O.O.O.O.O.O.O.O.O.O.O.O.O.O.O.O.O.O.O.O.O.O.O.O.O.O.O.",
"O.O.O.O.O.O.O.O.O.O.O.O.O.O.O.O.O.O.O.O.O.O.O.O.O.O.O.O.O.O.O.O.O.O.O.O.O.O.O.O.O.O.O.O.O.O.O.O.O.O.O.O.O.O.O.O.O.O.O.O.O.O.O.O.",
"O.O.O.O.O.O.O.O.O.O.O.O.O.O.O.O.O.O.O.O.O.O.O.O.O.O.O.O.O.O.O.+.+.O.O.O.O.O.O.O.O.O.O.O.O.O.O.O.O.O.O.O.O.O.O.O.O.O.O.O.O.O.O.O.",
"O.O.O.O.O.O.O.O.O.O.O.O.O.O.O.O.O.O.O.O.O.O.O.O.O.O.O.+.+.+.O.+.+.+.+.+.O.O.O.O.O.O.O.O.O.O.O.O.O.O.O.O.O.O.O.O.O.O.O.O.O.O.O.O.",
"O.O.O.O.O.O.O.O.O.O.O.O.O.O.O.O.O.O.O.O.O.O.O.O.O.+.#.$.o.*.*.*.*.=.*.&.$.@.+.O.O.O.O.O.O.O.O.O.O.O.O.O.O.O.O.O.O.O.O.O.O.O.O.O.",
"O.O.O.O.O.O.O.O.O.O.O.O.O.O.O.O.O.O.O.O.O.O.O.+.+.@.*.9.5.0.0.0.q.6.6.5.1.*.$.+.+.O.O.O.O.O.O.O.O.O.O.O.O.O.O.O.O.O.O.O.O.O.O.O.",
"O.O.O.O.O.O.O.O.O.O.O.O.O.O.O.O.O.O.O.O.O.O.O.+.%.:.I M ; - , , & # # * N | ..$.+.O.O.+.O.O.O.O.O.O.O.O.O.O.O.O.O.O.O.O.O.O.O.O.",
"O.O.O.O.O.O.O.O.O.O.O.O.O.O.O.O.O.O.O.O.O.O.+.%...S F x.).).).).v.z.z.z._ F Z >.%.+.O.O.O.O.O.O.O.O.O.O.O.O.O.O.O.O.O.O.O.O.O.O.",
"O.O.O.O.O.O.O.O.O.O.O.O.O.O.O.O.O.O.O.O.O.+.$.:.U H z.n.W.W.@X:X3X#XQ.W.W.z.R U :.$.+.O.O.O.O.O.O.O.O.O.O.O.O.O.O.O.O.O.O.O.O.O.",
"O.O.O.O.O.O.O.O.O.O.O.O.O.O.O.O.O.O.O.O.O.#.,.P R l.c.k j l M.#X3X3X#XY.Y.n.l.R L :.$.O.O.+.O.O.O.O.O.O.O.O.O.O.O.O.O.O.O.O.O.O.",
"O.O.O.O.O.O.O.O.O.O.O.O.O.O.O.O.O.O.O.O.+.%...J / i.p u a s s y.;X3X:X!.Y.Y.W.( J  .;.#.O.O.O.O.O.O.O.O.O.O.O.O.O.O.O.O.O.O.O.O.",
"O.O.O.O.O.O.O.O.O.O.O.O.O.O.O.O.O.O.O.O.+.,.K R r.j s y.M.M.y.y.H.:X5X;XR.L.I.c.E Z :.#.+.O.O.O.O.O.O.O.O.O.O.O.O.O.O.O.O.O.O.O.",
"O.O.O.O.O.O.O.O.O.O.O.O.O.O.O.O.O.O.O.+.$...H / w.s h.D.G.S.G.M.m.}.0X1XE.J.J.b.r.H  .-.#.O.O.O.O.O.O.O.O.O.O.O.O.O.O.O.O.O.O.O.",
"O.O.O.O.O.O.O.O.O.O.O.O.O.O.O.O.O.O.O.#.*.I ~ r.k t.F.S.S.S.S.A.D.F.<X6X.XU.U.H.c.Q P 2.#.O.O.O.O.O.O.O.O.O.O.O.O.O.O.O.O.O.O.O.",
"O.O.O.O.O.O.O.O.O.O.O.O.O.O.O.O.O.O.O.@.2.C T e.t.V.G.G.S.S.S.A.A.G.oX0XoXF.C.C.b.E M ..$.+.O.O.O.O.O.O.O.O.O.O.O.O.O.O.O.O.O.O.",
"O.O.O.O.O.O.O.O.O.O.O.O.O.O.O.O.O.O.#.-.| G 0 e.y.C.U.A.A.C.G.A.G.F.oX0X,XF.D.D.b.^ D { &.+.+.O.O.O.O.O.O.O.O.O.O.O.O.O.O.O.O.O.",
"O.O.O.O.O.O.O.O.O.O.O.O.O.O.O.O.O.O.+.*.P W ( a.M.C.N.g.m.m.g.g.N.C.].2X,XF.V.V.j.p.Q S *.+.O.O.O.O.O.O.O.O.O.O.O.O.O.O.O.O.O.O.",
"O.O.O.O.O.O.O.O.O.O.O.O.O.O.O.O.O.O.+.,.S _ z.j.B.G.y.a y y y u z F.I.,X1XI.V.g.h.k.! B <.+.+.O.O.O.O.O.O.O.O.O.O.O.O.O.O.O.O.O.",
"O.O.O.O.O.O.O.O.O.O.O.O.O.O.O.O.O.O.+.<.B ' b.j.A.T..X Xd.d.d.d.m.G.G.oX1X].g.h.k.u.^ = 1.+.O.O.O.O.O.O.O.O.O.O.O.O.O.O.O.O.O.O.",
"O.O.O.O.O.O.O.O.O.O.O.O.O.O.O.O.O.+.+.>.- ` I.P.C.L.=X-XY.F.G.C.B.J.J.#X1X].f.d.d.s.t O 3.#.+.O.O.O.O.O.O.O.O.O.O.O.O.O.O.O.O.O.",
"O.O.O.O.O.O.O.O.O.O.O.O.O.O.O.O.O.O.@.3.+ ` [.U.C.L.&X=XY.C.J.Z.A.B.J. X<X}.t.d.m s.t X 4.#.+.O.O.O.O.O.O.O.O.O.O.O.O.O.O.O.O.O.",
"O.O.O.O.O.O.O.O.O.O.O.O.O.O.O.O.O.O.$.X.+ p.>XE.J.L.&X=XT.Z.A.Z.Z.Z.J.!.<X{.t.x m u.e X 4.@.+.O.O.O.O.O.O.O.O.O.O.O.O.O.O.O.O.O.",
"O.O.O.O.O.O.O.O.O.O.O.O.O.O.O.O.O.+.@.X.+ p.,X XB.L.&X&XT.J.A.S.Z.J.L./.-XR.x x m n e   X.$.O.O.O.O.O.O.O.O.O.O.O.O.O.O.O.O.O.O.",
"O.O.O.O.O.O.O.O.O.O.O.O.O.O.O.O.O.O.@.4.+ `.2X XH.L.&X&X~.K.K.Z.Z.Z.Z./.$XP.k x b v e   5.$.O.O.O.O.O.O.O.O.O.O.O.O.O.O.O.O.O.O.",
"O.O.O.O.O.O.O.O.O.O.O.O.O.O.O.O.O.+.@.3.O `.0X|.J.L.$X&XK.K.Z.Z.Z.Z.S.E..Xj.g h v v 2   4.@.+.O.O.O.O.O.O.O.O.O.O.O.O.O.O.O.O.O.",
"O.O.O.O.O.O.O.O.O.O.O.O.O.O.O.O.O.+.@.3.O _.qX*XH.J.$X%XK.Z.Z.Z.Z.A.S.T.E.g.g g h r 2 X 4.#.+.O.O.O.O.O.O.O.O.O.O.O.O.O.O.O.O.O.",
"O.O.O.O.O.O.O.O.O.O.O.O.O.O.O.O.O.+.@.9.* p.9X>XP.J.$X%XL.Z.Z.Z.Z.Z.S.T.F.x f d c r 1 . 3.@.+.O.O.O.O.O.O.O.O.O.O.O.O.O.O.O.O.O.",
"O.O.O.O.O.O.O.O.O.O.O.O.O.O.O.O.O.O.@.:.M [ 8X7XI.U.&X=XK.Z.Z.Z.Z.Z.S.G.V.g i f r r 7 % 1.@.+.O.O.O.O.O.O.O.O.O.O.O.O.O.O.O.O.O.",
"O.O.O.O.O.O.O.O.O.O.O.O.O.O.O.O.O.O.+.<.A [ 8X7X[.U./.XX(.(.^.(.~.S.G.F.d.i u 6 5 9 < * 2.#.O.O.O.O.O.O.O.O.O.O.O.O.O.O.O.O.O.O.",
"O.O.O.O.O.O.O.O.O.O.O.O.O.O.O.O.O.O.O.*.P ) +XqX|.P.R.L.^.^.^.^.S.S.A.D.x i 6 6 4 8 , K =.+.+.O.O.O.O.O.O.O.O.O.O.O.O.O.O.O.O.O.",
"O.O.O.O.O.O.O.O.O.O.O.O.O.O.O.O.O.O.+.%.| V '.qX>XF.A.S.K.K.K.S.S.Z.A.h.h 3 6 5 4 7 ; Y &.+.O.O.O.O.O.O.O.O.O.O.O.O.O.O.O.O.O.O.",
"O.O.O.O.O.O.O.O.O.O.O.O.O.O.O.O.O.O.O.@.8.C ! 8X4X[.C.Z.J.Z.Z.S.Z.A.D.m f 3 6 5 q @ * 9.-.+.O.O.O.O.O.O.O.O.O.O.O.O.O.O.O.O.O.O.",
"O.O.O.O.O.O.O.O.O.O.O.O.O.O.O.O.O.O.O.+.*.{ ~ OX9X*XC.J.J.Z.Z.Z.B.A.D.m d 6 5 4 9 , L =.@.O.O.O.O.O.O.O.O.O.O.O.O.O.O.O.O.O.O.O.",
"O.O.O.O.O.O.O.O.O.O.O.O.O.O.O.O.O.O.O.+.$.1.J ] 4X3XY.H.B.Z.Z.B.D.D.m m i 6 5 q 7 B ..&.+.O.O.O.O.O.O.O.O.O.O.O.O.O.O.O.O.O.O.O.",
"O.O.O.O.O.O.O.O.O.O.O.O.O.O.O.O.O.O.O.+.#.,.K F ).3X:XY.Z.Z.B.Z.D.V.m b 6 5 w 9 : N <.#.+.O.O.O.O.O.O.O.O.O.O.O.O.O.O.O.O.O.O.O.",
"O.O.O.O.O.O.O.O.O.O.O.O.O.O.O.O.O.O.O.O.+.%...G Q [.;X$X/.L.L.U.V.m g d 6 4 q > ; ..&.+.O.O.O.O.O.O.O.O.O.O.O.O.O.O.O.O.O.O.O.O.",
"O.O.O.O.O.O.O.O.O.O.O.O.O.O.O.O.O.O.O.O.O.#.*.P F ( n.W.!.R.P.j.x b j 5 5 9 > - L =.$.O.O.O.O.O.O.O.O.O.O.O.O.O.O.O.O.O.O.O.O.O.",
"O.O.O.O.O.O.O.O.O.O.O.O.O.O.O.O.O.O.O.O.O.+.#.<.L , ' c.b.j.s.b h r 5 q 9 > - K <.$.+.O.O.O.O.O.O.O.O.O.O.O.O.O.O.O.O.O.O.O.O.O.",
"O.O.O.O.O.O.O.O.O.O.O.O.O.O.O.O.O.O.O.O.O.O.+.$.1.K = 7 E 0 0 9 8 7 8 7 : = A ..&.+.O.O.O.O.O.O.O.O.O.O.O.O.O.O.O.O.O.O.O.O.O.O.",
"O.O.O.O.O.O.O.O.O.O.O.O.O.O.O.O.O.O.O.O.O.O.+.+.$.2.{ N % o . . . $ % * C } 2.%.+.+.O.O.O.O.O.O.O.O.O.O.O.O.O.O.O.O.O.O.O.O.O.O.",
"O.O.O.O.O.O.O.O.O.O.O.O.O.O.O.O.O.O.O.O.O.O.O.O.+.@.-.8.5.7.7.7.7.7.7.5.8.-.@.+.O.O.O.O.O.O.O.O.O.O.O.O.O.O.O.O.O.O.O.O.O.O.O.O.",
"O.O.O.O.O.O.O.O.O.O.O.O.O.O.O.O.O.O.O.O.O.O.O.O.O.+.#.-.=.&.=.=.=.=.&.&.#.+.+.O.O.O.O.O.O.O.O.O.O.O.O.O.O.O.O.O.O.O.O.O.O.O.O.O.",
"O.O.O.O.O.O.O.O.O.O.O.O.O.O.O.O.O.O.O.O.O.O.O.O.O.O.O.O.O.+.+.#.#.O.O.+.O.O.O.O.O.O.O.O.O.O.O.O.O.O.O.O.O.O.O.O.O.O.O.O.O.O.O.O.",
"O.O.O.O.O.O.O.O.O.O.O.O.O.O.O.O.O.O.O.O.O.O.O.O.O.O.O.O.O.+.O.O.O.O.O.O.O.O.+.O.O.O.O.O.O.O.O.O.O.O.O.O.O.O.O.O.O.O.O.O.O.O.O.O.",
"O.O.O.O.O.O.O.O.O.O.O.O.O.O.O.O.O.O.O.O.O.O.O.O.O.O.O.O.O.O.O.O.O.O.O.O.O.O.O.O.O.O.O.O.O.O.O.O.O.O.O.O.O.O.O.O.O.O.O.O.O.O.O.O.",
"O.O.O.O.O.O.O.O.O.O.O.O.O.O.O.O.O.O.O.O.O.O.O.O.O.O.O.O.O.O.O.O.O.O.O.O.O.O.O.O.O.O.O.O.O.O.O.O.O.O.O.O.O.O.O.O.O.O.O.O.O.O.O.O.",
"O.O.O.O.O.O.O.O.O.O.O.O.O.O.O.O.O.O.O.O.O.O.O.O.O.O.O.O.O.O.O.O.O.O.O.O.O.O.O.O.O.O.O.O.O.O.O.O.O.O.O.O.O.O.O.O.O.O.O.O.O.O.O.O.",
"O.O.O.O.O.O.O.O.O.O.O.O.O.O.O.O.O.O.O.O.O.O.O.O.O.O.O.O.O.O.O.O.O.O.O.O.O.O.O.O.O.O.O.O.O.O.O.O.O.O.O.O.O.O.O.O.O.O.O.O.O.O.O.O.",
"O.O.O.O.O.O.O.O.O.O.O.O.O.O.O.O.O.O.O.O.O.O.O.O.O.O.O.O.O.O.O.O.O.+.O.O.O.O.O.O.O.O.O.O.O.O.O.O.O.O.O.O.O.O.O.O.O.O.O.O.O.O.O.O.",
"O.O.O.O.O.O.O.O.O.O.O.O.O.O.O.O.O.O.O.O.O.O.O.O.O.O.O.O.O.O.O.O.O.O.O.O.O.O.O.O.O.O.O.O.O.O.O.O.O.O.O.O.O.O.O.O.O.O.O.O.O.O.O.O.",
"O.O.O.O.O.O.O.O.O.O.O.O.O.O.O.O.O.O.O.O.O.O.O.O.O.O.O.O.O.O.O.O.O.O.O.O.O.O.O.O.O.O.O.O.O.O.O.O.O.O.O.O.O.O.O.O.O.O.O.O.O.O.O.O.",
"O.O.O.O.O.O.O.O.O.O.O.O.O.O.O.O.O.O.O.O.O.O.O.O.O.O.O.O.O.O.O.O.O.O.O.O.O.O.O.O.O.O.O.O.O.O.O.O.O.O.O.O.O.O.O.O.O.O.O.O.O.O.O.O.",
"O.O.O.O.O.O.O.O.O.O.O.O.O.O.O.O.O.O.O.O.O.O.O.O.O.O.O.O.O.O.O.O.O.O.O.O.O.O.O.O.O.O.O.O.O.O.O.O.O.O.O.O.O.O.O.O.O.O.O.O.O.O.O.O.",
"O.O.O.O.O.O.O.O.O.O.O.O.O.O.O.O.O.O.O.O.O.O.O.O.O.O.O.O.O.O.O.O.O.O.O.O.O.O.O.O.O.O.O.O.O.O.O.O.O.O.O.O.O.O.O.O.O.O.O.O.O.O.O.O.",
"O.O.O.O.O.O.O.O.O.O.O.O.O.O.O.O.O.O.O.O.O.O.O.O.O.O.O.O.O.O.O.O.O.O.O.O.O.O.O.O.O.O.O.O.O.O.O.O.O.O.O.O.O.O.O.O.O.O.O.O.O.O.O.O."
};
