/* XPM */
static char *out[] = {
/* columns rows colors chars-per-pixel */
"64 64 245 2 ",
"   c #4A1D02",
".  c #582507",
"X  c #5D290B",
"o  c #453801",
"O  c #4B3A02",
"+  c #5A320D",
"@  c #662705",
"#  c #632B0C",
"$  c #6B2D0B",
"%  c #712F0E",
"&  c #65320D",
"*  c #6D320E",
"=  c #61390E",
"-  c #72330E",
";  c #662D11",
":  c #693513",
">  c #6D3412",
",  c #733513",
"<  c #763617",
"1  c #753914",
"2  c #7B3B15",
"3  c #753C1A",
"4  c #7B3D1B",
"5  c #793D20",
"6  c #5A4C13",
"7  c #654512",
"8  c #794719",
"9  c #7E421D",
"0  c #6B561C",
"q  c #77551C",
"w  c #52671B",
"e  c #487012",
"r  c #4B7D1B",
"t  c #547B1A",
"y  c #6E6718",
"u  c #677A1E",
"i  c #7C4422",
"p  c #794C22",
"a  c #6F5F24",
"s  c #795A25",
"d  c #5A6C22",
"f  c #5B7A27",
"g  c #686925",
"h  c #776F2D",
"j  c #687728",
"k  c #767926",
"l  c #767935",
"z  c #813D15",
"x  c #823E1A",
"c  c #834116",
"v  c #84421C",
"b  c #8A431E",
"n  c #86491C",
"m  c #94491D",
"M  c #81501D",
"N  c #844423",
"B  c #8C4622",
"V  c #854B23",
"C  c #8D4A24",
"Z  c #8B4C2A",
"A  c #934622",
"S  c #934B24",
"D  c #9B4C24",
"F  c #954D29",
"G  c #9A4E29",
"H  c #885628",
"J  c #965328",
"K  c #94522A",
"L  c #9C532B",
"P  c #8A5B35",
"I  c #995934",
"U  c #A25225",
"Y  c #A3552C",
"T  c #AB562A",
"R  c #A5592D",
"E  c #AD5A2D",
"W  c #B05E2E",
"Q  c #A05630",
"!  c #A45B32",
"~  c #AB5D32",
"^  c #886828",
"/  c #8B6D2E",
"(  c #946434",
")  c #996837",
"_  c #8A7633",
"`  c #977638",
"'  c #9B7C3D",
"]  c #A86639",
"[  c #AD653B",
"{  c #B46335",
"}  c #B96534",
"|  c #B66738",
" . c #B4693C",
".. c #BB6B3B",
"X. c #A1783F",
"o. c #BF703F",
"O. c #C16E3C",
"+. c #C3713D",
"@. c #9E7041",
"#. c #A46F42",
"$. c #B86E41",
"%. c #A87846",
"&. c #BC7143",
"*. c #B4754A",
"=. c #C27241",
"-. c #198E03",
";. c #2F960E",
":. c #3A8916",
">. c #13AC01",
",. c #16B700",
"<. c #25A906",
"1. c #31B20E",
"2. c #3AB917",
"3. c #46890E",
"4. c #4A8918",
"5. c #588A18",
"6. c #489417",
"7. c #57981B",
"8. c #66851B",
"9. c #48A919",
"0. c #52A81D",
"q. c #47B81C",
"w. c #52B21E",
"e. c #538B23",
"r. c #5A9B28",
"t. c #6A8826",
"y. c #778929",
"u. c #65952E",
"i. c #699828",
"p. c #749A2C",
"a. c #7A8737",
"s. c #649431",
"d. c #759232",
"f. c #4BAA22",
"g. c #58A724",
"h. c #4CB924",
"j. c #59B727",
"k. c #53BD24",
"l. c #5DBC2A",
"z. c #64A827",
"x. c #74A52F",
"c. c #64B72C",
"v. c #6CAC32",
"b. c #78A835",
"n. c #68B734",
"m. c #73B537",
"M. c #18C508",
"N. c #17D409",
"B. c #1BD80A",
"V. c #29C90C",
"C. c #24D90E",
"Z. c #28C813",
"A. c #34CD15",
"S. c #39C618",
"D. c #3CCD1B",
"F. c #28D614",
"G. c #2CDC15",
"H. c #34D617",
"J. c #3BD31C",
"K. c #34DC1A",
"L. c #3BD91C",
"P. c #0CE905",
"I. c #15E50A",
"U. c #1DE40C",
"Y. c #15ED0C",
"T. c #1BED0D",
"R. c #06F504",
"E. c #0CF607",
"W. c #01FF01",
"Q. c #09FA06",
"!. c #0EF609",
"~. c #0BF908",
"^. c #13F30B",
"/. c #10F608",
"(. c #18F10D",
"). c #1CE511",
"_. c #1CEC11",
"`. c #17F110",
"'. c #1AF011",
"]. c #22E80F",
"[. c #24E513",
"{. c #2BE214",
"}. c #23E912",
"|. c #29E419",
" X c #33E01A",
".X c #38CB23",
"XX c #3CD522",
"oX c #38DA23",
"OX c #45C71D",
"+X c #42D41E",
"@X c #4CC523",
"#X c #45C926",
"$X c #4CCB23",
"%X c #59C329",
"&X c #54C928",
"*X c #43D322",
"=X c #47D725",
"-X c #54CB32",
";X c #55D639",
":X c #66C334",
">X c #759845",
",X c #78B247",
"<X c #72C94D",
"1X c #63DF4A",
"2X c #83822D",
"3X c #80932F",
"4X c #878835",
"5X c #96883C",
"6X c #859736",
"7X c #91963D",
"8X c #A1843F",
"9X c #86A63D",
"0X c #81BC3D",
"qX c #9C8643",
"wX c #879C41",
"eX c #8A924B",
"rX c #999944",
"tX c #A78848",
"yX c #A9944B",
"uX c #B08651",
"iX c #B88B54",
"pX c #AB9852",
"aX c #B79657",
"sX c #8CA24A",
"dX c #97A746",
"fX c #ADA453",
"gX c #9EBE64",
"hX c #A5B56C",
"jX c #ACB670",
"kX c #B8BC79",
"lX c #C2915D",
"zX c #C09360",
"xX c #87CA5A",
"cX c #98C665",
"vX c #91DA67",
"bX c #ACCE76",
"nX c #91F771",
"mX c #B0DD84",
"MX c #B8F28E",
"NX c #B7F88D",
"BX c #C8D58F",
"VX c #CCF19B",
"CX c #D8F6AA",
"ZX c #E6E8AA",
"AX c #EEE9B1",
/* pixels */
"W.W.W.W.W.W.W.W.W.W.W.W.W.W.W.W.W.W.W.W.W.W.W.W.W.W.W.W.W.W.W.W.Q.W.W.W.W.W.W.W.W.W.W.W.W.W.W.W.W.W.W.W.W.W.W.W.W.W.W.W.W.W.W.W.",
"W.W.W.W.W.W.W.W.W.W.W.W.W.W.W.W.W.W.W.W.W.W.W.W.W.W.W.Q.W.Q.Q.~.Q.Q.~.~.R.Q.Q.W.W.W.W.W.W.W.W.W.W.W.W.W.W.W.W.W.W.W.W.W.W.W.W.W.",
"W.W.W.W.W.W.W.W.W.W.W.W.W.W.W.W.W.W.W.W.W.Q.W.Q.Q.R.Q.Q.Q.~.^.T._.^.`.`.^.^.~.~.Q.W.W.W.W.W.W.W.W.W.W.W.W.W.W.W.W.W.W.W.W.W.W.W.",
"W.W.W.W.W.W.W.W.W.W.W.W.W.W.W.W.W.W.W.Q.E.E.^._.`.Y.Y.Y.^.T.[.F.F.Z.C.N.B.B.I.`.!.Q.Q.W.W.W.W.W.W.W.W.W.W.W.W.W.W.W.W.W.W.W.W.W.",
"W.W.W.W.W.W.W.W.W.W.W.W.W.W.W.W.W.W.Q.~.`.B.F.F.F.M.>.B.|.G.Z.1.-.-.-.;.<.<.,.K.}._.^.Q.W.W.W.W.W.W.W.W.W.W.W.W.W.W.W.W.W.W.W.W.",
"W.W.W.W.W.W.W.W.W.W.W.W.W.W.W.W.W.Q.!.'.B.,.>.<.1.<.<.S.A..X@Xf.6.e.4.:.:.f.h.#XZ.C.T.^./.Q.W.W.W.W.W.W.W.W.W.W.W.W.W.W.W.W.W.W.",
"W.W.W.W.W.W.W.W.W.W.W.W.W.W.W.W.Q.^.).|..X,.;.:.:.;.2.@X=X-Xl.g.4.r 4.e.u.v.,Xc.9.<.V.}.^.~.W.W.W.W.W.W.W.W.W.W.W.W.W.W.W.W.W.W.",
"W.W.W.W.W.W.W.W.W.W.W.W.W.W.Q.~.`.).F.S.#Xh.f.f.:.9.f.l.k.l.v.i.f f f t i.,Xv.7.6.;.1.F.].^.Q.Q.W.W.W.W.W.W.W.W.W.W.W.W.W.W.W.W.",
"W.W.W.W.W.W.W.W.W.W.W.W.W.W.Q.^.T.G.#Xk.f.m.,X:Xl.c.:X:Xz.v.b.b.>XwXd.t.d.x.b.z.6.f.#XXX{.]./.W.W.W.W.W.W.W.W.W.W.W.W.W.W.W.W.W.",
"W.W.W.W.W.W.W.W.W.W.W.W.W.Q.!.P.M.Z.h.7.e.r.v.z.c.z.i.7.x.b.d.u t.wX3Xj 8.i.i.v.m.c.h.#XH.]./.Q.W.W.W.W.W.W.W.W.W.W.W.W.W.W.W.W.",
"W.W.W.W.W.W.W.W.W.W.W.W.W.~.Y.N.,.#Xf.6.:.r.n.n.v.b.9XdX9X7XdXa.j l k l 7X7X9Xz.i.v.j.q.H.].(.Q.Q.Q.W.W.W.W.W.W.W.W.W.W.W.W.W.W.",
"W.W.W.W.W.W.W.W.W.W.W.Q./.Y.).G.*Xh.f.4.4.5.z.m.x.3XdXrX7X5XeXl y _ rXrXpXyX6Xt.t 4.z.%X+X X].].T.^.Q.Q.W.W.W.W.W.W.W.W.W.W.W.W.",
"W.W.W.W.W.W.W.W.W.W.Q.^.I.C.A.S.@Xk.f.e e t.t.t.3X2X7XfXtX@.qXpXaXaXpXyXyXtX/ 2Xy.8.m.c.OX+X+XA.V.B.Y.^.Q.W.W.W.W.W.W.W.W.W.W.W.",
"W.W.W.W.W.W.W.W.W.Q.^.T.N.,.S.&X&X1.7.b.t.u k 4XpXyXtXaXzX%.%.zXiXtX@.tXlX%.%.uX4Xk t.z.9.q.&X&XS.,.N.T.E.Q.W.W.W.W.W.W.W.W.W.W.",
"W.W.W.W.W.W.W.W.W./.U.G.D.V.q.OX$X9.z.y.k yXtX) uXtX` ( s i i P P s P @.%.X.%.iX) ` dXp.7.9.$X&XS.1.D.K.Y.E.Q.W.W.W.W.W.W.W.W.W.",
"W.W.W.W.W.W.W.W.Q.^.C.V.+XOXOX&X&Xc.x.4X` ` lX%.P H & X + X         X & * - K ( ) iX` _ 9Xm.%X%X@XOXOXV.U.^.Q.W.W.W.W.W.W.W.W.W.",
"W.W.W.W.W.W.W.W.Q.(.{.+XJ.S.OXOXj.z.y.8XiX] ) H % . X # ; X       . # > > ; > 4 ( ) ` tX7Xi.0.w.OXOX+X+X{.T.Q.W.W.W.W.W.W.W.W.W.",
"W.W.W.W.W.W.W.W.E.Y.F.+X+X+X&X%Xj.p.2X/ tX] 1 > ; # # ; < ;       . ; < 3 < < < 2 M  .uX8XdXp.z.%X$X+XL.].I.Q.W.W.W.W.W.W.W.W.W.",
"W.W.W.W.W.W.W.Q.E.(. XH.J.OX@Xc.5.2XyXuXH 2 , < ; % % < 5 5   . X X < N N x 4 N 4 2 n ^ 5XyX7Xb.j.OX+XA.{.(.E.W.W.W.W.W.W.W.W.W.",
"W.W.W.W.W.W.W.Q.^.].F.,.>.OXn.b.6X5X8X%.V x x x x < < x 5 5 X X X ; x Z Z A F F b c 2 H tX5X4Xb.g.9.>.V.[.T.E.W.W.W.W.W.W.W.W.W.",
"W.W.W.W.W.W.W.Q.^.[.H.1.<.q.z.8.6XtX/ 8 n C A A x x x x Z v ; + ; : N F D S L Y J S v 8 ^ 5XrX7Xb.0.<.S.C.T.E.Q.W.W.W.W.W.W.W.W.",
"W.W.W.W.W.W.W.Q.^.C.A..Xq.j.p.y.h _ H n L Y G G D x x A G N # # ; : Z ! L U ~ [ ~ R J v M ' 5X_ p.7.9.OXH.].E.W.W.W.W.W.W.W.W.W.",
"W.W.W.W.W.W.W.E.T.C.D.OX%Xn.3XfXaXX.M J R ~ Y T D A A A L Z $ $ ; , Z ~ Y U { ..{ ] Y n c H ' yX7Xp.j.@XA.[./.Q.W.W.W.W.W.W.W.W.",
"W.W.W.W.W.W.W.~.(.C.A.2.6.8.y ^ X.] n ! [ { E ~ Y S A A ! F , : , < A { { E { o.} ..{ Y J ( %._ 0 u 3.q.A.[./.Q.W.W.W.W.W.W.W.W.",
"W.W.W.W.W.W.W.Q.^.}.XXq.3.8.rXX.( c b [ &. .{ { Y D A D ! K , > , < D { { W } =...&. .~ I V H ) tX3X7.@XJ.}./.Q.W.W.W.W.W.W.W.W.",
"W.W.W.W.W.W.W.Q.E.U.A.l.7.y.yXlX%.1 * b [ &.[ [ G A A G ! K * > > 2 Y [ [ ] [  .&.&.&.S - * I uXtX2Xi.w.A.]./.W.W.W.W.W.W.W.W.W.",
"W.W.W.W.W.W.W.Q./.}.+X%Xz.3Xy M 8 & 3 I *.! x , $ % 2 Z ! K > > , 8 J Q K x $ - x ] $.] 9 # 3 q M 2Xp.l.+X}./.W.W.W.W.W.W.W.W.W.",
"W.W.W.W.W.W.W.Q./.}.+X:X0XdXaXlX#.: ; > < 4 9 N 5 < % x F C , > , 3 A b 1 2 < V N 5 3 < : # V uXfXfXb.w.=X}./.Q.W.W.W.W.W.W.W.W.",
"W.W.W.W.W.W.W.W.Q.(.H.w.x.y.^ ` P ; ; ; # @ % 5 ; ; ; % N x % : , 1 b 2 $ $ > 5 5 $ # # ; X i ( / 2X9Xw.V.}./.W.W.W.W.W.W.W.W.W.",
"W.W.W.W.W.W.W.W.Q.(.+X%Xx.3XtXiX) : > i I I 2 @ # < < x Q A % > > 1 F F b 2 @ $ $ I ! P i ; i ' 5X4X9Xc.H.(.Q.W.W.W.W.W.W.W.W.W.",
"W.W.W.W.W.W.W.W.Q.(. X&Xm.9XfXlX@.& # V #.$.Q Y b x A F Q F % > > 2 D ~ ~ ! F Q &.&.&.C # . 8 ] tX7Xi.w.K.(.Q.W.W.W.W.W.W.W.W.W.",
"W.W.W.W.W.W.W.W.Q./.G.$Xz.8.5X` P , v I &...~ ~ Y G A G ! G % > * 2 D ~ ~ W  .=.&.=.&.Y Z 3 8 / ' 4Xp.l.K.^.Q.W.W.W.W.W.W.W.W.W.",
"W.W.W.W.W.W.W.W./.(. XOXz.3XyXtXX.8 F [ O.} W T T D D D L m - , , 8 D W E E } +.O.+.} U R n q ` yXdXi.w. X^.E.W.W.W.W.W.W.W.W.W.",
"W.W.W.W.W.W.W.Q./.(. X$Xz.8.3X2X8 8 A ~ } } T W T D D D Y m * > - - J W E W } +.O.+.O.U D v 8 ' 5Xk i.c. X(.Q.W.W.W.W.W.W.W.W.W.",
"W.W.W.W.W.W.W.W.Q.(. X$Xz.3XrXyX] 8 D ..=.} T W T A D D L C * > - 1 m E W W } +.+.+.O.W L c M 8XyX7X8.w.L.]./.W.W.W.W.W.W.W.W.W.",
"W.W.W.W.W.W.W.Q./.].L.$Xw.9X7X8X( 2 A | O.} T T W x S S L S , > , 2 J W T E } +.+.+.} T U c 8 / rX3X8.0.J.}./.Q.Q.W.W.W.W.W.W.W.",
"W.W.W.W.W.W.W.~.T.{.H.$Xz.3X5X8X( z m E W } T T T A % < L Z $ > - 8 S ! J c U +.=.+.} m m c n X.yX7Xi.9.+X{.(.E.W.W.W.W.W.W.W.W.",
"W.W.W.W.W.W.~.^.].V.OX%Xc.9XfXlXX.z S ..O.} T W T B $ $ C N > , * 1 K K M 2 c  .=.=...U U c c tXyX5X3Xc.$XV.]./.Q.W.W.W.W.W.W.W.",
"W.W.W.W.W.Q./.].].+XOXl.x.y.^ E J 2 m ..O.{ E R b $ @ x I 9 > > > 1 K v $ - - m ..=.} U D c n ( X.5X3Xz.%XOX].(.~.W.W.W.W.W.W.W.",
"W.W.W.W.Q.Q./.]. X+XOXl.z.3XfXlX%.8 m [ } } E G x < N I N # > > , 3 2 * c ( M n { =.} U m z n *.lXyX3Xz.%X+XH.]./.Q.W.W.W.W.W.W.",
"W.W.W.W.W./.U.C. XL.+X%Xz.y.8X` J 2 m ....} E Y x 1 F N < 9 > > , 8 2 - 9 K 3 c ..=.} E D z c I ^ ^ 8.7.@X+X+XC.I.E.W.W.W.W.W.W.",
"W.W.W.W.W./.].G.G.L.+X&Xz.3XyXlXX.c D  .+.} T T G < @ @ N Z > > > , C C $ @ z  .o.o.} ~ G z n *.lXyXy.z.$X+XA.G.(.Q.Q.W.W.W.W.W.",
"W.W.W.W.W.E.T.{.H.+XJ.k.z.3XtXiX] 8 m  ...} U E R D A A L N , > - - S ! Y Y { &.+.+...E G z V %.lX8Xp.g.OX+XL.G.(.~.W.W.W.W.W.W.",
"W.W.W.W.W.E./.U.G.A.+X%Xi.k / R H 2 m ! { { T T Y D D G Q F $ , , 1 A [ E ] ..o.o.+.| D b 2 8 H ^ ^ 3X:X$XL.C.C./.Q.W.W.W.W.W.W.",
"W.W.W.W.W.Q./.T.{.L.*Xk.z.7XaXlX#., 9 !  .{ E Y E G D D R S * > , 1 S { E E  .....o.{ Q C , i *.lXfXi.7.$XL.{.(.E.W.W.W.W.W.W.W.",
"W.W.W.W.W.Q.Q./.).F.*Xw.i.4X/ ( V # > Z [ [ Y J x x G G L C * , * 1 S ~ ] L m D [ o. .K > # 3 H ^ 2Xi.0.OXG.U./.Q.W.W.W.W.W.W.W.",
"W.W.W.W.W.W.Q.E.).F.XX0.i.rXtXiX@.: : V I K v 1 , < 2 x L Z * > > 8 C S c z , 9 8 K I Z 3 X i %.iXdXp.w.J.[.Y.Q.W.W.W.W.W.W.W.W.",
"W.W.W.W.W.W.W.P.I.F.S.2.r 4XtXuX( & X # * - < < 3 , , 1 4 v * > , 1 8 2 1 < < 4 v 1 - $ # X i ) 8X2X5.9.K.T.E.Q.W.W.W.W.W.W.W.W.",
"W.W.W.W.W.W.~.P.N.M.Z.:.e l @.uX@.; ; : > $ < 5 5 ; $ % C C * * * 4 C b $ $ 3 Z N , $ : 3 ; i %.iXrX5.9.|.^.Q.W.W.W.W.W.W.W.W.W.",
"W.W.W.W.W.W.~.`.M.>.;.:.e l eXzX@.; : P @.I x < ; % x Z L K * > > < K I F N $ - N ) ! Z : X i ( X.5X3.q.|.~.Q.W.Q.W.W.W.W.W.W.W.",
"W.W.W.W.W.W.~._.Z.-.:.:.w j @.@.Z + X 3 ! #.L G G A F G ! C - > , 2 G ~ ! R ! [ $.$.[ N ; # 3 P / y 3.OX|.~.~.R.Q.W.W.W.W.W.W.W.",
"W.W.W.W.Q.~.`.)..X<XmX>Xf l pXpX_ 7 p @.#.[ Y L Q G G G L S * > , 2 G ~ R R  .$. .&.[ I V 3 p %.yXy.3.q.|.`.`.`.^.P.R.Q.W.W.W.W.",
"W.W.W.W.Q.~.).Z.;XMXCXBXeX@.l l a 7 a / ) ] K A Q Q A A I F & > : 3 K ! G G {  .! ! ] H 8 8 8 s h u 3.q..X|.|.|.B.N.!.Q.W.W.W.W.",
"W.W.W.W.Q.Y.F..X<XCXZXZXmXeX>X@.l g g h s 8 8 2 x < < , x , . . X # 2 b z 8 b S B M M q 0 7 a qX4Xj :.f.;X1XNXnX;XZ.Y.Q.W.W.W.W.",
"W.W.W.W.Q.B.Z.:XMXBXZXAXAXkXl l f d f g 0 7 7 : % ; > , > > : & & : 3 3 > - * > > = 0 0 a g g l j f t r.<XVXCXNXnXoX_.~.Q.W.W.W.",
"W.W.W.Q.~.).;XnXCXAXAXAXAXBXhXl w w j d.6 6 + = : = = = = = = = = = = = = = = = = 6 6 g eX>Xd w w w f >XmXCXMXmXvX;X[.~.W.W.W.W.",
"W.W.W.Q.~._.1XNXCXCXZXZXBXkXkXjXhX>X>X>XjXkXeX0 O O O O O O o o o O O O O O O O o o l jXmXsXf e.sXgXbXBXCXBXcXgX<X.XB.Q.Q.W.W.W.",
"W.W.W.W.Q.T.oX1XxXcXmXmXbXhXgXgXcXcX,X<XMXMXbX>Xu.u.u.u.u.u.s.s.u.u.u.u.u.u.u.s.s.,XmXVXMXxX,XvXvXxX,XvXvXxX,X<X#XF.).E.W.W.W.W.",
"W.W.W.W.W.^.).Z.2.2.h.h.j.f.f.f.-Xl.#X#X;X;X#X#XXXXXXXXXXXXXXXXXoXXXXXXXXXXX*XXX*X-X;X1X1X-X.XoXoXXXXXoXoXoXoX X|.).!.R.W.W.W.W.",
"W.W.W.W.W.Q.^.).).F..XoX.XXXD..XoXoX|.|.|.|.|.[._.'.'.'.^.^._.^.^.^.^._.'.'.'.'.'.|.oXoXoXF.|._._._.'.'.(.`.^.^.!.~.W.W.W.W.W.W.",
"W.W.W.W.W.W.Q.!.^.^.'.'.'.`._._._.`.^.^.^.!.^.E.~.Q.Q.Q.Q.Q.Q.Q.Q.Q.Q.Q.Q.Q.Q.Q.^.!.`.`.`.^.^.!.`.~.~.~.Q.Q.Q.Q.Q.W.W.W.W.W.W.W.",
"W.W.W.W.W.W.W.W.Q.W.Q.Q.Q.Q.Q.Q.Q.~.W.W.W.Q.W.W.W.W.W.W.W.W.W.W.W.W.W.W.W.W.W.W.W.W.W.~.W.Q.W.W.W.W.W.W.W.W.W.W.W.W.W.W.W.W.W.W.",
"W.W.W.W.W.W.W.W.W.W.W.W.W.W.W.W.W.W.W.W.W.W.W.W.W.W.W.W.W.W.W.W.W.W.W.W.W.W.W.W.W.W.W.W.W.W.W.W.W.Q.W.W.W.W.W.W.W.W.W.W.W.W.W.W.",
"W.W.W.W.W.W.W.W.W.W.W.W.W.W.W.W.W.W.W.W.W.W.W.W.W.W.W.W.W.W.W.W.W.W.W.W.W.W.W.W.W.W.W.W.W.W.W.W.W.W.W.W.W.W.W.W.W.W.W.W.W.W.W.W."
};
